<svg width="192" height="72" viewBox="0 0 192 72" fill="none" xmlns="http://www.w3.org/2000/svg">
<path d="M180.341 52.3627C176.702 52.3627 174.837 54.7771 174.531 55.1396C173.621 53.3929 171.931 52.3627 169.716 52.3627C166.513 52.3627 164.693 54.236 164.393 54.5325C164.258 54.0346 163.606 52.6677 161.538 52.6677C160.937 52.6677 160.068 52.8605 159.993 52.8807C160.076 53.272 160.468 55.1742 160.468 57.7986V69.3814H164.679V57.5828C164.762 57.5051 166.335 55.9022 168.235 55.9022C170.134 55.9022 171.07 57.3238 171.07 59.2691V69.3842H175.292V57.5799C175.381 57.4965 176.928 55.9022 178.851 55.9022C180.773 55.9022 181.654 57.3238 181.654 59.2691V69.3842H185.905V58.613C185.905 54.8289 183.765 52.3684 180.341 52.3684V52.3627Z" fill="white"/>
<path d="M134.141 66.3223C131.286 66.3223 129.238 64.0461 129.238 61.0734C129.238 57.7612 131.567 55.7928 134.141 55.7928C135.537 55.7928 136.127 56.2158 137.042 56.2158C138.032 56.2158 138.555 55.741 139.045 54.7856C139.313 54.259 139.471 53.954 139.471 53.954C139.256 53.8216 137.122 52.3655 133.506 52.3655C128.2 52.3655 125.027 56.1871 125.027 61.0734C125.027 66.4058 128.652 69.7554 133.506 69.7554C137.028 69.7554 139.159 68.3108 139.531 68.0374L138.078 65.1338C137.751 65.3468 136.25 66.3223 134.144 66.3223H134.141Z" fill="white"/>
<path d="M87.9483 52.3655C83.9148 52.3655 80.5049 55.6691 80.5049 61.0734C80.5049 66.4777 83.8089 69.7554 88.7464 69.7554C92.6683 69.7554 94.7051 68.0259 94.9454 67.8676C94.9454 67.8676 94.5649 67.2432 94.4591 67.0648C93.907 66.1583 93.2834 65.8676 92.5882 65.8676C91.1951 65.8676 91.0178 66.4461 89.1412 66.4461C85.9086 66.4461 84.793 63.9166 84.7157 62.2273H95.5233V60.9698C95.5233 55.7842 92.5539 52.3684 87.9511 52.3684L87.9483 52.3655ZM84.6929 59.2173C84.6929 57.318 86.0231 55.5511 87.8825 55.5511C89.965 55.5511 91.115 57.3698 91.1436 59.2173H84.6929Z" fill="white"/>
<path d="M102.729 64.6935V47.3583C102.729 45.3986 101.431 43.8849 99.4196 43.8849H98.5156V66.3971C98.5156 68.4662 99.7915 69.7554 102.011 69.7554C104.746 69.7554 105.561 67.7957 105.561 65.9539C105.456 66.0144 104.869 66.2532 104.283 66.2532C103.31 66.2532 102.732 65.6834 102.732 64.6935H102.729Z" fill="white"/>
<path d="M74.5545 64.1037V55.8649H78.0759L79.3003 52.6735H74.5573V47.6893C74.5573 47.6893 74.1797 47.6893 74.1597 47.6893C72.2889 47.6893 70.3379 48.4865 70.3379 52.6332V52.6735H67.2227V55.862H70.3379V65.5742C70.3379 68.3195 71.957 69.7526 74.2484 69.7526C76.1078 69.7526 78.4965 69.1857 78.4965 65.4879C78.3506 65.58 77.4523 66.1641 76.4711 66.1641C75.0951 66.1641 74.5573 65.3181 74.5573 64.1037H74.5545Z" fill="white"/>
<path d="M114.392 52.3655C110.352 52.3655 106.948 55.6691 106.948 61.0734C106.948 66.4777 110.247 69.7554 115.187 69.7554C119.109 69.7554 121.137 68.0259 121.389 67.8676C121.389 67.8676 121.003 67.2432 120.891 67.0648C120.342 66.1583 119.721 65.8676 119.023 65.8676C117.638 65.8676 117.455 66.4461 115.576 66.4461C112.349 66.4461 111.233 63.9166 111.153 62.2273H121.961V60.9698C121.961 55.7842 118.989 52.3684 114.392 52.3684V52.3655ZM111.142 59.2173C111.142 57.318 112.464 55.5511 114.323 55.5511C116.403 55.5511 117.553 57.3698 117.584 59.2173H111.145H111.142Z" fill="white"/>
<path d="M149.197 69.7526C144.036 69.7526 140.93 66.3281 140.93 61.0619C140.93 55.7958 143.993 52.3627 149.197 52.3627C154.4 52.3627 157.464 55.8217 157.464 61.0619C157.464 66.0202 154.632 69.7526 149.197 69.7526ZM149.197 66.4893C151.777 66.4893 153.268 64.2533 153.268 61.0619C153.268 57.8706 151.812 55.6202 149.197 55.6202C146.582 55.6202 145.121 57.8332 145.121 61.0619C145.121 64.2907 146.574 66.4893 149.197 66.4893Z" fill="white"/>
<path d="M13.4593 50.849C10.9076 49.6462 8.83081 48.6793 8.83081 46.7282C8.83081 45.2347 10.018 44.1469 12.3666 44.1469C13.2333 44.1469 13.9371 44.2505 14.6665 44.38C15.047 44.4519 15.4532 44.5009 15.7965 44.5009C17.8476 44.5009 19.0004 43.275 19.7728 40.9383L20.0932 39.98C19.7613 39.8476 16.4087 38.3656 12.0376 38.3656C5.08336 38.3656 1.41316 42.8519 1.41316 47.508C1.41316 49.8562 2.14549 51.557 3.29261 52.898C4.7687 54.6217 6.86841 55.7498 8.83654 56.7138C11.6972 58.1267 14.2832 59.1685 14.2832 61.2692C14.2918 63.1282 12.378 64.1872 9.82346 64.1872C6.32203 64.1872 3.26399 62.1757 2.87495 61.9311L0 67.3469C0.512056 67.6347 4.21373 70.0001 10.3012 70.0001C16.792 70.0001 21.7123 66.2534 21.7123 60.4922C21.7123 54.7311 17.1524 52.639 13.4622 50.8433L13.4593 50.849Z" fill="white"/>
<path d="M38.8478 53.5253L50.6194 39.0073H42.2291L32.8405 51.5368H32.7032V39.0073H25.7861V69.7641H26.2009C29.1903 69.7641 32.7489 68.3742 32.7489 63.3526V56.285H32.892L42.4637 69.3814H51.263L38.8478 53.5253Z" fill="white"/>
<path d="M51.0138 8.05469C48.568 8.51512 44.9693 10.7396 44.975 14.6734C44.9893 18.2446 47.89 20.4029 47.8957 25.082C47.9129 28.6014 45.982 30.9698 43.8994 32.282C44.7347 32.2101 45.6673 32.1583 46.68 32.1583C48.8054 32.1525 50.0899 32.354 50.1757 32.3655L61.0919 18.8892C58.0596 14.3223 54.5181 10.777 51.0138 8.05756V8.05469Z" fill="white"/>
<path d="M60.1823 44.4604C61.5611 42.3022 61.7299 38.8748 61.8501 35.3813C61.9788 32.118 62.6482 29.6662 66.9878 29.6489C67.949 29.6489 68.8701 29.7813 70.5207 29.7756C76.8684 29.7468 81.0164 27.5482 83.5996 26.1094C78.3302 22.7281 70.6351 19.2748 61.0948 18.8864C60.4712 20.6504 55.6367 34.1756 55.2734 35.2662C55.3249 35.3353 56.1717 36.2907 57.233 38.1497C58.792 40.7079 59.6331 42.872 60.1852 44.4576L60.1823 44.4604Z" fill="white"/>
<path d="M37.1169 33.4101C36.5676 33.4158 36.293 33.0475 36.2129 32.4057C36.1528 31.7698 33.4181 6.63309 33.009 2.83165C32.9461 2.27626 32.8145 1.25755 32.8145 0.894964C32.8116 0.307914 33.1892 0 33.6383 0C34.9313 0 41.9857 1.65755 49.4634 6.93525C47.3065 7.5482 43.4132 9.80143 43.4275 14.4748C43.4389 18.6043 46.3854 20.8777 46.3997 25.0302C46.4254 31.7784 38.7131 33.4072 37.1169 33.4101Z" fill="white"/>
<path d="M60.8086 46.2503C60.9287 46.564 61.0403 46.8258 61.149 47.01C61.3264 47.3035 61.5438 47.4359 61.8241 47.4359C61.9958 47.4359 62.2103 47.3726 62.4449 47.2719C63.0199 46.9985 85.8249 36.3251 89.2634 34.7251C89.7583 34.4863 90.7052 34.0632 91.017 33.8762C91.3403 33.692 91.489 33.4244 91.489 33.1481C91.489 32.9899 91.4433 32.8373 91.3603 32.6963C90.9283 31.9942 88.7228 29.6402 85.0326 27.0704C82.1061 28.6906 77.5291 31.1971 70.7236 31.2258C69.0616 31.2258 68.6811 31.1136 67.5426 31.1165C64.2242 31.1309 63.3975 32.5582 63.2745 35.4906C63.2516 36.0402 63.2401 36.7827 63.2115 37.5999C63.1086 40.2186 62.7996 43.8273 60.8086 46.2445V46.2503Z" fill="white"/>
</svg>
