<svg width="142" height="54" viewBox="0 0 142 54" fill="none" xmlns="http://www.w3.org/2000/svg">
<path d="M133.377 40.772C130.686 40.772 129.306 42.5828 129.08 42.8547C128.407 41.5446 127.157 40.772 125.519 40.772C123.15 40.772 121.804 42.177 121.582 42.3993C121.483 42.0259 121 41.0007 119.471 41.0007C119.026 41.0007 118.383 41.1454 118.328 41.1605C118.389 41.454 118.679 42.8806 118.679 44.8489V53.536H121.794V44.6871C121.855 44.6288 123.019 43.4266 124.423 43.4266C125.828 43.4266 126.52 44.4928 126.52 45.9518V53.5382H129.643V44.6849C129.708 44.6223 130.853 43.4266 132.275 43.4266C133.696 43.4266 134.348 44.4928 134.348 45.9518V53.5382H137.492V45.4597C137.492 42.6216 135.909 40.7763 133.377 40.7763V40.772Z" fill="#EE7623"/>
<path d="M99.2093 51.2418C97.0979 51.2418 95.583 49.5346 95.583 47.3051C95.583 44.8209 97.3052 43.3447 99.2093 43.3447C100.242 43.3447 100.678 43.6619 101.355 43.6619C102.087 43.6619 102.474 43.3058 102.836 42.5893C103.034 42.1943 103.151 41.9655 103.151 41.9655C102.992 41.8663 101.414 40.7742 98.7396 40.7742C94.815 40.7742 92.4688 43.6404 92.4688 47.3051C92.4688 51.3044 95.1493 53.8166 98.7396 53.8166C101.344 53.8166 102.92 52.7332 103.195 52.5281L102.121 50.3504C101.879 50.5101 100.769 51.2418 99.2114 51.2418H99.2093Z" fill="#EE7623"/>
<path d="M65.045 40.7742C62.0619 40.7742 59.54 43.2519 59.54 47.3051C59.54 51.3583 61.9837 53.8166 65.6353 53.8166C68.5359 53.8166 70.0423 52.5195 70.22 52.4008C70.22 52.4008 69.9386 51.9324 69.8603 51.7986C69.452 51.1188 68.9908 50.9008 68.4767 50.9008C67.4464 50.9008 67.3152 51.3346 65.9273 51.3346C63.5366 51.3346 62.7114 49.4375 62.6543 48.1706H70.6474V47.2274C70.6474 43.3382 68.4513 40.7763 65.0472 40.7763L65.045 40.7742ZM62.6374 45.913C62.6374 44.4886 63.6212 43.1634 64.9964 43.1634C66.5366 43.1634 67.3871 44.5274 67.4083 45.913H62.6374Z" fill="#EE7623"/>
<path d="M75.9768 50.0202V37.0187C75.9768 35.5489 75.0162 34.4137 73.5289 34.4137H72.8604V51.2979C72.8604 52.8497 73.804 53.8166 75.4457 53.8166C77.4683 53.8166 78.0713 52.3468 78.0713 50.9655C77.993 51.0108 77.5593 51.19 77.1256 51.19C76.4062 51.19 75.9789 50.7626 75.9789 50.0202H75.9768Z" fill="#EE7623"/>
<path d="M55.1393 49.5778V43.3986H57.7437L58.6492 41.0051H55.1414V37.267C55.1414 37.267 54.8621 37.267 54.8473 37.267C53.4637 37.267 52.0208 37.8648 52.0208 40.9749V41.0051H49.7168V43.3965H52.0208V50.6806C52.0208 52.7396 53.2183 53.8144 54.9129 53.8144C56.2881 53.8144 58.0547 53.3893 58.0547 50.6159C57.9468 50.6849 57.2825 51.1231 56.5568 51.1231C55.5392 51.1231 55.1414 50.4885 55.1414 49.5778H55.1393Z" fill="#EE7623"/>
<path d="M84.6027 40.7742C81.6153 40.7742 79.0977 43.2519 79.0977 47.3051C79.0977 51.3583 81.537 53.8166 85.1908 53.8166C88.0914 53.8166 89.5915 52.5195 89.7776 52.4008C89.7776 52.4008 89.492 51.9324 89.4095 51.7986C89.0033 51.1188 88.5442 50.9008 88.028 50.9008C87.004 50.9008 86.8686 51.3346 85.4786 51.3346C83.0921 51.3346 82.267 49.4375 82.2077 48.1706H90.2008V47.2274C90.2008 43.3382 88.0026 40.7763 84.6027 40.7763V40.7742ZM82.1992 45.913C82.1992 44.4886 83.1767 43.1634 84.5519 43.1634C86.09 43.1634 86.9405 44.5274 86.9638 45.913H82.2014H82.1992Z" fill="#EE7623"/>
<path d="M110.344 53.8144C106.527 53.8144 104.229 51.2461 104.229 47.2964C104.229 43.3468 106.495 40.772 110.344 40.772C114.192 40.772 116.458 43.3662 116.458 47.2964C116.458 51.0151 114.364 53.8144 110.344 53.8144ZM110.344 51.3669C112.252 51.3669 113.354 49.69 113.354 47.2964C113.354 44.9029 112.278 43.2151 110.344 43.2151C108.41 43.2151 107.329 44.8748 107.329 47.2964C107.329 49.718 108.404 51.3669 110.344 51.3669Z" fill="#EE7623"/>
<path d="M9.9543 39.6368C8.06711 38.7346 6.53112 38.0094 6.53112 36.5461C6.53112 35.426 7.40913 34.6101 9.14611 34.6101C9.78716 34.6101 10.3076 34.6878 10.8471 34.785C11.1285 34.8389 11.4289 34.8756 11.6828 34.8756C13.1998 34.8756 14.0524 33.9562 14.6236 32.2037L14.8606 31.485C14.6152 31.3857 12.1356 30.2742 8.9028 30.2742C3.75957 30.2742 1.04515 33.6389 1.04515 37.131C1.04515 38.8922 1.58677 40.1677 2.43516 41.1734C3.52685 42.4663 5.07976 43.3123 6.53536 44.0353C8.65104 45.095 10.5636 45.8763 10.5636 47.4519C10.57 48.8461 9.15457 49.6403 7.26526 49.6403C4.67566 49.6403 2.41399 48.1317 2.12626 47.9483L0 52.0101C0.378708 52.226 3.11641 54.0001 7.61859 54.0001C12.4191 54.0001 16.0581 51.19 16.0581 46.8691C16.0581 42.5483 12.6856 40.9792 9.95642 39.6324L9.9543 39.6368Z" fill="#CE0E2D"/>
<path d="M28.7305 41.6439L37.4366 30.7554H31.2313L24.2876 40.1525H24.186V30.7554H19.0703V53.823H19.3771C21.588 53.823 24.2199 52.7805 24.2199 49.0144V43.7136H24.3257L31.4048 53.5359H37.9126L28.7305 41.6439Z" fill="#CE0E2D"/>
<path d="M37.7295 6.04102C35.9206 6.38634 33.259 8.05468 33.2633 11.005C33.2739 13.6835 35.4192 15.3022 35.4234 18.8115C35.4361 21.4511 34.008 23.2273 32.4678 24.2115C33.0856 24.1576 33.7753 24.1187 34.5242 24.1187C36.0962 24.1144 37.0461 24.2655 37.1096 24.2741L45.1831 14.1669C42.9404 10.7417 40.3212 8.08274 37.7295 6.04317V6.04102Z" fill="#CE0E2D"/>
<path d="M44.5104 33.3452C45.5302 31.7265 45.655 29.156 45.7438 26.5359C45.839 24.0884 46.3341 22.2496 49.5436 22.2366C50.2545 22.2366 50.9357 22.3359 52.1565 22.3316C56.8512 22.31 59.9189 20.6611 61.8294 19.5819C57.9323 17.046 52.2411 14.456 45.1853 14.1647C44.7241 15.4877 41.1486 25.6316 40.8799 26.4496C40.918 26.5014 41.5442 27.2179 42.3291 28.6122C43.4822 30.5309 44.1042 32.1539 44.5125 33.3431L44.5104 33.3452Z" fill="#CE0E2D"/>
<path d="M27.4506 25.0575C27.0443 25.0619 26.8412 24.7856 26.782 24.3043C26.7376 23.8273 24.715 4.97482 24.4124 2.12374C24.3659 1.70719 24.2686 0.943165 24.2686 0.671223C24.2665 0.230935 24.5457 0 24.8779 0C25.8342 0 31.0515 1.24317 36.5819 5.20144C34.9866 5.66115 32.1072 7.35108 32.1178 10.8561C32.1262 13.9532 34.3054 15.6583 34.316 18.7727C34.335 23.8338 28.6311 25.0554 27.4506 25.0575Z" fill="#EE7623"/>
<path d="M44.9727 34.6877C45.0615 34.923 45.144 35.1194 45.2244 35.2575C45.3556 35.4777 45.5164 35.577 45.7237 35.577C45.8507 35.577 46.0093 35.5295 46.1828 35.4539C46.6081 35.2489 63.4743 27.2439 66.0174 26.0439C66.3834 25.8647 67.0837 25.5475 67.3143 25.4072C67.5534 25.269 67.6634 25.0683 67.6634 24.8611C67.6634 24.7424 67.6295 24.628 67.5682 24.5223C67.2487 23.9957 65.6175 22.2302 62.8883 20.3029C60.7239 21.518 57.3388 23.3978 52.3056 23.4194C51.0764 23.4194 50.795 23.3352 49.953 23.3374C47.4988 23.3482 46.8874 24.4187 46.7964 26.618C46.7795 27.0302 46.771 27.587 46.7498 28.2C46.6737 30.164 46.4452 32.8705 44.9727 34.6834V34.6877Z" fill="#EE7623"/>
</svg>
