<svg width="88" height="89" viewBox="0 0 88 89" fill="none" xmlns="http://www.w3.org/2000/svg">
<g clip-path="url(#clip0_23_30631)">
<path d="M88 68.7533C88 79.5689 79.2381 88.3311 68.4211 88.3311H19.5789C8.76191 88.3311 0 79.5689 0 68.7533V19.9088C0 9.09317 8.76191 0.331055 19.5789 0.331055H68.4211C79.2381 0.331055 88 9.09317 88 19.9088V68.7533Z" fill="#FAE100"/>
<path d="M43.6794 15.2937C26.1957 15.2937 12.0303 26.4282 12.0303 40.1745C12.0303 49.116 18.0353 56.9611 27.0478 61.3471C26.3862 63.7993 24.6518 70.2488 24.301 71.6244C23.8699 73.339 24.9325 73.3091 25.6243 72.8505C26.1656 72.4917 34.2959 66.9892 37.8047 64.6167C39.7095 64.8958 41.6744 65.0454 43.6794 65.0454C61.1631 65.0454 75.3285 53.9108 75.3285 40.1645C75.3285 26.4183 61.1631 15.2837 43.6794 15.2837" fill="#371C1D"/>
<path d="M21.5944 35.5891H24.8526C24.8526 35.5891 24.8726 44.4908 24.8526 46.5642C24.8526 48.0794 28.2411 48.0993 28.2411 46.5841V35.7087C28.2411 35.7087 29.3438 35.7087 31.4992 35.7087C33.5243 35.7087 33.5243 32.5388 31.4992 32.5388C29.2135 32.5388 21.5944 32.479 21.5944 32.479C19.6797 32.479 19.6897 35.5891 21.5944 35.5891Z" fill="#FAE100"/>
<mask id="mask0_23_30631" style="mask-type:luminance" maskUnits="userSpaceOnUse" x="20" y="32" width="14" height="16">
<path d="M21.5944 35.5891H24.8526C24.8526 35.5891 24.8726 44.4908 24.8526 46.5642C24.8526 48.0794 28.2411 48.0993 28.2411 46.5841V35.7087C28.2411 35.7087 29.3438 35.7087 31.4992 35.7087C33.5243 35.7087 33.5243 32.5388 31.4992 32.5388C29.2135 32.5388 21.5944 32.479 21.5944 32.479C19.6797 32.479 19.6897 35.5891 21.5944 35.5891Z" fill="white"/>
</mask>
<g mask="url(#mask0_23_30631)">
<path d="M33.5243 32.479H19.6797V48.0893H33.5243V32.479Z" fill="#FAE100"/>
</g>
<path d="M37.1932 36.1673L39.0077 41.8193H35.2283L37.1932 36.1673ZM35.1581 33.5257C34.3561 35.2801 31.4588 43.5737 30.4964 45.7668C29.8047 47.3517 32.8022 48.6476 33.4939 47.0626L34.1456 44.7998H40.1105C40.1105 44.7998 39.91 44.8896 40.702 46.9729C41.3436 48.6576 44.4413 47.4913 43.7997 45.8066C42.8874 43.4043 39.7195 34.7518 39.138 33.5257C38.8674 32.9575 37.915 32.5488 36.9927 32.5488C36.2308 32.5488 35.4789 32.8279 35.1681 33.5257" fill="#FAE100"/>
<mask id="mask1_23_30631" style="mask-type:luminance" maskUnits="userSpaceOnUse" x="30" y="32" width="14" height="16">
<path d="M37.1932 36.1673L39.0077 41.8193H35.2283L37.1932 36.1673ZM35.1581 33.5257C34.3561 35.2801 31.4588 43.5737 30.4964 45.7668C29.8047 47.3517 32.8022 48.6476 33.4939 47.0626L34.1456 44.7998H40.1105C40.1105 44.7998 39.91 44.8896 40.702 46.9729C41.3436 48.6576 44.4413 47.4913 43.7997 45.8066C42.8874 43.4043 39.7195 34.7518 39.138 33.5257C38.8674 32.9575 37.915 32.5488 36.9927 32.5488C36.2308 32.5488 35.4789 32.8279 35.1681 33.5257" fill="white"/>
</mask>
<g mask="url(#mask1_23_30631)">
<path d="M44.4313 32.5488H29.8047V48.6476H44.4313V32.5488Z" fill="#FAE100"/>
</g>
<path d="M44.9326 34.0341C44.9326 36.8551 44.9527 45.9362 44.9527 45.9362C44.9527 45.9362 44.692 47.7405 46.2459 47.7405C47.7998 47.7405 51.2584 47.7206 52.7822 47.7206C54.3061 47.7206 54.3061 44.4809 52.7822 44.4809C51.2584 44.4809 48.4614 44.4609 48.4614 44.4609C48.4614 44.4609 48.4715 36.0577 48.4614 34.0241C48.4614 33.0373 47.5792 32.5488 46.697 32.5488C45.8148 32.5488 44.9326 33.0472 44.9326 34.0341Z" fill="#FAE100"/>
<mask id="mask2_23_30631" style="mask-type:luminance" maskUnits="userSpaceOnUse" x="44" y="32" width="10" height="16">
<path d="M44.9326 34.0341C44.9326 36.8551 44.9527 45.9362 44.9527 45.9362C44.9527 45.9362 44.692 47.7405 46.2459 47.7405C47.7998 47.7405 51.2584 47.7206 52.7822 47.7206C54.3061 47.7206 54.3061 44.4809 52.7822 44.4809C51.2584 44.4809 48.4614 44.4609 48.4614 44.4609C48.4614 44.4609 48.4715 36.0577 48.4614 34.0241C48.4614 33.0373 47.5792 32.5488 46.697 32.5488C45.8148 32.5488 44.9326 33.0472 44.9326 34.0341Z" fill="white"/>
</mask>
<g mask="url(#mask2_23_30631)">
<path d="M54.3164 32.5488H44.6924V47.7405H54.3164V32.5488Z" fill="#FAE100"/>
</g>
<path d="M54.7276 33.5853C54.7577 34.8214 54.6875 45.9958 54.6875 46.8232C54.6875 48.1291 58.0359 48.1291 58.0359 46.8232C58.0359 45.308 58.0359 42.4272 58.0359 42.4272L59.0183 41.6397L63.3091 47.4711C64.1812 48.6075 66.908 46.5541 66.0459 45.4177L61.4845 39.4467C61.4845 39.4467 64.5822 36.1173 65.8053 34.9111C66.5171 34.2034 64.3116 32.0004 63.5998 32.7081C62.9081 33.386 58.0559 38.2106 58.0559 38.2106C58.0559 38.2106 58.096 35.1803 58.0559 33.5056C58.0359 32.8676 57.2539 32.5586 56.4519 32.5586C55.5898 32.5586 54.7176 32.9075 54.7276 33.5953" fill="#FAE100"/>
<mask id="mask3_23_30631" style="mask-type:luminance" maskUnits="userSpaceOnUse" x="54" y="32" width="13" height="16">
<path d="M54.7276 33.5853C54.7577 34.8214 54.6875 45.9958 54.6875 46.8232C54.6875 48.1291 58.0359 48.1291 58.0359 46.8232C58.0359 45.308 58.0359 42.4272 58.0359 42.4272L59.0183 41.6397L63.3091 47.4711C64.1812 48.6075 66.908 46.5541 66.0459 45.4177L61.4845 39.4467C61.4845 39.4467 64.5822 36.1173 65.8053 34.9111C66.5171 34.2034 64.3116 32.0004 63.5998 32.7081C62.9081 33.386 58.0559 38.2106 58.0559 38.2106C58.0559 38.2106 58.096 35.1803 58.0559 33.5056C58.0359 32.8676 57.2539 32.5586 56.4519 32.5586C55.5898 32.5586 54.7176 32.9075 54.7276 33.5953" fill="white"/>
</mask>
<g mask="url(#mask3_23_30631)">
<path d="M66.9081 31.9902H54.6875V48.6074H66.9081V31.9902Z" fill="#FAE100"/>
</g>
</g>
<defs>
<clipPath id="clip0_23_30631">
<rect width="88" height="88" fill="white" transform="translate(0 0.331055)"/>
</clipPath>
</defs>
</svg>
