<svg width="100" height="85" viewBox="0 0 100 85" fill="none" xmlns="http://www.w3.org/2000/svg">
<path fill-rule="evenodd" clip-rule="evenodd" d="M35.4593 6.00005V10.7539H65.544V6.00005C65.544 2.68635 68.2303 5.34058e-05 71.544 5.34058e-05C74.8577 5.34058e-05 77.544 2.68635 77.544 6.00005V10.7539H92C96.4183 10.7539 100 14.3356 100 18.7539V76.3311C100 80.7493 96.4183 84.3311 92 84.3311H8C3.58172 84.3311 0 80.7493 0 76.3311V18.7539C0 14.3356 3.58172 10.7539 8 10.7539H23.4593V6.00005C23.4593 2.68635 26.1456 5.34058e-05 29.4593 5.34058e-05C32.773 5.34058e-05 35.4593 2.68635 35.4593 6.00005ZM12.4464 54.3973C10.7895 54.3973 9.44639 55.7404 9.44639 57.3973C9.44639 59.0541 10.7895 60.3973 12.4464 60.3973H22.9676C24.6244 60.3973 25.9676 59.0541 25.9676 57.3973C25.9676 55.7404 24.6244 54.3973 22.9676 54.3973H12.4464ZM31.6342 57.3973C31.6342 55.7404 32.9773 54.3973 34.6342 54.3973H45.1554C46.8122 54.3973 48.1554 55.7404 48.1554 57.3973C48.1554 59.0541 46.8122 60.3973 45.1554 60.3973H34.6342C32.9773 60.3973 31.6342 59.0541 31.6342 57.3973ZM56.822 54.3973C55.1651 54.3973 53.822 55.7404 53.822 57.3973C53.822 59.0541 55.1651 60.3973 56.822 60.3973H67.3432C69 60.3973 70.3432 59.0541 70.3432 57.3973C70.3432 55.7404 69 54.3973 67.3432 54.3973H56.822ZM76.0098 57.3973C76.0098 55.7404 77.353 54.3973 79.0098 54.3973H89.531C91.1878 54.3973 92.531 55.7404 92.531 57.3973C92.531 59.0541 91.1878 60.3973 89.531 60.3973H79.0098C77.353 60.3973 76.0098 59.0541 76.0098 57.3973ZM12.4464 67.7306C10.7895 67.7306 9.44639 69.0737 9.44639 70.7306C9.44639 72.3874 10.7895 73.7306 12.4464 73.7306H22.9676C24.6244 73.7306 25.9676 72.3874 25.9676 70.7306C25.9676 69.0737 24.6244 67.7306 22.9676 67.7306H12.4464ZM31.6342 70.7306C31.6342 69.0737 32.9773 67.7306 34.6342 67.7306H45.1554C46.8122 67.7306 48.1554 69.0737 48.1554 70.7306C48.1554 72.3874 46.8122 73.7306 45.1554 73.7306H34.6342C32.9773 73.7306 31.6342 72.3874 31.6342 70.7306ZM56.822 67.7306C55.1651 67.7306 53.822 69.0737 53.822 70.7306C53.822 72.3874 55.1651 73.7306 56.822 73.7306H67.3432C69 73.7306 70.3432 72.3874 70.3432 70.7306C70.3432 69.0737 69 67.7306 67.3432 67.7306H56.822ZM76.0098 70.7306C76.0098 69.0737 77.353 67.7306 79.0098 67.7306H89.531C91.1878 67.7306 92.531 69.0737 92.531 70.7306C92.531 72.3874 91.1878 73.7306 89.531 73.7306H79.0098C77.353 73.7306 76.0098 72.3874 76.0098 70.7306ZM26.4593 15.5077C26.4593 17.1646 27.8025 18.5077 29.4593 18.5077C31.1162 18.5077 32.4593 17.1646 32.4593 15.5077V6.00005C32.4593 4.3432 31.1162 3.00005 29.4593 3.00005C27.8025 3.00005 26.4593 4.3432 26.4593 6.00005V15.5077ZM71.544 18.5077C69.8871 18.5077 68.544 17.1646 68.544 15.5077V6.00005C68.544 4.3432 69.8871 3.00005 71.544 3.00005C73.2008 3.00005 74.544 4.3432 74.544 6.00005V15.5077C74.544 17.1646 73.2008 18.5077 71.544 18.5077ZM18.3333 24.3334H8.33333V44.3334H18.3333H81.6667H91.6667V24.3334H81.6667H18.3333Z" fill="#0F1CA9"/>
</svg>
