<svg width="100" height="84" viewBox="0 0 100 84" fill="none" xmlns="http://www.w3.org/2000/svg">
<path d="M19.0386 32.6169H0V83.3334H19.0386V32.6169Z" fill="#0F1CA9"/>
<path d="M90.4331 60.2804H57.1157L47.168 56.9147L48.7387 52.5807L57.1157 55.6698H70.5378C73.6316 55.6698 76.1542 53.2262 76.1542 50.2293C76.1542 47.9701 74.6787 45.9415 72.4893 45.1116L37.9343 32.6169H28.5578V74.2043L61.8753 83.3334L100 69.5015C99.9524 64.4299 95.7163 60.2804 90.4331 60.2804Z" fill="#0F1CA9"/>
<path fill-rule="evenodd" clip-rule="evenodd" d="M56.2368 13.7229C53.3776 14.8285 51.6673 16.2319 51.6673 17.7592C51.6673 21.3258 60.9947 24.217 72.5007 24.217C84.0066 24.217 93.334 21.3258 93.334 17.7592C93.334 16.2319 91.6237 14.8285 88.7645 13.723C84.9465 15.1993 79.0797 16.1446 72.5007 16.1446C65.9216 16.1446 60.0548 15.1993 56.2368 13.7229Z" fill="#0F1CA9"/>
<path fill-rule="evenodd" clip-rule="evenodd" d="M56.2368 25.0242C53.3776 26.1298 51.6673 27.5332 51.6673 29.0604C51.6673 32.627 60.9947 35.5183 72.5007 35.5183C84.0066 35.5183 93.334 32.627 93.334 29.0604C93.334 27.5332 91.6237 26.1298 88.7645 25.0242C84.9465 26.5006 79.0797 27.4459 72.5007 27.4459C65.9216 27.4459 60.0548 26.5006 56.2368 25.0242Z" fill="#0F1CA9"/>
<ellipse cx="72.5006" cy="6.45765" rx="20.8333" ry="6.45787" transform="rotate(-180 72.5006 6.45765)" fill="#0F1CA9"/>
</svg>
