<svg width="100" height="84" viewBox="0 0 100 84" fill="none" xmlns="http://www.w3.org/2000/svg">
<path fill-rule="evenodd" clip-rule="evenodd" d="M10 0C4.47715 0 0 4.47716 0 10V58.3333C0 63.8562 4.47714 68.3333 9.99999 68.3333H13.3329V24.3862C13.3329 18.8633 17.8101 14.3862 23.3329 14.3862H58.3333V10C58.3333 4.47715 53.8562 0 48.3333 0H10Z" fill="#0F1CA9"/>
<path fill-rule="evenodd" clip-rule="evenodd" d="M25.5 18.3333C21.0817 18.3333 17.5 21.915 17.5 26.3333V75.3333C17.5 79.7515 21.0817 83.3333 25.5 83.3333H67.8333C72.2516 83.3333 75.8333 79.7515 75.8333 75.3333V26.3333C75.8333 21.915 72.2516 18.3333 67.8333 18.3333H25.5ZM21.6667 31.19C21.6667 26.2194 25.6961 22.1899 30.6667 22.1899H62.6667C67.6372 22.1899 71.6667 26.2194 71.6667 31.1899V69.8566C71.6667 74.8272 67.6372 78.8566 62.6667 78.8566H30.6667C25.6961 78.8566 21.6667 74.8272 21.6667 69.8566V31.19Z" fill="#0F1CA9"/>
<rect x="26.667" y="34.1667" width="36.6667" height="5" rx="2.5" fill="#0F1CA9"/>
<rect x="26.667" y="47.5" width="30" height="5" rx="2.5" fill="#0F1CA9"/>
<rect x="26.667" y="60.8333" width="20" height="5" rx="2.5" fill="#0F1CA9"/>
<path d="M67.8656 42.5L61.111 42.5C60.4888 42.5 60 42.9888 60 43.611L60 50.3656C60 50.6544 60.1111 50.9433 60.3333 51.1432L84.5744 75.4065L92.9065 67.0744L68.6655 42.8333C68.4433 42.6111 68.1766 42.5 67.8656 42.5Z" fill="#0F1CA9"/>
<path d="M94.1508 81.8501L99.3501 76.6508C100.217 75.7843 100.217 74.3845 99.3501 73.5179L95.284 69.4518L86.9518 77.784L91.0179 81.8501C91.8845 82.7166 93.2843 82.7166 94.1508 81.8501Z" fill="#0F1CA9"/>
</svg>
