<svg width="100" height="84" viewBox="0 0 100 84" fill="none" xmlns="http://www.w3.org/2000/svg">
<path d="M10.4065 72.89H85.7316V52.6153H96.1381V74.5567C96.1381 79.3838 92.2052 83.3333 87.3983 83.3333H8.73983C3.93292 83.3333 0 79.3838 0 74.5567V21.8974C0 17.0703 3.93292 13.1209 8.73983 13.1209H48.069V23.5641H10.4065V72.89Z" fill="#0F1CA9"/>
<path d="M61.1788 48.2271L34.9593 65.7802V30.674L61.1788 48.2271Z" fill="#0F1CA9"/>
<path d="M94.8708 20.0104C95.0019 21.283 95.0456 22.5556 94.9145 23.7844L99.5903 27.5144C100.027 27.8655 100.115 28.4359 99.8525 28.9186L95.3515 36.7737C95.0893 37.2564 94.5212 37.4319 93.9968 37.2564L88.4033 35.0622C87.3983 35.8082 86.3058 36.4226 85.1259 36.9053L84.2519 42.8734C84.1645 43.4438 83.7275 43.8388 83.1594 43.8388H74.1137C73.5893 43.8388 73.1086 43.4438 73.0212 42.9172L72.1473 36.9492C71.0111 36.4665 69.9186 35.8082 68.9135 35.1061L63.32 37.3002C62.7956 37.5197 62.2276 37.3002 61.9654 36.8175L57.4644 28.9625C57.2022 28.4798 57.2896 27.9093 57.7265 27.5583L62.4024 23.7844C62.2713 22.5118 62.2276 21.2392 62.3587 20.0104L57.6828 16.2804C57.2459 15.9293 57.1585 15.3589 57.4207 14.8762L61.9217 7.02115C62.1839 6.53844 62.7519 6.36291 63.2763 6.53844L68.8261 8.73258C69.8312 7.98657 70.9237 7.37221 72.1036 6.8895L72.9775 0.921444C73.0649 0.394851 73.5019 -8.53539e-05 74.07 -8.53539e-05H83.1157C83.6401 -8.53539e-05 84.1208 0.394851 84.2082 0.921444L85.0822 6.8895C86.2184 7.37221 87.3109 8.03045 88.3159 8.73258L93.9094 6.53844C94.4338 6.31903 95.0019 6.53844 95.2641 7.02115L99.7651 14.8762C100.027 15.3589 99.9399 15.9293 99.5029 16.2804L94.8708 20.0104ZM78.6584 15.315C75.0314 15.315 72.1036 18.2551 72.1036 21.8974C72.1036 25.5397 75.0314 28.4798 78.6584 28.4798C82.2855 28.4798 85.2133 25.5397 85.2133 21.8974C85.2133 18.2551 82.2855 15.315 78.6584 15.315Z" fill="#0F1CA9"/>
</svg>
