<svg width="100" height="84" viewBox="0 0 100 84" fill="none" xmlns="http://www.w3.org/2000/svg">
<path d="M90.2891 20.5349L18.7922 75.8344C15.2145 78.5971 17.77 83.3333 22.8242 83.3333H94.3211C97.4445 83.3333 100 81.3599 100 78.948V23.6485C100 19.7455 93.8668 17.7721 90.2891 20.5349ZM88.6423 74.5626H77.2845V42.9003L88.6423 34.1295V74.5626Z" fill="#0F1CA9"/>
<path d="M29.6388 33.691C28.0487 34.4365 27.8216 36.1468 29.1277 37.1554L33.7844 40.7514C35.9992 42.4617 39.5768 42.4617 41.7916 40.7514L46.4483 37.1554C47.7544 36.1468 47.4705 34.4365 45.9372 33.691C40.9966 31.3229 34.6362 31.3229 29.6388 33.691Z" fill="#0F1CA9"/>
<path d="M22.881 27.6392C31.7968 22.7276 43.8928 22.7276 52.8086 27.6392C54.853 28.7794 57.6356 28.604 59.3961 27.2007C61.6109 25.4904 61.3837 22.5522 58.8282 21.1489C46.3347 14.2638 29.3549 14.2638 16.8046 21.1489C14.2491 22.5522 13.9652 25.4904 16.2367 27.2007C18.0539 28.604 20.8366 28.7794 22.881 27.6392Z" fill="#0F1CA9"/>
<path d="M67.4033 16.1934C69.3341 17.4213 72.1168 17.4213 73.8772 16.0618L74.5587 15.5356C76.5463 14.0007 76.3191 11.5011 74.1044 10.0977C53.2629 -3.27763 22.881 -3.36533 1.98274 9.83461C-0.459169 11.3695 -0.686323 14.1761 1.52844 15.8426C3.34567 17.2897 6.29868 17.4652 8.28629 16.1934C25.3797 5.31769 50.3099 5.31769 67.4033 16.1934Z" fill="#0F1CA9"/>
</svg>
