<svg width="164" height="48" viewBox="0 0 164 48" fill="none" xmlns="http://www.w3.org/2000/svg">
<g clip-path="url(#clip0_23_29978)">
<path d="M20.9187 24.9636C20.9187 24.9636 21.2124 26.0401 17.7954 26.0401H4.49647C4.49647 26.0401 0 26.0401 0 30.1637V43.3381C0 43.3381 0 48 3.32572 48H16.45C16.45 48 19.5971 46.9236 19.5971 43.6982V31.6873H15.0134V41.6126C15.0134 41.6126 15.4182 43.5637 13.2592 43.5637H5.84184C5.84184 43.5637 4.35756 43.8328 4.35756 42.2854V32.1345C4.35756 32.1345 4.62743 30.7613 5.77437 30.7415H19.9305C19.9305 30.7415 21.1449 30.789 21.1449 28.9092V24.9636H20.9187Z" fill="#EA2731"/>
<path d="M27.4434 17.7927V43.6982C27.4434 43.6982 27.4156 48 30.7453 48H37.0356C37.0356 48 38.2936 47.6399 38.2936 46.1162V42.7999L38.1468 42.8078C38.1468 42.8078 38.2936 43.4291 36.9919 43.4291H32.3407C32.3407 43.4291 31.5311 43.6982 31.4636 41.5454L31.5985 17.7927H27.4434Z" fill="#EA2731"/>
<path d="M41.4639 17.7927V43.6982C41.4639 43.6982 41.4361 48 44.7618 48H51.0561C51.0561 48 52.3141 47.6399 52.3141 46.1162V42.7999L52.1673 42.8078C52.1673 42.8078 52.3141 43.4291 51.0124 43.4291H46.3612C46.3612 43.4291 45.5516 43.6982 45.4841 41.5454L45.619 17.7927H41.4639Z" fill="#EA2731"/>
<path d="M145.304 3.00366V41.5928C145.304 41.5928 145.256 47.9999 150.9 47.9999H161.571C161.571 47.9999 163.706 47.4657 163.706 45.1981V40.2592C163.706 40.2592 163.706 41.1931 161.496 41.1931H153.606C153.606 41.1931 152.233 41.5928 152.118 38.3912L152.348 3.00762H145.304V3.00366Z" fill="url(#paint0_linear_23_29978)"/>
<path fill-rule="evenodd" clip-rule="evenodd" d="M60.764 26.2182H72.4516V26.2261C76.9481 26.2261 76.5869 32.9024 76.5869 32.9024C76.5869 37.964 73.0826 39.3095 73.0826 39.3095L61.9387 39.2185C60.0496 39.2185 60.5894 39.8438 60.5894 39.8438V41.9056C60.5894 43.4292 61.7561 43.6073 61.7561 43.6073H75.2376C75.7734 43.6073 75.7535 43.0691 75.7535 43.0691H75.9559V45.7562C75.9559 47.5489 74.6979 47.9961 74.6979 47.9961H59.9584C56.7199 47.9961 56.2715 43.4253 56.2715 43.4253V29.7127C56.2715 26.1272 60.764 26.2182 60.764 26.2182ZM71.1896 30.7416H61.8435L61.8395 30.7376C60.9386 31.2283 60.8513 32.7796 60.8513 32.7796C60.4902 33.7888 60.8513 34.8217 60.8513 34.8217H71.1896C72.3603 34.8217 72.5389 32.8944 72.5389 32.8944C72.5389 31.3273 71.1896 30.7416 71.1896 30.7416Z" fill="#EA2731"/>
<path d="M86.4724 20.1237C86.4724 20.1237 86.8296 17.7927 87.8217 17.7927H83.3729C83.3729 17.7927 82.2021 17.9708 82.2021 19.9456V48H86.4049V30.7415H95.9098C95.9098 30.7415 97.1917 30.6742 97.1917 32.7836V48H101.438V30.7415C101.438 30.7415 101.879 26.507 97.2631 26.3962C97.3266 26.3962 97.1996 26.3962 97.2631 26.3962L86.5042 26.42L86.4724 20.1237Z" fill="#EA2731"/>
<path d="M118.928 0H111.376C111.376 0 109.086 1.34554 109.086 3.49443C109.086 5.64333 109.086 4.03265 109.086 4.03265V48H116.368C116.368 48 117.448 47.8219 117.448 46.4764V33.7492C117.448 33.7492 117.718 32.9419 118.349 33.5711L130.933 48.004H141.272L125.992 29.9857L131.925 22.3676L121.23 22.3913L118.464 26.0876C118.464 26.0876 117.519 26.8949 117.519 25.1457L117.63 3.72397C117.63 3.72397 118.988 0.740045 119.464 0.344299C119.464 0.344299 119.428 0.00395746 118.932 0.00395746L118.928 0Z" fill="url(#paint1_linear_23_29978)"/>
<path d="M120.448 23.998C120.448 23.998 119.908 22.4506 126.651 22.4506H159.686C159.686 22.4506 164 21.3742 164 18.5525V12.0979C164 12.0979 163.325 13.578 160.9 13.578L129.663 13.7561C129.663 13.7561 129.124 13.578 127.234 15.4578C127.234 15.4578 120.043 22.4941 120.448 23.994V23.998Z" fill="url(#paint2_linear_23_29978)"/>
</g>
<defs>
<linearGradient id="paint0_linear_23_29978" x1="154.503" y1="1.25447" x2="154.503" y2="41.4622" gradientUnits="userSpaceOnUse">
<stop offset="0.05" stop-color="#1C1C1C"/>
<stop offset="0.51" stop-color="#0F0F0F"/>
<stop offset="0.72" stop-color="#5E5E5E"/>
<stop offset="0.74" stop-color="#4E4E4E"/>
<stop offset="0.81" stop-color="#2B2B2B"/>
<stop offset="0.87" stop-color="#151515"/>
<stop offset="0.91" stop-color="#0E0E0E"/>
</linearGradient>
<linearGradient id="paint1_linear_23_29978" x1="125.028" y1="2.38239" x2="125.162" y2="44.3314" gradientUnits="userSpaceOnUse">
<stop offset="0.05" stop-color="#1C1C1C"/>
<stop offset="0.51" stop-color="#0F0F0F"/>
<stop offset="0.72" stop-color="#5E5E5E"/>
<stop offset="0.74" stop-color="#4E4E4E"/>
<stop offset="0.81" stop-color="#2B2B2B"/>
<stop offset="0.87" stop-color="#151515"/>
<stop offset="0.91" stop-color="#0E0E0E"/>
</linearGradient>
<linearGradient id="paint2_linear_23_29978" x1="132.648" y1="10.1192" x2="161.259" y2="33.9512" gradientUnits="userSpaceOnUse">
<stop stop-color="#8E191C"/>
<stop offset="0.05" stop-color="#ED3035"/>
<stop offset="0.31" stop-color="#EB2230"/>
<stop offset="0.7" stop-color="#E94025"/>
<stop offset="0.99" stop-color="#56100F"/>
</linearGradient>
<clipPath id="clip0_23_29978">
<rect width="164" height="48" fill="white"/>
</clipPath>
</defs>
</svg>
