<svg width="200" height="30" viewBox="0 0 200 30" fill="none" xmlns="http://www.w3.org/2000/svg">
<g clip-path="url(#clip0_23_30046)">
<path d="M15.0652 29.9701C23.2684 29.9701 29.9302 23.2747 29.9302 15.0032C29.9302 6.73166 23.2682 0.0297852 15.0652 0.0297852C6.85059 0.0297852 0.200195 6.73146 0.200195 15.0032C0.200195 23.2749 6.85059 29.9701 15.0652 29.9701Z" fill="#A50034"/>
<path d="M14.4671 8.43258V21.5678H18.6105V20.3864H15.6615V8.43258H14.4671ZM10.3183 12.0163C11.3049 12.0163 12.0987 11.2088 12.0987 10.2225C12.0987 9.23544 11.3047 8.42432 10.3183 8.42432C9.33369 8.42432 8.53809 9.23524 8.53809 10.2225C8.53809 11.2092 9.33389 12.0163 10.3183 12.0163Z" fill="white"/>
<path d="M15.6604 2.47351C15.4632 2.46411 15.2659 2.45833 15.0684 2.45618C8.20725 2.45618 2.62305 8.08629 2.62305 14.9966C2.62305 18.3538 3.91705 21.5003 6.26165 23.8664C8.61585 26.226 11.7382 27.531 15.0684 27.531C18.3858 27.531 21.5084 26.2262 23.8578 23.8664C26.2076 21.5003 27.5086 18.3538 27.5086 14.9966V14.4386H18.6218V15.5934H26.3226C26.3226 15.6186 26.3226 15.741 26.3176 15.7735C25.9264 21.6817 21.03 26.3604 15.0688 26.3604C12.0516 26.3604 9.22185 25.1784 7.09305 23.0305C4.95565 20.8912 3.77965 18.0421 3.77965 14.9968C3.77965 11.9696 4.95565 9.10564 7.09305 6.96031C9.22145 4.81578 12.0514 3.63356 15.0686 3.63356C15.1984 3.63356 15.5148 3.63356 15.6606 3.64082L15.6604 2.47351Z" fill="white"/>
<path d="M41.1088 5.07053H36.6426V24.5587H50.3616V20.7658H41.1088V5.07053ZM60.1876 17.1318H63.826V20.5394C63.1552 20.7964 61.8472 21.0536 60.6026 21.0536C56.5824 21.0536 55.2428 18.9964 55.2428 14.8159C55.2428 10.8305 56.5184 8.48053 60.5386 8.48053C62.7732 8.48053 64.0488 9.18845 65.1006 10.539L67.8776 7.96571C66.1858 5.52306 63.218 4.78369 60.4432 4.78369C54.1886 4.78369 50.9032 8.22453 50.9032 14.7835C50.9032 21.311 53.8698 24.8482 60.4118 24.8482C63.4106 24.8482 66.3458 24.0772 67.941 22.952V13.4969H60.1878V17.1318H60.1876ZM125.263 10.6287C120.355 10.6287 118.275 12.9669 118.275 17.6976C118.275 22.1334 119.769 24.8484 124.703 24.8484C129.478 24.8484 131.718 22.5632 131.718 17.8323C131.718 13.2084 130.224 10.6287 125.263 10.6287ZM124.782 22.026C122.756 22.026 122.196 20.4398 122.196 17.7248C122.196 14.6599 122.836 13.4503 125.183 13.4503C127.343 13.4503 127.797 15.0633 127.797 17.5902C127.798 20.7081 127.21 22.026 124.782 22.026ZM105.038 17.4019C105.038 13.5315 103.304 10.6283 99.01 10.6283C94.7156 10.6283 92.4758 13.2084 92.4758 17.6708C92.4758 22.4009 94.1826 24.8478 99.197 24.8478C101.57 24.8478 103.757 24.1217 104.798 23.4233L104.078 20.8698C102.931 21.461 101.25 21.8911 99.89 21.8911C98.5296 21.8911 97.5166 21.488 97.0894 21.0308C96.5832 20.4664 96.3428 19.5523 96.3428 18.612H105.038L105.038 17.4019ZM96.343 16.1117C96.3964 14.2306 97.3032 13.3158 98.9034 13.3158C100.556 13.3158 101.223 14.4723 101.223 16.1117H96.343ZM90.689 5.07053V24.5587H86.5822V16.4678H78.8478V24.5587H74.7404V5.07053H78.8478V13.054H86.5822V5.07053H90.689ZM110.505 5.07053V24.5587H106.61V5.07053H110.505ZM116.61 5.07053V24.5587H112.715V5.07053H116.61ZM170.706 10.9367V24.5587H166.812V10.9367H170.706ZM170.706 5.07053V8.3745H166.812V5.07053H170.706ZM152.451 10.9367V24.5587H148.557V10.9367H152.451ZM152.451 5.07053V8.3745H148.557V5.07053H152.451ZM179.361 10.6283C174.453 10.6283 172.372 12.9669 172.372 17.6976C172.372 22.1334 173.866 24.8484 178.801 24.8484C183.574 24.8484 185.815 22.5632 185.815 17.8323C185.815 13.2082 184.321 10.6283 179.361 10.6283ZM178.88 22.0256C176.853 22.0256 176.293 20.44 176.293 17.725C176.293 14.6601 176.933 13.4501 179.28 13.4501C181.441 13.4501 181.895 15.0635 181.895 17.5904C181.894 20.7081 181.307 22.0256 178.88 22.0256ZM187.481 10.9367V24.5404H191.364V14.5273C191.846 14.1762 192.809 13.826 193.614 13.826C195.515 13.826 195.917 14.5807 195.917 16.0931V24.5404H199.8V15.1475C199.8 12.4221 198.836 10.6132 195.596 10.6132C194.095 10.6132 192.488 10.9909 191.31 11.774V10.9367H187.481ZM165.175 11.8571C163.603 11.132 162.083 10.6754 159.898 10.6754C156.139 10.6754 154.142 12.287 154.142 14.7845C154.142 17.3366 155.767 18.4922 157.845 18.9752L159.366 19.3239C160.724 19.6194 161.578 20.0762 161.578 20.7474C161.578 21.5809 160.724 22.0101 159.499 22.0101C157.952 22.0101 156.139 21.5005 155.021 20.8548L154.035 23.6488C155.393 24.3747 157.099 24.9113 159.472 24.9113C163.068 24.9113 165.281 23.4876 165.281 20.5063C165.281 18.5182 164.055 17.3898 162.429 16.9071C161.978 16.7722 161.15 16.5313 160.564 16.3967C159.152 16.1006 157.74 15.8055 157.74 14.7309C157.74 13.9258 158.592 13.4958 159.978 13.4958C161.523 13.4958 163.015 13.8984 164.082 14.4898L165.175 11.8571ZM143.054 5.05198L139.044 20.7496H138.588L134.578 5.05198H130.231L136.056 24.5404H141.577L147.402 5.05198H143.054Z" fill="#6B6B6B"/>
</g>
<defs>
<clipPath id="clip0_23_30046">
<rect width="200" height="30" fill="white"/>
</clipPath>
</defs>
</svg>
