<svg width="220" height="64" viewBox="0 0 220 64" fill="none" xmlns="http://www.w3.org/2000/svg">
<g clip-path="url(#clip0_42_149)">
<path d="M28.0617 33.2849C28.0617 33.2849 28.4556 34.7202 23.8718 34.7202H6.03185C6.03185 34.7202 0 34.7201 0 40.2184V57.7842C0 57.7842 0 64.0001 4.46133 64.0001H22.0671C22.0671 64.0001 26.2888 62.5648 26.2888 58.2644V42.2499H20.1399V55.4836C20.1399 55.4836 20.6829 58.085 17.7868 58.085H7.83661C7.83661 58.085 5.84551 58.4438 5.84551 56.3806V42.8461C5.84551 42.8461 6.20753 41.0151 7.7461 40.9888H26.736C26.736 40.9888 28.3651 41.0521 28.3651 38.5457V33.2849H28.0617Z" fill="white"/>
<path d="M36.8135 23.7236V58.2643C36.8135 58.2643 36.7762 64 41.2429 64H49.6811C49.6811 64 51.3687 63.5198 51.3687 61.4883V57.0665L51.1717 57.0771C51.1717 57.0771 51.3687 57.9055 49.6225 57.9055H43.383C43.383 57.9055 42.297 58.2643 42.2065 55.3938L42.3875 23.7236H36.8135Z" fill="white"/>
<path d="M55.6231 23.7236V58.2643C55.6231 58.2643 55.5858 64 60.0471 64H68.4906C68.4906 64 70.1783 63.5198 70.1783 61.4883V57.0665L69.9813 57.0771C69.9813 57.0771 70.1783 57.9055 68.4321 57.9055H62.1926C62.1926 57.9055 61.1066 58.2643 61.016 55.3938L61.1971 23.7236H55.6231Z" fill="white"/>
<path d="M194.92 4.005L194.92 31.0001L194.92 55.4572C194.92 55.4572 194.856 64.0001 202.426 64.0001H216.742C216.742 64.0001 219.606 63.2877 219.606 60.2642V53.679C219.606 53.679 219.606 54.9243 216.641 54.9243H206.057C206.057 54.9243 204.215 55.4572 204.061 51.1884L204.215 31.0001L204.37 4.01028H194.92V4.005Z" fill="white"/>
<path fill-rule="evenodd" clip-rule="evenodd" d="M81.5129 34.9576H97.1914V34.9681C103.223 34.9681 102.739 43.8698 102.739 43.8698C102.739 50.6185 98.0379 52.4126 98.0379 52.4126L83.0887 52.2912C80.5546 52.2912 81.2786 53.1249 81.2786 53.1249V55.874C81.2786 57.9055 82.8438 58.143 82.8438 58.143H100.929C101.647 58.143 101.621 57.4254 101.621 57.4254H101.892V61.0082C101.892 63.3985 100.205 63.9947 100.205 63.9947H80.4321C76.0879 63.9947 75.4863 57.9003 75.4863 57.9003V39.6168C75.4863 34.8362 81.5129 34.9576 81.5129 34.9576ZM95.4984 40.9887H82.9609L82.9556 40.9834C81.7471 41.6377 81.63 43.7061 81.63 43.7061C81.1455 45.0516 81.63 46.4288 81.63 46.4288H95.4984C97.069 46.4288 97.3085 43.8591 97.3085 43.8591C97.3085 41.7696 95.4984 40.9887 95.4984 40.9887Z" fill="white"/>
<path d="M116 26.8316C116 26.8316 116.479 23.7236 117.81 23.7236H111.842C111.842 23.7236 110.271 23.9611 110.271 26.5941V64H115.909V40.9887H128.66C128.66 40.9887 130.379 40.899 130.379 43.7114V64H136.076V40.9887C136.076 40.9887 136.667 35.3427 130.475 35.195C130.56 35.195 130.39 35.195 130.475 35.195L116.042 35.2266L116 26.8316Z" fill="white"/>
<path d="M159.538 0H149.407C149.407 0 146.335 1.79405 146.335 4.65925C146.335 7.52445 146.335 5.37687 146.335 5.37687V64H156.104C156.104 64 157.552 63.7626 157.552 61.9685V44.9989C157.552 44.9989 157.914 43.9225 158.761 44.7615L175.642 64.0053H189.511L169.014 39.9809L176.973 29.8234L162.626 29.8551L158.915 34.7834C158.915 34.7834 157.648 35.8598 157.648 33.5276L157.797 4.96529C157.797 4.96529 159.618 0.986726 160.257 0.459065C160.257 0.459065 160.209 0.00527661 159.543 0.00527661L159.538 0Z" fill="white"/>
<path d="M161.577 31.9974C161.577 31.9974 160.853 29.9342 169.898 29.9342H214.213C214.213 29.9342 220 28.499 220 24.7368V16.1306C220 16.1306 219.095 18.1041 215.842 18.1041L173.939 18.3415C173.939 18.3415 173.215 18.1041 170.68 20.6105C170.68 20.6105 161.034 29.9923 161.577 31.9921V31.9974Z" fill="white"/>
</g>
<defs>
<clipPath id="clip0_42_149">
<rect width="220" height="64" fill="white"/>
</clipPath>
</defs>
</svg>
