<svg width="968" height="317" viewBox="0 0 968 317" fill="none" xmlns="http://www.w3.org/2000/svg">
<rect width="968" height="316" transform="translate(0 0.165039)" fill="white"/>
<path d="M259.979 16.133V47.861H253.595V16.133H259.979ZM230.075 30.149C230.075 33.701 232.667 35.861 235.931 35.861C239.243 35.861 241.739 33.701 241.739 30.149C241.739 26.501 239.243 24.389 235.931 24.389C232.667 24.389 230.075 26.501 230.075 30.149ZM247.931 30.149C247.931 36.581 242.699 41.333 235.931 41.333C229.163 41.333 223.883 36.581 223.883 30.149C223.883 23.621 229.163 18.917 235.931 18.917C242.699 18.917 247.931 23.621 247.931 30.149ZM236.891 54.485H261.083V59.525H230.555V44.741H236.891V54.485ZM275.72 37.013V45.269C281.672 45.221 286.52 44.981 291.944 44.117L292.52 49.205C286.136 50.213 280.472 50.357 273.032 50.357H269.432V19.781H289.88V24.869H275.72V32.069H288.392V37.013H275.72ZM298.184 16.037H304.52V60.389H298.184V36.725H290.6V31.637H298.184V16.037ZM349.54 16.085V45.845H343.54V16.085H349.54ZM334.516 41.957V30.485H326.788V25.397H334.516V16.853H340.42V41.957H334.516ZM331.252 34.613L331.828 39.701C326.644 40.901 321.94 41.189 316.612 41.189H313.636V19.925H319.828V36.053C323.716 35.909 327.364 35.525 331.252 34.613ZM337.3 43.733V44.933C337.3 49.349 341.764 54.101 351.364 55.253L349.012 60.149C341.908 59.141 336.82 56.213 334.132 52.277C331.444 56.213 326.308 59.141 319.156 60.149L316.9 55.253C326.5 54.101 330.964 49.349 330.964 44.933V43.733H337.3ZM401.499 44.597L395.163 43.973C396.603 35.957 396.651 30.005 396.651 24.917H370.491V19.877H402.987V24.149C402.987 29.573 402.987 35.669 401.499 44.597ZM392.139 49.877H406.635V54.965H366.603V49.877H375.003V35.909H381.243V49.877H385.947V35.909H392.139V49.877ZM424.487 28.565V29.477C424.487 36.149 426.743 42.917 432.983 46.229L429.575 50.933C425.687 48.869 423.143 45.365 421.559 41.141C420.071 45.749 417.479 49.685 413.495 51.989L409.943 47.237C416.231 43.541 418.487 36.293 418.487 29.477V28.565H411.575V23.477H418.487V17.525H424.487V23.477H431.255V28.565H424.487ZM433.751 32.789V16.805H439.655V58.277H433.751V37.925H428.711V32.789H433.751ZM442.679 16.037H448.679V60.245H442.679V16.037ZM464.399 64.901L476.351 17.477H481.007L469.103 64.901H464.399ZM531.995 16.133V48.341H525.611V16.133H531.995ZM522.347 36.629L519.131 41.669C514.235 39.989 510.875 36.725 508.955 32.597C506.939 37.061 503.483 40.661 498.347 42.437L495.131 37.397C502.475 34.901 505.643 28.709 505.643 22.805V18.533H512.075V22.805C512.075 28.661 515.147 34.325 522.347 36.629ZM508.907 54.485H533.099V59.525H502.571V45.269H508.907V54.485ZM579.415 37.493V42.629H570.007V60.389H563.719V42.629H554.695V60.389H548.407V42.629H539.479V37.493H566.695C567.799 31.589 567.991 27.125 568.039 23.669H544.135V18.533H574.327V21.365C574.327 25.109 574.327 30.245 573.079 37.493H579.415ZM585.603 20.597H606.435C606.435 33.845 601.395 45.221 586.707 52.661L583.155 47.813C593.427 42.533 598.899 35.525 600.051 25.733H585.603V20.597ZM624.387 32.933V38.165H618.195V60.197H611.859V16.037H618.195V32.933H624.387ZM658.08 16.085H664.464V39.845H658.08V16.085ZM635.088 41.765H641.376V45.893H658.176V41.765H664.464V59.765H635.088V41.765ZM641.376 50.741V54.725H658.176V50.741H641.376ZM640.416 17.909C647.28 17.909 652.416 22.277 652.416 28.325C652.416 34.421 647.28 38.789 640.416 38.789C633.552 38.789 628.368 34.421 628.368 28.325C628.368 22.277 633.552 17.909 640.416 17.909ZM640.416 23.141C637.056 23.141 634.56 25.109 634.56 28.325C634.56 31.637 637.056 33.557 640.416 33.557C643.776 33.557 646.224 31.637 646.224 28.325C646.224 25.109 643.776 23.141 640.416 23.141Z" fill="#0500FF"/>
<path d="M691.946 49.181C694.898 49.181 697.022 47.093 697.022 44.213C697.022 41.297 694.898 39.209 691.946 39.209C689.03 39.209 686.906 41.297 686.906 44.213C686.906 47.093 689.03 49.181 691.946 49.181ZM691.946 36.761C696.554 36.761 699.83 39.857 699.83 44.213C699.83 48.605 696.554 51.629 691.946 51.629C687.41 51.629 684.134 48.605 684.134 44.213C684.134 39.857 687.41 36.761 691.946 36.761ZM693.386 26.933V31.721H701.342V34.097H682.298V31.721H690.434V26.933H693.386ZM712.646 39.821V42.305H707.354V58.829H704.402V26.573H707.354V39.821H712.646ZM738.384 32.981V32.189H718.692V29.777H741.336V32.981C741.336 36.977 741.336 41.405 740.112 47.921L737.16 47.597C738.384 41.405 738.384 36.869 738.384 32.981ZM729.924 51.881H744.828V54.293H715.632V51.881H726.972V40.325H729.924V51.881Z" fill="black"/>
<path d="M281.536 150.201L278.468 144.949C285.592 143.077 288.972 138.605 289.44 133.821H279.872V128.361H289.492V123.161H296.408V128.361H306.132V133.821H296.46C296.928 138.397 300.412 142.713 307.432 144.533L304.416 149.733C298.904 148.329 295.16 145.261 293.028 141.309C290.896 145.469 287.1 148.693 281.536 150.201ZM296.408 148.797V155.765C300.256 155.505 304.052 155.193 307.692 154.621L308.108 159.613C297.812 161.693 286.528 161.745 278.312 161.797L277.428 156.233C280.964 156.233 285.124 156.233 289.492 156.077V148.797H296.408ZM310.292 122.693H317.156V170.741H310.292V122.693ZM362.34 154.361L355.476 153.581C357.296 144.533 357.4 137.877 357.4 132.313H329.476V126.853H364.264V131.429C364.264 137.409 364.264 144.169 362.34 154.361ZM347.26 159.353H368.424V164.865H325.108V159.353H340.396V142.869H347.26V159.353ZM388.284 125.917C395.772 125.917 401.492 130.857 401.492 137.721C401.492 144.637 395.772 149.525 388.284 149.525C380.796 149.525 375.128 144.637 375.128 137.721C375.128 130.857 380.796 125.917 388.284 125.917ZM388.284 131.793C384.592 131.793 381.784 133.977 381.784 137.721C381.784 141.465 384.592 143.649 388.284 143.649C391.976 143.649 394.784 141.465 394.784 137.721C394.784 133.977 391.976 131.793 388.284 131.793ZM405.964 122.693H412.828V170.741H405.964V122.693ZM373.984 161.017L373.1 155.453C381.524 155.453 393.276 155.401 403.364 153.893L403.78 158.833C393.484 160.913 382.252 161.017 373.984 161.017ZM451.021 132.989V135.641C451.021 143.441 454.869 151.709 462.877 155.037L459.133 160.445C453.569 158.053 449.773 153.373 447.641 147.601C445.509 153.841 441.661 159.093 436.045 161.641L432.145 156.181C440.153 152.593 444.053 143.805 444.053 135.641V132.989H434.069V127.321H460.901V132.989H451.021ZM465.321 122.745H472.185V170.637H465.321V122.745ZM504.785 150.565H513.781V122.745H520.645V159.041H513.781V155.245H504.785V150.565ZM495.581 129.349C492.357 129.349 490.121 130.597 490.121 132.937C490.121 135.277 492.357 136.473 495.581 136.473C498.753 136.473 500.989 135.277 500.989 132.937C500.989 130.597 498.753 129.349 495.581 129.349ZM495.581 141.465C488.561 141.465 483.673 138.033 483.673 132.937C483.673 127.841 488.561 124.357 495.581 124.357C502.549 124.357 507.489 127.841 507.489 132.937C507.489 138.033 502.549 141.465 495.581 141.465ZM493.033 164.345H521.685V169.805H486.169V155.557H492.825V149.161C488.613 149.369 484.609 149.421 481.021 149.421L480.137 143.961C488.873 143.909 500.521 143.805 510.609 142.505L511.077 147.393C507.333 148.017 503.485 148.433 499.637 148.745V157.793H493.033V164.345ZM557.591 126.437V133.405C557.591 142.037 560.971 150.721 568.667 154.517L564.507 159.925C559.515 157.377 556.135 152.749 554.159 147.029C552.079 153.113 548.491 158.157 543.083 160.809L538.975 155.245C547.035 151.449 550.675 142.297 550.675 133.405V126.437H557.591ZM584.423 141.153V146.873H577.455V170.637H570.591V122.745H577.455V141.153H584.423ZM609.431 129.557C603.035 129.557 599.187 131.117 599.187 134.029C599.187 136.993 603.035 138.449 609.431 138.449C615.879 138.449 619.727 136.993 619.727 134.029C619.727 131.117 615.879 129.557 609.431 129.557ZM609.431 143.909C599.031 143.909 592.115 140.113 592.115 134.029C592.115 127.945 599.031 124.149 609.431 124.149C619.883 124.149 626.799 127.945 626.799 134.029C626.799 140.113 619.883 143.909 609.431 143.909ZM599.915 155.869V164.345H626.227V169.805H593.051V155.869H599.915ZM587.799 147.185H631.063V152.645H587.799V147.185ZM647.49 157.949V164.709H666.99V157.949H647.49ZM640.73 170.065V152.593H673.698V170.065H640.73ZM672.814 142.141H679.002V147.601H635.634V142.141H666.002C666.99 137.357 667.146 133.665 667.146 130.337H640.99V124.877H673.906V128.725C673.906 132.573 673.906 136.629 672.814 142.141ZM475.211 204.921V210.433H452.643V204.921H460.547V198.941H467.307V204.921H475.211ZM474.015 224.421H478.123V218.701H472.975C473.651 220.261 474.015 222.081 474.015 224.057V224.421ZM463.823 229.881C466.319 229.881 468.087 227.749 468.087 224.109C468.087 220.417 466.319 218.285 463.823 218.285C461.379 218.285 459.559 220.417 459.559 224.109C459.559 227.749 461.379 229.881 463.823 229.881ZM478.123 213.241V198.577H484.519V243.505H478.123V229.881H472.819C471.103 233.417 467.879 235.653 463.823 235.653C457.895 235.653 453.631 230.869 453.631 224.109C453.631 217.349 457.895 212.565 463.823 212.565C467.983 212.565 471.363 214.957 472.975 218.701V213.241H478.123ZM487.275 197.745H493.775V245.637H487.275V197.745ZM522.059 218.597L522.683 224.057C517.223 224.941 512.595 225.097 505.471 225.097H502.143V200.969H520.967V206.377H508.747V210.329H520.499V215.529H508.747V219.585C513.895 219.533 517.691 219.273 522.059 218.597ZM508.383 234.509V229.049H541.351V245.689H534.487V234.509H508.383ZM534.851 197.745H541.351V226.969H534.851V214.957H531.003V226.657H524.607V198.577H531.003V209.497H534.851V197.745ZM577.724 217.973V211.837H568.312V217.973H577.724ZM584.484 200.553V223.329H561.552V200.553H568.312V206.585H577.724V200.553H584.484ZM573.564 233.209V239.605H599.044V245.065H566.752V227.749H598.16V233.209H573.564ZM597.848 208.613H604.192V214.281H597.848V225.669H590.984V197.745H597.848V208.613ZM629.616 200.137C639.704 200.137 647.504 205.649 647.504 214.021C647.504 222.341 639.704 227.853 629.616 227.853C619.58 227.853 611.78 222.341 611.78 214.021C611.78 205.649 619.58 200.137 629.616 200.137ZM629.616 205.753C623.116 205.753 618.488 208.821 618.488 214.021C618.488 219.117 623.116 222.237 629.616 222.237C636.168 222.237 640.796 219.117 640.796 214.021C640.796 208.821 636.168 205.753 629.616 205.753ZM607.984 234.301H651.352V239.917H607.984V234.301ZM671.108 201.905V209.705C671.108 217.453 673.188 225.409 679.688 229.725L675.944 235.029C671.888 232.533 669.34 228.477 667.832 223.641C666.168 228.945 663.36 233.521 659.044 236.121L654.936 230.973C661.956 226.709 664.504 218.129 664.504 209.965V201.905H671.108ZM680.676 213.917V198.525H687.072V243.505H680.676V219.481H674.644V213.917H680.676ZM690.4 197.745H696.9V245.637H690.4V197.745ZM720.036 225.357V234.509H730.592V225.357C728.928 225.669 727.16 225.825 725.288 225.825C723.416 225.825 721.7 225.669 720.036 225.357ZM725.288 205.493C718.632 205.493 714.212 208.197 714.212 212.981C714.212 217.713 718.632 220.469 725.288 220.469C731.944 220.469 736.416 217.713 736.416 212.981C736.416 208.197 731.944 205.493 725.288 205.493ZM737.404 234.509H747.024V240.073H703.656V234.509H713.224V222.809C709.584 220.573 707.4 217.141 707.452 212.981C707.452 205.129 714.992 200.085 725.288 200.085C735.636 200.085 743.176 205.129 743.176 212.981C743.176 217.141 740.992 220.573 737.404 222.809V234.509ZM756.38 228.061L755.288 208.873L755.028 201.645H762.724L762.464 208.873L761.372 228.061H756.38ZM758.876 241.893C756.172 241.893 754.144 239.709 754.144 236.901C754.144 234.041 756.172 231.909 758.876 231.909C761.58 231.909 763.66 234.041 763.66 236.901C763.66 239.709 761.58 241.893 758.876 241.893Z" fill="black"/>
<path d="M234.546 197.693H241.41V245.741H234.546V197.693ZM204.074 201.541H210.886V213.137H220.87V201.541H227.682V234.561H204.074V201.541ZM210.886 218.493V229.101H220.87V218.493H210.886ZM289.298 197.745V221.873H282.434V197.745H289.298ZM268.498 215.009V205.493H258.722V215.009H268.498ZM275.206 200.137V220.417H251.962V200.137H275.206ZM264.234 239.969H290.546V245.273H257.474V232.065H282.538V229.257H257.422V224.005H289.298V236.953H264.234V239.969ZM315.918 207.989V210.641C315.918 218.441 319.766 226.709 327.774 230.037L324.03 235.445C318.466 233.053 314.67 228.373 312.538 222.601C310.406 228.841 306.558 234.093 300.942 236.641L297.042 231.181C305.05 227.593 308.95 218.805 308.95 210.641V207.989H298.966V202.321H325.798V207.989H315.918ZM330.218 197.745H337.082V245.637H330.218V197.745ZM369.682 225.565H378.678V197.745H385.542V234.041H378.678V230.245H369.682V225.565ZM360.478 204.349C357.254 204.349 355.018 205.597 355.018 207.937C355.018 210.277 357.254 211.473 360.478 211.473C363.65 211.473 365.886 210.277 365.886 207.937C365.886 205.597 363.65 204.349 360.478 204.349ZM360.478 216.465C353.458 216.465 348.57 213.033 348.57 207.937C348.57 202.841 353.458 199.357 360.478 199.357C367.446 199.357 372.386 202.841 372.386 207.937C372.386 213.033 367.446 216.465 360.478 216.465ZM357.93 239.345H386.582V244.805H351.066V230.557H357.722V224.161C353.51 224.369 349.506 224.421 345.918 224.421L345.034 218.961C353.77 218.909 365.418 218.805 375.506 217.505L375.974 222.393C372.23 223.017 368.382 223.433 364.534 223.745V232.793H357.93V239.345ZM404.934 232.949V239.709H424.434V232.949H404.934ZM398.174 245.065V227.593H431.142V245.065H398.174ZM430.258 217.141H436.446V222.601H393.078V217.141H423.446C424.434 212.357 424.59 208.665 424.59 205.337H398.434V199.877H431.35V203.725C431.35 207.573 431.35 211.629 430.258 217.141Z" fill="#FF0000"/>
<path d="M199.498 248.965H450.482V251.565H199.498V248.965Z" fill="#FF0000"/>
</svg>
