<?xml version="1.0" encoding="UTF-8"?>
<svg id="Layer_2" data-name="Layer 2" xmlns="http://www.w3.org/2000/svg" viewBox="0 0 120 120">
  <defs>
    <style>
      .cls-1, .cls-2 {
        stroke-width: 0px;
      }

      .cls-2 {
        fill: #fff;
      }
    </style>
  </defs>
  <g id="Layer_1-2" data-name="Layer 1">
    <g>
      <circle class="cls-1" cx="60" cy="60" r="60"/>
      <g>
        <g>
          <path class="cls-2" d="M43.21,40.12v25.38c0,5.54-2.75,8.31-8.24,8.31h-8.84c-5.49,0-8.24-2.77-8.24-8.31v-25.38c0-5.54,2.75-8.31,8.24-8.31h8.84c5.49,0,8.24,2.77,8.24,8.31ZM33.91,66.5v-27.45c0-.34-.12-.63-.37-.88-.24-.25-.54-.38-.9-.38h-4.19c-.36,0-.65.13-.9.38-.24.25-.37.55-.37.88v27.45c0,.34.12.63.37.88.24.25.54.38.9.38h4.19c.35,0,.65-.13.9-.38.24-.25.37-.54.37-.88Z"/>
          <path class="cls-2" d="M67.14,31.81c5.49,0,8.24,2.86,8.24,8.57v24.86c0,5.71-2.75,8.57-8.24,8.57h-17.08V31.81h17.08ZM66.08,66.28v-27c0-.35-.12-.65-.37-.91-.24-.26-.54-.39-.9-.39h-5.45v29.6h5.45c.35,0,.65-.13.9-.39.24-.26.37-.56.37-.91Z"/>
          <path class="cls-2" d="M91.59,66.28h10.3v7.53h-19.6V31.81h19.6v7.4h-10.3v9.87h9.64v7.14h-9.64v10.06Z"/>
        </g>
        <g>
          <path class="cls-2" d="M17.61,83.05c0-.56.1-1.06.31-1.49s.5-.77.89-1.01c.39-.24.84-.36,1.35-.36.73,0,1.32.23,1.78.7.46.46.72,1.1.77,1.89v.38c0,.86-.22,1.56-.68,2.08-.46.52-1.08.78-1.86.78s-1.4-.26-1.86-.78c-.46-.52-.7-1.23-.7-2.12v-.07ZM19.05,83.16c0,.53.1.94.29,1.23.19.28.47.42.83.42s.62-.14.82-.42.29-.73.29-1.34c0-.52-.1-.93-.29-1.22-.2-.29-.47-.43-.83-.43s-.62.14-.82.43c-.19.29-.29.73-.29,1.33Z"/>
          <path class="cls-2" d="M23.38,83.06c0-.88.19-1.58.57-2.1.38-.52.89-.78,1.55-.78.52,0,.96.21,1.3.61v-2.87h1.45v7.99h-1.3l-.07-.6c-.36.47-.82.7-1.38.7-.63,0-1.14-.26-1.53-.78s-.58-1.25-.58-2.18ZM24.82,83.18c0,.53.09.93.26,1.21.18.28.43.42.77.42.45,0,.76-.2.94-.59v-2.22c-.18-.39-.49-.59-.93-.59-.69,0-1.04.59-1.04,1.77Z"/>
          <path class="cls-2" d="M31.84,86.02c-.79,0-1.43-.25-1.93-.76-.5-.51-.75-1.18-.75-2.02v-.15c0-.56.11-1.07.31-1.52.21-.45.51-.79.89-1.03s.82-.36,1.31-.36c.74,0,1.32.24,1.74.73.42.49.64,1.17.64,2.06v.61h-3.43c.05.37.19.66.42.88.23.22.53.33.89.33.55,0,.99-.21,1.3-.63l.71.83c-.22.32-.51.57-.88.75-.37.18-.78.27-1.23.27ZM31.67,81.4c-.29,0-.52.1-.7.3-.18.2-.29.49-.34.87h2v-.12c0-.33-.09-.59-.26-.78-.17-.18-.4-.27-.71-.27Z"/>
          <path class="cls-2" d="M37.12,84.81c.27,0,.48-.08.65-.23.17-.15.25-.36.26-.61h1.35c0,.38-.1.73-.3,1.05-.2.32-.46.56-.8.74-.34.18-.72.26-1.13.26-.77,0-1.38-.26-1.82-.77-.45-.51-.67-1.22-.67-2.12v-.1c0-.87.22-1.56.66-2.08.44-.52,1.05-.78,1.82-.78.67,0,1.22.2,1.62.6.41.4.61.93.62,1.6h-1.35c0-.29-.09-.53-.26-.71-.17-.18-.39-.27-.66-.27-.34,0-.59.13-.76.38-.17.26-.26.67-.26,1.24v.16c0,.58.08,1,.25,1.25.17.25.43.38.77.38Z"/>
          <path class="cls-2" d="M39.97,83.05c0-.56.1-1.06.31-1.49s.5-.77.89-1.01c.39-.24.84-.36,1.35-.36.73,0,1.32.23,1.78.7.46.46.72,1.1.77,1.89v.38c0,.86-.22,1.56-.68,2.08-.46.52-1.08.78-1.86.78s-1.4-.26-1.86-.78c-.46-.52-.7-1.23-.7-2.12v-.07ZM41.41,83.16c0,.53.1.94.29,1.23.19.28.47.42.83.42s.62-.14.82-.42.29-.73.29-1.34c0-.52-.1-.93-.29-1.22-.2-.29-.47-.43-.83-.43s-.62.14-.82.43c-.19.29-.29.73-.29,1.33Z"/>
          <path class="cls-2" d="M47.32,80.29l.04.63c.38-.49.9-.73,1.55-.73.69,0,1.17.29,1.43.86.38-.57.92-.86,1.62-.86.58,0,1.02.18,1.31.53.29.36.43.89.43,1.6v3.59h-1.45v-3.59c0-.32-.06-.55-.18-.7-.12-.15-.33-.22-.63-.22-.43,0-.73.21-.9.65v3.86s-1.44,0-1.44,0v-3.58c0-.33-.06-.56-.18-.71-.12-.15-.33-.22-.63-.22-.41,0-.7.18-.89.53v3.98h-1.44v-5.63h1.35Z"/>
          <path class="cls-2" d="M59.66,83.16c0,.87-.19,1.56-.57,2.08s-.89.78-1.53.78c-.54,0-.99-.2-1.32-.59v2.65h-1.44v-7.79h1.34l.05.55c.35-.44.8-.66,1.37-.66.66,0,1.18.26,1.55.77s.55,1.22.55,2.12v.08ZM58.22,83.05c0-.52-.09-.93-.27-1.21-.18-.28-.44-.43-.77-.43-.45,0-.76.18-.93.54v2.3c.18.37.49.56.94.56.69,0,1.03-.59,1.03-1.76Z"/>
          <path class="cls-2" d="M63.68,85.92c-.07-.14-.11-.3-.14-.5-.35.41-.8.61-1.36.61-.53,0-.97-.16-1.31-.48-.35-.32-.52-.72-.52-1.21,0-.6.21-1.05.64-1.37.42-.32,1.04-.48,1.84-.48h.66v-.32c0-.26-.06-.47-.19-.62-.13-.16-.33-.23-.61-.23-.24,0-.43.06-.57.18-.14.12-.21.29-.21.5h-1.44c0-.33.1-.63.29-.91.19-.28.46-.5.82-.65.35-.16.75-.24,1.19-.24.67,0,1.19.17,1.58.52.39.35.58.84.58,1.47v2.44c0,.53.08.94.21,1.21v.09h-1.46ZM62.48,84.87c.21,0,.41-.05.59-.15.18-.1.31-.23.4-.4v-.97h-.54c-.72,0-1.1.26-1.15.78v.09c0,.19.06.34.18.46s.3.18.52.18Z"/>
          <path class="cls-2" d="M67.35,80.29l.04.65c.39-.5.9-.75,1.55-.75.57,0,1,.18,1.28.53.28.35.42.87.43,1.57v3.64h-1.44v-3.6c0-.32-.07-.55-.2-.69-.13-.14-.35-.22-.66-.22-.41,0-.71.18-.91.54v3.97h-1.44v-5.63h1.36Z"/>
          <path class="cls-2" d="M73.75,83.79l1-3.5h1.54l-2.17,6.5-.12.3c-.32.73-.85,1.1-1.6,1.1-.21,0-.42-.03-.64-.1v-1.14h.22c.27,0,.48-.04.61-.12.13-.09.24-.23.32-.43l.17-.46-1.89-5.64h1.55l1,3.5Z"/>
          <path class="cls-2" d="M76.94,85.18c0-.24.08-.43.23-.58.16-.15.35-.22.58-.22s.43.07.59.22c.15.15.23.34.23.58s-.08.43-.23.57c-.15.15-.35.22-.59.22s-.43-.07-.58-.22c-.15-.15-.23-.34-.23-.57Z"/>
          <path class="cls-2" d="M82.07,84.81c.27,0,.48-.08.65-.23.17-.15.25-.36.26-.61h1.35c0,.38-.1.73-.3,1.05-.2.32-.46.56-.8.74-.34.18-.72.26-1.13.26-.77,0-1.38-.26-1.82-.77-.45-.51-.67-1.22-.67-2.12v-.1c0-.87.22-1.56.66-2.08.44-.52,1.05-.78,1.82-.78.67,0,1.22.2,1.62.6.41.4.61.93.62,1.6h-1.35c0-.29-.09-.53-.26-.71-.17-.18-.39-.27-.66-.27-.34,0-.59.13-.76.38-.17.26-.26.67-.26,1.24v.16c0,.58.08,1,.25,1.25.17.25.43.38.77.38Z"/>
          <path class="cls-2" d="M84.93,83.05c0-.56.1-1.06.31-1.49s.5-.77.89-1.01c.39-.24.84-.36,1.35-.36.73,0,1.32.23,1.78.7.46.46.72,1.1.77,1.89v.38c0,.86-.22,1.56-.68,2.08-.46.52-1.08.78-1.86.78s-1.4-.26-1.86-.78c-.46-.52-.7-1.23-.7-2.12v-.07ZM86.37,83.16c0,.53.1.94.29,1.23.19.28.47.42.83.42s.62-.14.82-.42.29-.73.29-1.34c0-.52-.1-.93-.29-1.22-.2-.29-.47-.43-.83-.43s-.62.14-.82.43c-.19.29-.29.73-.29,1.33Z"/>
          <path class="cls-2" d="M91,85.18c0-.24.08-.43.23-.58.16-.15.35-.22.58-.22s.43.07.59.22c.15.15.23.34.23.58s-.08.43-.23.57c-.15.15-.35.22-.59.22s-.43-.07-.58-.22c-.15-.15-.23-.34-.23-.57Z"/>
          <path class="cls-2" d="M95.85,83.66l-.52.54v1.72h-1.44v-7.99h1.44v4.43l.28-.37,1.38-1.69h1.73l-1.95,2.35,2.12,3.28h-1.65l-1.39-2.26Z"/>
          <path class="cls-2" d="M102.37,81.7c-.2-.03-.37-.04-.52-.04-.54,0-.9.19-1.07.58v3.68h-1.44v-5.63h1.36l.04.67c.29-.52.69-.78,1.2-.78.16,0,.31.02.45.07l-.02,1.45Z"/>
        </g>
      </g>
    </g>
  </g>
</svg>