<?xml version="1.0" encoding="UTF-8"?>
<svg id="Layer_2" data-name="Layer 2" xmlns="http://www.w3.org/2000/svg" viewBox="0 0 228 66">
  <defs>
    <style>
      .cls-1 {
        font-family: Roboto-Medium, Roboto;
        font-size: 10.65px;
        font-weight: 500;
      }

      .cls-1, .cls-2 {
        fill: #fff;
      }

      .cls-3 {
        fill: #ff9300;
      }

      .cls-3, .cls-2, .cls-4 {
        stroke-width: 0px;
      }

      .cls-4 {
        fill: #000076;
      }
    </style>
  </defs>
  <g id="Layer_1-2" data-name="Layer 1">
    <g>
      <g>
        <text class="cls-1" transform="translate(131.31 62.16) scale(1.09 1)"><tspan x="0" y="0">odecompany.co.kr</tspan></text>
        <g>
          <path class="cls-2" d="M135.21,35.82c.75,0,1.42.15,2,.44.58.3,1.05.71,1.39,1.25.34.54.51,1.15.51,1.84s-.17,1.3-.51,1.84c-.34.54-.8.95-1.39,1.26-.58.3-1.25.45-2,.45s-1.4-.15-1.99-.45c-.59-.3-1.06-.72-1.4-1.26-.34-.53-.51-1.15-.51-1.84s.17-1.3.51-1.84c.34-.54.81-.95,1.4-1.25s1.25-.44,1.99-.44ZM135.21,36.96c-.48,0-.92.1-1.31.3-.39.2-.69.48-.92.84-.23.36-.34.77-.34,1.24s.11.89.34,1.25c.23.36.53.63.92.83s.82.3,1.31.3.92-.1,1.31-.3c.39-.2.7-.48.92-.83.22-.35.33-.77.33-1.25s-.11-.88-.33-1.24c-.22-.36-.53-.64-.92-.84-.39-.2-.83-.3-1.31-.3ZM133.62,44.24h1.37v3.91h-1.37v-3.91ZM133.62,47.78h10.06v1.08h-10.06v-1.08ZM141.85,34.81h1.37v10.49h-1.37v-10.49Z"/>
          <path class="cls-2" d="M146.87,36.12h6.91v1.08h-5.55v7.82h-1.35v-8.9ZM146.87,44.65h1.12c.95,0,1.79-.01,2.53-.03.74-.02,1.44-.06,2.11-.12.67-.06,1.35-.15,2.04-.28l.15,1.08c-.72.12-1.42.21-2.1.27-.68.06-1.4.11-2.16.14s-1.61.04-2.57.04h-1.12v-1.1ZM147.88,40.15h5.24v1.06h-5.24v-1.06ZM154.02,40.22h3.3v1.08h-3.3v-1.08ZM157.11,34.8h1.35v14.4h-1.35v-14.4Z"/>
          <path class="cls-2" d="M162.17,36.1h1.36v5.99h-1.36v-5.99ZM162.17,41.65h.94c.84,0,1.67-.03,2.51-.09.84-.06,1.73-.18,2.68-.37l.15,1.08c-.98.2-1.9.33-2.76.4-.86.06-1.72.1-2.58.1h-.94v-1.11ZM168.35,43.81h1.16v.51c0,.64-.15,1.22-.46,1.75s-.73,1-1.26,1.41c-.53.41-1.14.76-1.83,1.04-.68.28-1.4.48-2.15.6l-.51-1.03c.52-.07,1.03-.19,1.53-.35.5-.16.96-.36,1.39-.6s.8-.5,1.12-.79c.33-.29.58-.61.75-.95.18-.34.26-.7.26-1.07v-.51ZM166.56,38.09h3.85v1.06h-3.85v-1.06ZM168.53,43.81h1.17v.51c0,.37.09.73.27,1.07.18.34.43.66.75.95.32.29.69.56,1.12.79s.89.44,1.39.6c.5.16,1.01.28,1.53.35l-.51,1.03c-.75-.12-1.47-.32-2.16-.6-.69-.28-1.3-.63-1.83-1.04-.53-.41-.96-.88-1.26-1.41s-.46-1.11-.46-1.75v-.51ZM169.74,35.1h1.29v8.15h-1.29v-8.15ZM172.71,34.81h1.31v9.73h-1.31v-9.73Z"/>
          <path class="cls-2" d="M183.63,47.94v-10.41h-3.67v-1.24h8.87v1.24h-3.67v10.41h-1.54Z"/>
          <path class="cls-2" d="M193.23,47.94l-3.87-11.65h1.6l1.97,6.31c.21.68.4,1.32.57,1.92.17.6.37,1.24.6,1.93h.07c.23-.69.43-1.33.6-1.93.17-.6.36-1.24.57-1.92l1.95-6.31h1.55l-3.85,11.65h-1.77Z"/>
          <path class="cls-2" d="M205.97,36.34h1.34c0,1.37-.23,2.67-.69,3.92-.46,1.25-1.19,2.4-2.18,3.45s-2.3,1.97-3.92,2.74l-.76-1.02c1.39-.67,2.54-1.45,3.46-2.34.92-.9,1.61-1.89,2.07-2.99.46-1.1.69-2.28.69-3.55v-.21ZM200.45,36.34h6.21v1.1h-6.21v-1.1ZM209.79,34.8h1.37v14.37h-1.37v-14.37ZM210.79,40.63h2.74v1.1h-2.74v-1.1Z"/>
          <path class="cls-2" d="M219.1,35.48c.76,0,1.43.14,2.02.42.58.28,1.04.67,1.38,1.17s.5,1.08.5,1.73-.17,1.22-.5,1.72-.8.89-1.38,1.17c-.58.28-1.26.41-2.02.41s-1.42-.14-2.01-.41c-.59-.28-1.05-.66-1.39-1.17s-.5-1.08-.5-1.72.17-1.23.5-1.73.8-.89,1.39-1.17c.59-.28,1.26-.42,2.01-.42ZM219.1,36.59c-.5,0-.94.09-1.32.28-.39.19-.69.44-.91.78-.22.33-.33.72-.33,1.15s.11.8.33,1.14.52.6.91.79c.39.19.83.29,1.32.29s.94-.1,1.32-.29c.39-.19.69-.45.91-.79.22-.33.33-.71.33-1.14s-.11-.82-.33-1.15c-.22-.33-.52-.59-.91-.78-.39-.18-.83-.28-1.32-.28ZM217.5,43.24h1.34v1.73h6.92v-1.73h1.36v5.75h-9.62v-5.75ZM218.84,46.02v1.89h6.92v-1.89h-6.92ZM225.75,34.8h1.37v7.72h-1.37v-7.72Z"/>
        </g>
      </g>
      <g>
        <path class="cls-2" d="M26.16,0h-13.02C4.54,0,0,4.73,0,13.67v38.67c0,8.94,4.54,13.67,13.14,13.67h13.02c8.6,0,13.14-4.73,13.14-13.67V13.67c0-8.94-4.54-13.67-13.14-13.67ZM15.7,53.87V12.03c0-.26.08-.46.27-.66.17-.18.35-.26.59-.26h6.17c.25,0,.42.08.59.26.19.2.27.41.27.66v41.83c0,.26-.08.46-.27.66-.17.18-.35.26-.59.26h-6.17c-.25,0-.42-.08-.6-.26-.18-.2-.27-.4-.27-.66Z"/>
        <path class="cls-2" d="M73.55,0h-26.16v66h26.16c8.6,0,13.14-4.86,13.14-14.06V14.06c0-9.2-4.54-14.06-13.14-14.06ZM63.09,54.5V11.4h7.03c.24,0,.41.08.58.27.19.21.28.43.28.71v41.15c0,.28-.09.5-.28.71-.17.19-.35.27-.58.27h-7.03Z"/>
        <polygon class="cls-2" points="125.75 13.28 125.75 0 94.87 0 94.87 66 125.75 66 125.75 52.52 110.58 52.52 110.58 39.19 124.77 39.19 124.77 26.31 110.58 26.31 110.58 13.28 125.75 13.28"/>
      </g>
      <g>
        <path class="cls-4" d="M24.59,53.92c0,.51-.18.96-.54,1.34-.36.38-.8.58-1.32.58h-6.17c-.52,0-.96-.19-1.32-.58-.36-.38-.54-.83-.54-1.34V15.23L4.05,4.2C2.01,6.31,1,9.48,1,13.72v38.67c0,8.44,4.05,12.67,12.14,12.67h13.02c8.09,0,12.14-4.22,12.14-12.67v-12.75l-13.71-14.18v28.46Z"/>
        <path class="cls-4" d="M73.55,65.05c8.09,0,12.14-4.35,12.14-13.06v-10.54l-22.81,23.6h10.67Z"/>
        <polygon class="cls-4" points="48.39 65.05 62.88 65.05 48.39 50.06 48.39 65.05"/>
        <polygon class="cls-4" points="95.87 65.05 124.75 65.05 124.75 53.57 109.58 53.57 109.58 38.24 123.77 38.24 123.77 27.36 109.58 27.36 109.58 16.75 95.87 30.92 95.87 65.05"/>
        <polygon class="cls-4" points="113.85 12.33 124.75 12.33 124.75 1.05 124.75 1.05 113.85 12.33"/>
      </g>
      <g>
        <path class="cls-3" d="M26.16,1.05h-13.02c-4.04,0-7.07,1.05-9.09,3.15l10.66,11.02v-3.14c0-.51.18-.96.54-1.34.36-.38.8-.58,1.32-.58h6.17c.52,0,.96.19,1.32.58.36.38.54.83.54,1.34v13.37l13.71,14.18V13.72c0-8.44-4.05-12.67-12.14-12.67Z"/>
        <path class="cls-3" d="M73.55,1.05h-25.16v49.01l14.49,14.99,22.81-23.6V14.11c0-8.71-4.05-13.06-12.14-13.06ZM71.98,53.57c0,.53-.18.99-.54,1.39-.36.4-.8.59-1.32.59h-8.03V10.45h8.03c.52,0,.96.2,1.32.59.36.4.54.86.54,1.38v41.15Z"/>
        <polygon class="cls-3" points="95.87 1.05 95.87 30.92 109.58 16.75 109.58 12.33 113.85 12.33 124.75 1.05 95.87 1.05"/>
      </g>
    </g>
  </g>
</svg>