<svg width="64" height="26" viewBox="0 0 64 26" fill="none" xmlns="http://www.w3.org/2000/svg">
<path d="M61.2502 19.1719C60.0324 19.1719 59.4072 19.9829 59.3079 20.1041C59.0012 19.519 58.4353 19.1719 57.6945 19.1719C56.6218 19.1719 56.0129 19.8004 55.9121 19.9021C55.8677 19.733 55.6484 19.2736 54.9565 19.2736C54.7565 19.2736 54.4632 19.338 54.4395 19.344C54.4691 19.4756 54.5995 20.1161 54.5995 20.999V24.8896H56.0084V20.9242C56.0366 20.8987 56.564 20.36 57.1981 20.36C57.8323 20.36 58.1478 20.8374 58.1478 21.4913V24.8896H59.5627V20.9227C59.5909 20.8957 60.108 20.36 60.751 20.36C61.394 20.36 61.6903 20.8374 61.6903 21.4913V24.8896H63.1126V21.2698C63.1126 19.9994 62.397 19.1719 61.2488 19.1719H61.2502Z" fill="white"/>
<path d="M45.7884 23.8631C44.8298 23.8631 44.1468 23.0985 44.1468 22.0989C44.1468 20.9855 44.9246 20.3226 45.7884 20.3226C46.2551 20.3226 46.4507 20.4663 46.7588 20.4663C47.0877 20.4663 47.2641 20.3047 47.427 19.9845C47.5174 19.8079 47.5693 19.7046 47.5693 19.7046C47.4996 19.6597 46.784 19.1704 45.5736 19.1704C43.7972 19.1704 42.7334 20.4558 42.7334 22.0989C42.7334 23.8901 43.9483 25.0154 45.5736 25.0154C46.7514 25.0154 47.4655 24.5305 47.5915 24.4392L47.1026 23.4651C46.9944 23.5354 46.4907 23.8631 45.7884 23.8631Z" fill="white"/>
<path d="M30.3253 19.1719C28.9741 19.1719 27.8333 20.2822 27.8333 22.0988C27.8333 23.9155 28.9385 25.0153 30.5905 25.0153C31.9031 25.0153 32.5832 24.4347 32.6661 24.3823C32.6661 24.3823 32.5373 24.1729 32.5017 24.113C32.318 23.8077 32.1076 23.7105 31.875 23.7105C31.4098 23.7105 31.3505 23.9065 30.7208 23.9065C29.6408 23.9065 29.2659 23.055 29.2407 22.4864H32.8588V22.0629C32.8588 20.3196 31.8646 19.1719 30.3253 19.1719ZM29.2363 21.4748C29.2363 20.8359 29.6808 20.2418 30.303 20.2418C30.9994 20.2418 31.3831 20.8538 31.395 21.4748H29.2363Z" fill="white"/>
<path d="M35.2723 23.3154V17.4899C35.2723 16.8315 34.8382 16.3228 34.1641 16.3228H33.8618V23.8871C33.8618 24.5829 34.2885 25.0154 35.0308 25.0154C35.9449 25.0154 36.2205 24.3584 36.2205 23.7389C36.182 23.7599 35.9894 23.8392 35.7923 23.8392C35.4664 23.8392 35.2723 23.6476 35.2723 23.3169V23.3154Z" fill="white"/>
<path d="M27.0215 20.3481L27.4319 19.2766H25.8422V17.6022C25.8422 17.6022 25.7162 17.6022 25.7103 17.6022C25.0821 17.6022 24.4317 17.8715 24.4317 19.2632V19.2766H23.3887V20.3481H24.4317V23.6117C24.4317 24.5365 24.9725 25.0154 25.7399 25.0154C26.3607 25.0154 27.1608 24.8253 27.1608 23.5833C27.1119 23.6132 26.8111 23.8093 26.4822 23.8093C26.0229 23.8093 25.8422 23.5264 25.8422 23.1179V20.3481H27.0215Z" fill="white"/>
<path d="M39.1762 19.1719C37.825 19.1719 36.6857 20.2822 36.6857 22.0988C36.6857 23.9155 37.7909 25.0153 39.4429 25.0153C40.7556 25.0153 41.4356 24.4347 41.5186 24.3823C41.5186 24.3823 41.3911 24.1729 41.3541 24.113C41.1689 23.8077 40.96 23.7105 40.7274 23.7105C40.2622 23.7105 40.2029 23.9065 39.5733 23.9065C38.4932 23.9065 38.1183 23.055 38.0917 22.4864H41.7097V22.0629C41.7097 20.3196 40.717 19.1719 39.1762 19.1719ZM38.0872 21.4748C38.0872 20.8359 38.5317 20.2418 39.154 20.2418C39.8503 20.2418 40.234 20.8538 40.2459 21.4748H38.0872Z" fill="white"/>
<path d="M50.8244 19.1704C49.0851 19.1704 48.0598 20.3346 48.0598 22.0959C48.0598 23.8571 49.0984 25.0154 50.8244 25.0154C52.6453 25.0154 53.592 23.7599 53.592 22.0959C53.592 20.3346 52.5682 19.1704 50.8244 19.1704ZM50.8244 23.92C49.9488 23.92 49.4629 23.1419 49.4629 22.0959C49.4629 21.0499 49.9725 20.2673 50.8244 20.2673C51.6763 20.2673 52.189 21.0334 52.189 22.0959C52.189 23.1583 51.6911 23.92 50.8244 23.92Z" fill="white"/>
<path d="M5.3933 18.6616C4.5414 18.259 3.84209 17.9343 3.84209 17.2774C3.84209 16.7746 4.24064 16.4095 5.02587 16.4095C5.31478 16.4095 5.55183 16.4439 5.79629 16.4888C5.9237 16.5112 6.06001 16.5292 6.17261 16.5292C6.86006 16.5292 7.24675 16.1162 7.50454 15.3306L7.61122 15.0104C7.50158 14.9655 6.38003 14.4672 4.91623 14.4672C2.58868 14.4672 1.36046 15.9755 1.36046 17.5393C1.36046 18.3279 1.60492 18.8995 1.98864 19.3514C2.48201 19.9305 3.18576 20.3091 3.84357 20.6338C4.80215 21.1097 5.66739 21.4599 5.66739 22.1647C5.66739 22.7902 5.02883 23.1448 4.17397 23.1448C3.00204 23.1448 1.97827 22.4684 1.84789 22.3876L0.886353 24.2087C1.05673 24.306 2.29533 25.1006 4.33398 25.1006C6.50596 25.1006 8.15051 23.8421 8.15051 21.9058C8.15051 19.9694 6.62597 19.2661 5.39182 18.6616H5.3933Z" fill="white"/>
<path d="M17.8297 14.6812H15.0221L11.8797 18.892H11.8323V14.6812H9.51807V25.0183H9.65585C10.6559 25.0183 11.8471 24.5514 11.8471 22.8635V20.4902H11.8945L15.0977 24.8896H18.043L13.8887 19.5609L17.8297 14.6812Z" fill="white"/>
<path d="M17.9617 3.60938C17.1468 3.765 15.9393 4.51171 15.9423 5.83303C15.9453 7.03315 16.9172 7.7589 16.9201 9.33162C16.9246 10.5138 16.2801 11.3099 15.5823 11.7513C15.8638 11.7259 16.1734 11.7094 16.5127 11.7094C17.2253 11.7079 17.655 11.7767 17.6817 11.7812L21.3367 7.25162C20.3218 5.71631 19.1366 4.52518 17.9617 3.61087V3.60938Z" fill="white"/>
<path d="M23.31 10.8669C23.6315 10.8669 23.9382 10.9103 24.4923 10.9088C26.6184 10.8999 28.0051 10.1606 28.8689 9.67579C27.1058 8.54002 24.5309 7.38031 21.3366 7.25012C21.1292 7.8427 19.5098 12.3888 19.3883 12.7554C19.4061 12.7778 19.6905 13.0981 20.0446 13.7236C20.5662 14.5825 20.8477 15.3112 21.0329 15.8425C21.4936 15.1197 21.5514 13.966 21.5899 12.7913C21.6329 11.6959 21.8596 10.8714 23.31 10.8669Z" fill="white"/>
<path d="M13.0101 11.7917C13.0353 12.0072 13.1271 12.1314 13.3123 12.1299C13.8472 12.1299 16.4266 11.5807 16.4192 9.31363C16.4132 7.92048 15.4295 7.15432 15.4236 5.76566C15.4176 4.19593 16.7229 3.43725 17.4444 3.23225C14.9391 1.45901 12.5789 0.90085 12.1463 0.902347C11.9967 0.902347 11.8693 1.0056 11.8707 1.20312C11.8707 1.32583 11.9167 1.66701 11.9374 1.85406C12.0737 3.13199 12.9878 11.5792 13.0116 11.7932L13.0101 11.7917Z" fill="white"/>
<path d="M61.2501 18.2741C60.5671 18.2741 59.9315 18.4671 59.3877 18.8293C58.927 18.4686 58.3447 18.2741 57.6943 18.2741C57.115 18.2741 56.5491 18.4208 56.0542 18.6886C55.7653 18.4986 55.3979 18.3759 54.9564 18.3759C54.626 18.3759 54.2319 18.4701 54.2289 18.4716C53.7992 18.5779 53.5192 18.9834 53.5548 19.4159C52.9118 18.6901 51.9665 18.2711 50.8242 18.2711C49.8005 18.2711 48.9352 18.6078 48.3026 19.2019C48.2359 19.1031 48.153 19.0148 48.0478 18.946C47.7381 18.7425 46.8773 18.2711 45.575 18.2711C44.0668 18.2711 42.8475 19.0552 42.2489 20.2838C41.7126 19.0478 40.5955 18.2741 39.1761 18.2741C37.7568 18.2741 36.7048 19.0582 36.1626 20.2838V17.4885C36.1626 16.3108 35.3033 15.4235 34.1654 15.4235H33.8632C33.3728 15.4235 32.9742 15.826 32.9742 16.3213V19.5505C32.3668 18.7485 31.4393 18.2726 30.3267 18.2726C29.5355 18.2726 28.8332 18.5345 28.2747 18.9939C28.248 18.9146 28.2125 18.8383 28.1651 18.7664C27.9991 18.5225 27.725 18.3759 27.4317 18.3759H26.7309V17.5992C26.7309 17.1069 26.3383 16.7059 25.8508 16.7014H25.7471C25.7293 16.7014 25.7101 16.7014 25.6879 16.7014C25.1234 16.7059 23.9663 16.9019 23.6329 18.3759H23.3885C22.8981 18.3759 22.4995 18.7784 22.4995 19.2737V20.3451C22.4995 20.8404 22.8981 21.243 23.3885 21.243H23.5425V23.6088C23.5425 24.9855 24.4256 25.9103 25.7397 25.9103C26.7472 25.9103 27.4702 25.4868 27.8169 24.7386C28.454 25.4853 29.4111 25.9103 30.5919 25.9103C31.2764 25.9103 32.2779 25.7741 33.1698 25.1202C33.2098 25.0917 33.2469 25.0603 33.2824 25.0274C33.6291 25.5795 34.2484 25.9117 35.0321 25.9117C35.8159 25.9117 36.4826 25.5347 36.8278 24.9122C37.4604 25.5526 38.3568 25.9117 39.4428 25.9117C40.1273 25.9117 41.1273 25.7756 42.0193 25.1216C42.3408 24.9002 42.4741 24.5006 42.3733 24.1385C43.0075 25.2279 44.1646 25.9117 45.575 25.9117C46.9855 25.9117 47.867 25.3431 48.1085 25.168C48.1826 25.1142 48.2448 25.0483 48.2967 24.978C48.9293 25.5736 49.796 25.9117 50.8228 25.9117C52.0599 25.9117 53.0674 25.4194 53.7104 24.58V24.8882C53.7104 25.3835 54.1089 25.7861 54.5993 25.7861H56.0083C56.4987 25.7861 56.8972 25.3835 56.8972 24.8882V21.3612C57.0098 21.2953 57.118 21.2564 57.198 21.2564C57.2098 21.2564 57.2187 21.2564 57.2261 21.2564C57.2395 21.2909 57.2572 21.3627 57.2572 21.4884V24.8867C57.2572 25.382 57.6558 25.7846 58.1462 25.7846H59.5611C60.0515 25.7846 60.45 25.382 60.45 24.8867V21.3552C60.5537 21.2953 60.6619 21.2549 60.7493 21.2549C60.7567 21.2549 60.7641 21.2549 60.7701 21.2549C60.7834 21.2939 60.7997 21.3702 60.7997 21.4884V24.8867C60.7997 25.382 61.1982 25.7846 61.6886 25.7846H63.1109C63.6013 25.7846 63.9999 25.382 63.9999 24.8867V21.2669C63.9999 19.5027 62.868 18.2711 61.2471 18.2711L61.2501 18.2741ZM26.7294 22.7992V21.2475H27.0198C26.9709 21.5198 26.9442 21.8041 26.9442 22.1004C26.9442 22.3099 26.9561 22.5134 26.9798 22.7094C26.8939 22.7274 26.8079 22.7558 26.7294 22.7992ZM42.1111 23.6447C42.0459 23.5385 41.9778 23.4442 41.9067 23.3619C41.9452 23.3529 41.9837 23.3394 42.0207 23.3245C42.0652 23.4711 42.117 23.6148 42.1763 23.7524L42.1111 23.6447ZM46.621 22.7094C46.2921 22.9204 45.9869 22.9653 45.7884 22.9653C45.2683 22.9653 45.0357 22.5299 45.0357 22.0989C45.0357 21.451 45.4417 21.2205 45.7884 21.2205C45.9365 21.2205 46.0328 21.2445 46.1647 21.2774C46.3203 21.3163 46.5129 21.3642 46.7603 21.3642C46.9292 21.3642 47.0877 21.3402 47.2359 21.2954C47.1944 21.5497 47.1722 21.8176 47.1722 22.0959C47.1722 22.259 47.1811 22.4191 47.1959 22.5748C47.1662 22.5718 47.1351 22.5688 47.1055 22.5688C46.9366 22.5688 46.7692 22.6167 46.6255 22.7094H46.621ZM50.8228 23.0222C50.7442 23.0222 50.3501 22.9773 50.3501 22.0959C50.3501 21.8774 50.3842 21.1652 50.8228 21.1652C50.9339 21.1652 51.2984 21.2325 51.2984 22.0959C51.2984 22.9593 50.9354 23.0222 50.8228 23.0222Z" fill="white"/>
<path d="M15.0295 19.5714L18.5201 15.2498C18.7364 14.9819 18.7809 14.6108 18.6342 14.2966C18.4875 13.9838 18.1749 13.7833 17.8312 13.7833H15.0236C14.7451 13.7833 14.4813 13.915 14.3139 14.1409L12.7227 16.2718V14.6811C12.7227 14.1858 12.3242 13.7833 11.8338 13.7833H9.51955C9.28398 13.7833 9.0573 13.8776 8.89136 14.0467C8.72543 14.2158 8.6306 14.4432 8.6306 14.6811V20.143C7.99501 18.9354 6.75197 18.3279 5.8408 17.8819L5.74894 17.8385C5.43633 17.6919 4.99186 17.4809 4.80222 17.3268C4.85703 17.3163 4.93111 17.3073 5.02742 17.3073C5.24373 17.3073 5.42151 17.3328 5.64671 17.3747C5.85858 17.4121 6.026 17.4285 6.17415 17.4285C7.22311 17.4285 7.95501 16.818 8.34911 15.6179L8.45578 15.2977C8.60542 14.8487 8.37281 14.3564 7.93871 14.1768C7.50757 13.9943 6.35046 13.5708 4.91778 13.5708C3.60066 13.5708 2.47318 13.9838 1.65535 14.7664C0.892343 15.4967 0.473057 16.4813 0.473057 17.5408C0.473057 18.473 0.756038 19.2796 1.31607 19.938C1.925 20.6533 2.73987 21.0902 3.45398 21.4404C3.54288 21.4853 3.63177 21.5272 3.71919 21.5706C4.06143 21.7382 4.55924 21.9806 4.73703 22.1482C4.64665 22.1916 4.46738 22.2484 4.17551 22.2484C3.6214 22.2484 2.95173 22.027 2.33984 21.6394L2.31762 21.6259C2.17539 21.5377 2.01389 21.4913 1.84944 21.4913C1.7724 21.4913 1.69387 21.5017 1.61831 21.5227C1.38126 21.587 1.18125 21.7486 1.06569 21.9671L0.104145 23.7882C-0.122536 24.2177 0.0330296 24.7534 0.452315 24.9928L0.474539 25.0063C1.57831 25.6573 2.91321 25.9999 4.337 25.9999C6.32528 25.9999 7.915 25.0826 8.6306 23.667V25.0198C8.6306 25.5151 9.02915 25.9176 9.51955 25.9176H9.65734C11.4308 25.9176 12.6101 24.8417 12.7272 23.1493L14.3821 25.4223C14.5495 25.6528 14.8162 25.7889 15.0977 25.7889H18.043C18.3838 25.7889 18.6935 25.5929 18.8431 25.2832C18.9913 24.9734 18.9527 24.6053 18.7423 24.3359L15.0295 19.5729V19.5714Z" fill="white"/>
<path d="M31.149 13.3823C31.1964 13.3584 31.2586 13.33 31.3223 13.3C31.5535 13.1923 31.7001 13.122 31.7905 13.0681C32.1713 12.8496 32.3995 12.4665 32.3995 12.0311C32.3965 11.8156 32.3357 11.6031 32.2217 11.4176C31.9565 10.9836 31.0571 10.1022 29.8556 9.25974C29.7697 9.19839 29.6734 9.15799 29.5756 9.13105C29.5133 9.04725 29.4363 8.97393 29.3474 8.91557C27.7266 7.87108 25.1279 6.60961 21.821 6.37767C20.898 5.06383 19.7868 3.89214 18.5052 2.89554C18.4104 2.82221 18.3023 2.77134 18.1897 2.74141C18.1289 2.64564 18.0504 2.56035 17.9556 2.49301C15.2695 0.59108 12.7597 0 12.1449 0C11.4915 0.0014964 10.9803 0.52823 10.9818 1.20161C10.9818 1.3318 11.0011 1.50389 11.0337 1.77024C11.0411 1.83459 11.0485 1.89594 11.0529 1.94383C11.1966 3.29658 12.1211 11.838 12.1271 11.8919C12.2174 12.673 12.7864 13.0232 13.3094 13.0232H13.3138C13.6753 13.0232 14.4146 12.8885 15.1554 12.5324C15.2843 12.6042 15.4295 12.6446 15.5821 12.6446C15.6088 12.6446 15.634 12.6446 15.6606 12.6416C15.9451 12.6162 16.2251 12.6027 16.5155 12.6027H16.5377C17.1629 12.6027 17.5363 12.6626 17.5393 12.6626C17.5867 12.67 17.6341 12.6745 17.6815 12.6745C17.9467 12.6745 18.2 12.5548 18.3704 12.3438L18.7527 11.8695C18.6445 12.1777 18.569 12.3947 18.5453 12.465C18.446 12.7613 18.5067 13.0875 18.7053 13.327C18.7082 13.33 18.7171 13.3404 18.7201 13.3434C18.7808 13.4153 19.0016 13.6861 19.2727 14.1649C19.2771 14.1724 19.2816 14.1814 19.2875 14.1889C19.7572 14.964 20.0105 15.609 20.1957 16.1372C20.2313 16.2405 20.2876 16.3332 20.3557 16.4155C20.3528 16.5308 20.3705 16.6475 20.4135 16.7597C20.4609 16.8854 20.5202 17.0336 20.5928 17.1533C20.8106 17.5244 21.1706 17.7369 21.581 17.7369H21.5928C21.7736 17.7339 21.9632 17.689 22.1603 17.5992C22.2284 17.5678 23.227 17.0979 24.5427 16.4799C26.8732 15.3845 30.3964 13.7295 31.1505 13.3778L31.149 13.3823Z" fill="white"/>
<path d="M31.3521 12.2869C31.4603 12.2256 31.5091 12.1343 31.5091 12.0415C31.5091 11.9891 31.4943 11.9382 31.4647 11.8904C31.321 11.6554 30.5817 10.8638 29.3475 9.9989C28.3667 10.5436 26.8363 11.3876 24.5591 11.3965C24.0005 11.3965 23.8746 11.3591 23.4938 11.3606C22.3827 11.3651 22.1041 11.844 22.0641 12.8286C22.0567 13.0142 22.0537 13.2641 22.0434 13.5394C22.0078 14.4193 21.9056 15.6329 21.2404 16.4439C21.2804 16.5487 21.3174 16.6369 21.3544 16.6998C21.4122 16.7986 21.4863 16.8435 21.5796 16.8435C21.6374 16.8435 21.71 16.8225 21.7885 16.7866C21.9811 16.6968 29.6142 13.1084 30.7654 12.5727C30.9328 12.4919 31.2484 12.3498 31.3536 12.2869H31.3521Z" fill="white"/>
<path d="M61.2504 19.1719C60.0325 19.1719 59.4073 19.9829 59.308 20.1041C59.0013 19.519 58.4354 19.1719 57.6946 19.1719C56.6219 19.1719 56.013 19.8004 55.9123 19.9021C55.8678 19.733 55.6485 19.2736 54.9566 19.2736C54.7566 19.2736 54.4633 19.338 54.4396 19.344C54.4692 19.4756 54.5996 20.1161 54.5996 20.999V24.8896H56.0086V20.9242C56.0367 20.8987 56.5642 20.36 57.1983 20.36C57.8324 20.36 58.148 20.8374 58.148 21.4913V24.8896H59.5629V20.9227C59.591 20.8957 60.1081 20.36 60.7511 20.36C61.3941 20.36 61.6904 20.8374 61.6904 21.4913V24.8896H63.1127V21.2698C63.1127 19.9994 62.3971 19.1719 61.2489 19.1719H61.2504Z" fill="#EE7623"/>
<path d="M45.7884 23.8631C44.8298 23.8631 44.1468 23.0985 44.1468 22.0989C44.1468 20.9855 44.9246 20.3226 45.7884 20.3226C46.2551 20.3226 46.4507 20.4663 46.7588 20.4663C47.0877 20.4663 47.2641 20.3047 47.427 19.9845C47.5174 19.8079 47.5693 19.7046 47.5693 19.7046C47.4996 19.6597 46.784 19.1704 45.5736 19.1704C43.7972 19.1704 42.7334 20.4558 42.7334 22.0989C42.7334 23.8901 43.9483 25.0154 45.5736 25.0154C46.7514 25.0154 47.4655 24.5305 47.5915 24.4392L47.1026 23.4651C46.9944 23.5354 46.4907 23.8631 45.7884 23.8631Z" fill="#EE7623"/>
<path d="M30.3253 19.1719C28.9741 19.1719 27.8333 20.2822 27.8333 22.0988C27.8333 23.9155 28.9385 25.0153 30.5905 25.0153C31.9031 25.0153 32.5832 24.4347 32.6661 24.3823C32.6661 24.3823 32.5373 24.1729 32.5017 24.113C32.318 23.8077 32.1076 23.7105 31.875 23.7105C31.4098 23.7105 31.3505 23.9065 30.7208 23.9065C29.6408 23.9065 29.2659 23.055 29.2407 22.4864H32.8588V22.0629C32.8588 20.3196 31.8646 19.1719 30.3253 19.1719ZM29.2363 21.4748C29.2363 20.8359 29.6808 20.2418 30.303 20.2418C30.9994 20.2418 31.3831 20.8538 31.395 21.4748H29.2363Z" fill="#EE7623"/>
<path d="M35.2724 23.3154V17.4899C35.2724 16.8315 34.8383 16.3228 34.1642 16.3228H33.8619V23.8871C33.8619 24.5829 34.2886 25.0154 35.0309 25.0154C35.945 25.0154 36.2206 24.3584 36.2206 23.7389C36.1821 23.7599 35.9895 23.8392 35.7924 23.8392C35.4665 23.8392 35.2724 23.6476 35.2724 23.3169V23.3154Z" fill="#EE7623"/>
<path d="M25.8422 23.1179V20.3481H27.0215L27.4319 19.2766H25.8422V17.6022C25.8422 17.6022 25.7162 17.6022 25.7103 17.6022C25.0821 17.6022 24.4317 17.8715 24.4317 19.2632V19.2766H23.3887V20.3481H24.4317V23.6117C24.4317 24.5365 24.9725 25.0154 25.7399 25.0154C26.3607 25.0154 27.1608 24.8253 27.1608 23.5833C27.1119 23.6132 26.8111 23.8093 26.4822 23.8093C26.0229 23.8093 25.8422 23.5264 25.8422 23.1179Z" fill="#EE7623"/>
<path d="M39.1763 19.1719C37.8251 19.1719 36.6843 20.2822 36.6843 22.0988C36.6843 23.9155 37.7896 25.0153 39.4415 25.0153C40.7542 25.0153 41.4343 24.4347 41.5172 24.3823C41.5172 24.3823 41.3898 24.1729 41.3528 24.113C41.1676 23.8077 40.9587 23.7105 40.7261 23.7105C40.2608 23.7105 40.2016 23.9065 39.5719 23.9065C38.4918 23.9065 38.117 23.055 38.0903 22.4864H41.7083V22.0629C41.7083 20.3196 40.7157 19.1719 39.1749 19.1719H39.1763ZM38.0874 21.4748C38.0874 20.8359 38.5318 20.2418 39.1541 20.2418C39.8504 20.2418 40.2342 20.8538 40.246 21.4748H38.0874Z" fill="#EE7623"/>
<path d="M50.8244 25.0154C49.0984 25.0154 48.0598 23.8646 48.0598 22.0959C48.0598 20.3271 49.0851 19.1704 50.8244 19.1704C52.5638 19.1704 53.592 20.3346 53.592 22.0959C53.592 23.7614 52.6453 25.0154 50.8244 25.0154ZM50.8244 23.9185C51.6897 23.9185 52.189 23.1673 52.189 22.0944C52.189 21.0215 51.7015 20.2658 50.8244 20.2658C49.9473 20.2658 49.4629 21.0095 49.4629 22.0944C49.4629 23.1793 49.9488 23.9185 50.8244 23.9185Z" fill="#EE7623"/>
<path d="M5.3933 18.6616C4.5414 18.259 3.84209 17.9343 3.84209 17.2774C3.84209 16.7746 4.24064 16.4095 5.02587 16.4095C5.31478 16.4095 5.55183 16.4439 5.79629 16.4888C5.9237 16.5112 6.06001 16.5292 6.17261 16.5292C6.86006 16.5292 7.24675 16.1162 7.50454 15.3306L7.61122 15.0104C7.50158 14.9655 6.38003 14.4672 4.91623 14.4672C2.58868 14.4672 1.36046 15.9755 1.36046 17.5393C1.36046 18.3279 1.60492 18.8995 1.98864 19.3514C2.48201 19.9305 3.18576 20.3091 3.84357 20.6338C4.80215 21.1097 5.66739 21.4599 5.66739 22.1647C5.66739 22.7902 5.02883 23.1448 4.17397 23.1448C3.00204 23.1448 1.97827 22.4684 1.84789 22.3876L0.886353 24.2087C1.05673 24.306 2.29533 25.1006 4.33398 25.1006C6.50596 25.1006 8.15051 23.8421 8.15051 21.9058C8.15051 19.9694 6.62597 19.2661 5.39182 18.6616H5.3933Z" fill="#D0202E"/>
<path d="M13.8902 19.5609L17.8312 14.6812H15.0236L11.8812 18.892H11.8337V14.6812H9.51953V25.0183H9.65732C10.6574 25.0183 11.8486 24.5514 11.8486 22.8635V20.4902H11.896L15.0991 24.8896H18.0445L13.8902 19.5609Z" fill="#D0202E"/>
<path d="M17.9616 3.60938C17.1467 3.765 15.9392 4.51171 15.9422 5.83303C15.9451 7.03315 16.9171 7.7589 16.92 9.33162C16.9245 10.5138 16.28 11.3099 15.5822 11.7513C15.8637 11.7259 16.1733 11.7094 16.5126 11.7094C17.2252 11.7079 17.6549 11.7767 17.6815 11.7812L21.3366 7.25162C20.3217 5.71631 19.1364 4.52518 17.9616 3.61087V3.60938Z" fill="#D0202E"/>
<path d="M21.0314 15.8425C21.4922 15.1197 21.5499 13.966 21.5885 12.7913C21.6314 11.6959 21.8581 10.8714 23.3086 10.8669C23.6301 10.8669 23.9368 10.9103 24.4909 10.9088C26.6169 10.8999 28.0037 10.1606 28.8674 9.67579C27.1044 8.54002 24.5294 7.38031 21.3351 7.25012C21.1277 7.8427 19.5083 12.3888 19.3868 12.7554C19.4046 12.7778 19.6891 13.0981 20.0432 13.7236C20.5647 14.5825 20.8462 15.3112 21.0314 15.8425Z" fill="#D0202E"/>
<path d="M13.3124 12.1299C13.1272 12.1299 13.0354 12.0072 13.0102 11.7917C12.9865 11.5777 12.0724 3.13202 11.9361 1.85259C11.9168 1.66554 11.8709 1.32287 11.8694 1.20166C11.8694 1.00413 11.9953 0.902378 12.145 0.900882C12.5776 0.899386 14.9377 1.45754 17.4431 3.23078C16.7215 3.43579 15.4163 4.19446 15.4222 5.76419C15.4266 7.15435 16.4119 7.91901 16.4178 9.31216C16.4252 11.5792 13.8458 12.1269 13.311 12.1284L13.3124 12.1299Z" fill="#EE7623"/>
<path d="M21.2418 16.4454C21.2818 16.5501 21.3189 16.6384 21.3559 16.7013C21.4137 16.8 21.4878 16.8449 21.5811 16.8449C21.6389 16.8449 21.7115 16.824 21.79 16.788C21.9826 16.6983 29.6157 13.1099 30.7669 12.5742C30.9343 12.4934 31.2499 12.3512 31.355 12.2884C31.4632 12.227 31.5121 12.1357 31.5121 12.043C31.5121 11.9906 31.4973 11.9397 31.4676 11.8918C31.3239 11.6569 30.5861 10.8653 29.3505 10.0004C28.3697 10.5451 26.8392 11.389 24.562 11.398C24.0035 11.398 23.8775 11.3606 23.4968 11.3621C22.3856 11.3666 22.1071 11.8454 22.0671 12.8301C22.0596 13.0156 22.0567 13.2655 22.0463 13.5409C22.0108 14.4207 21.9085 15.6343 21.2433 16.4454H21.2418Z" fill="#EE7623"/>
</svg>
