<svg width="65" height="24" viewBox="0 0 65 24" fill="none" xmlns="http://www.w3.org/2000/svg">
<path d="M61.0529 18.1208C59.821 18.1208 59.1896 18.9256 59.086 19.0465C58.778 18.4643 58.2056 18.1208 57.4561 18.1208C56.3714 18.1208 55.7555 18.7453 55.6538 18.8441C55.6083 18.6782 55.3875 18.2225 54.6873 18.2225C54.4839 18.2225 54.1895 18.2868 54.1643 18.2935C54.1924 18.424 54.3251 19.058 54.3251 19.9328V23.7937H55.7506V19.8609C55.7787 19.835 56.3114 19.3007 56.9544 19.3007C57.5975 19.3007 57.9141 19.7746 57.9141 20.423V23.7947H59.3436V19.8599C59.3736 19.8321 59.8975 19.3007 60.5483 19.3007C61.1991 19.3007 61.4974 19.7746 61.4974 20.423V23.7947H62.9365V20.2043C62.9365 18.9429 62.2121 18.1228 61.0529 18.1228V18.1208Z" fill="#EE7623"/>
<path d="M45.4125 22.7741C44.446 22.7741 43.7526 22.0154 43.7526 21.0245C43.7526 19.9204 44.5409 19.2643 45.4125 19.2643C45.8851 19.2643 46.0846 19.4053 46.3945 19.4053C46.7296 19.4053 46.9068 19.247 47.0724 18.9285C47.1635 18.753 47.2167 18.6513 47.2167 18.6513C47.1441 18.6072 46.4216 18.1218 45.1975 18.1218C43.401 18.1218 42.327 19.3957 42.327 21.0245C42.327 22.8019 43.554 23.9185 45.1975 23.9185C46.3897 23.9185 47.1112 23.4369 47.2371 23.3458L46.7451 22.3779C46.6347 22.4489 46.1262 22.7741 45.4135 22.7741H45.4125Z" fill="#EE7623"/>
<path d="M29.7739 18.1218C28.4084 18.1218 27.254 19.223 27.254 21.0245C27.254 22.8259 28.3726 23.9185 30.0441 23.9185C31.3719 23.9185 32.0614 23.342 32.1428 23.2892C32.1428 23.2892 32.0139 23.0811 31.9781 23.0216C31.7912 22.7194 31.5801 22.6225 31.3448 22.6225C30.8731 22.6225 30.8131 22.8154 30.1778 22.8154C29.0834 22.8154 28.7057 21.9722 28.6796 21.4091H32.3384V20.9899C32.3384 19.2614 31.3331 18.1228 29.7749 18.1228L29.7739 18.1218ZM28.6718 20.4058C28.6718 19.7727 29.1222 19.1837 29.7517 19.1837C30.4567 19.1837 30.846 19.7899 30.8557 20.4058H28.6718Z" fill="#EE7623"/>
<path d="M34.778 22.2311V16.4527C34.778 15.7995 34.3383 15.2949 33.6575 15.2949H33.3514V22.799C33.3514 23.4887 33.7834 23.9184 34.5349 23.9184C35.4607 23.9184 35.7367 23.2652 35.7367 22.6513C35.7009 22.6714 35.5024 22.751 35.3038 22.751C34.9746 22.751 34.7789 22.5611 34.7789 22.2311H34.778Z" fill="#EE7623"/>
<path d="M25.2397 22.0346V19.2883H26.4319L26.8464 18.2245H25.2407V16.5631C25.2407 16.5631 25.1128 16.5631 25.1061 16.5631C24.4727 16.5631 23.8122 16.8288 23.8122 18.2111V18.2245H22.7576V19.2873H23.8122V22.5247C23.8122 23.4398 24.3603 23.9175 25.1361 23.9175C25.7656 23.9175 26.5742 23.7286 26.5742 22.496C26.5248 22.5267 26.2207 22.7214 25.8886 22.7214C25.4227 22.7214 25.2407 22.4394 25.2407 22.0346H25.2397Z" fill="#EE7623"/>
<path d="M38.7263 18.1218C37.3589 18.1218 36.2064 19.223 36.2064 21.0245C36.2064 22.8259 37.323 23.9185 38.9955 23.9185C40.3233 23.9185 41.0099 23.342 41.0951 23.2892C41.0951 23.2892 40.9644 23.0811 40.9266 23.0216C40.7407 22.7194 40.5305 22.6225 40.2942 22.6225C39.8255 22.6225 39.7635 22.8154 39.1273 22.8154C38.0348 22.8154 37.6572 21.9722 37.63 21.4091H41.2888V20.9899C41.2888 19.2614 40.2826 18.1228 38.7263 18.1228V18.1218ZM37.6262 20.4058C37.6262 19.7727 38.0736 19.1837 38.7031 19.1837C39.4071 19.1837 39.7965 19.7899 39.8071 20.4058H37.6271H37.6262Z" fill="#EE7623"/>
<path d="M50.5094 23.9175C48.7623 23.9175 47.7106 22.776 47.7106 21.0206C47.7106 19.2652 48.7478 18.1208 50.5094 18.1208C52.271 18.1208 53.3082 19.2738 53.3082 21.0206C53.3082 22.6734 52.3494 23.9175 50.5094 23.9175ZM50.5094 22.8297C51.3829 22.8297 51.8875 22.0844 51.8875 21.0206C51.8875 19.9568 51.3945 19.2067 50.5094 19.2067C49.6242 19.2067 49.1293 19.9443 49.1293 21.0206C49.1293 22.0969 49.6213 22.8297 50.5094 22.8297Z" fill="#EE7623"/>
<path d="M4.55654 17.6164C3.69269 17.2154 2.9896 16.8931 2.9896 16.2427C2.9896 15.7449 3.3915 15.3823 4.1866 15.3823C4.48004 15.3823 4.71828 15.4168 4.96523 15.46C5.09403 15.484 5.23155 15.5003 5.34777 15.5003C6.04214 15.5003 6.43243 15.0917 6.69391 14.3128L6.80238 13.9933C6.69004 13.9492 5.55501 13.4552 4.07523 13.4552C1.72093 13.4552 0.478413 14.9506 0.478413 16.5027C0.478413 17.2854 0.726337 17.8523 1.11468 18.2993C1.6144 18.8739 2.32524 19.2499 2.99154 19.5713C3.95998 20.0422 4.83546 20.3895 4.83546 21.0897C4.83836 21.7094 4.19047 22.0624 3.32565 22.0624C2.14027 22.0624 1.105 21.3919 0.973289 21.3104L0 23.1156C0.173352 23.2116 1.42652 24 3.48738 24C5.68479 24 7.35052 22.7511 7.35052 20.8307C7.35052 18.9104 5.80681 18.213 4.55751 17.6144L4.55654 17.6164Z" fill="#CE0E2D"/>
<path d="M13.1515 18.5084L17.1367 13.6691H14.2963L11.1178 17.8456H11.0713V13.6691H8.72961V23.9213H8.87004C9.88207 23.9213 11.0868 23.458 11.0868 21.7842V19.4283H11.1352L14.3757 23.7938H17.3546L13.1515 18.5084Z" fill="#CE0E2D"/>
<path d="M17.2703 2.68494C16.4423 2.83841 15.224 3.5799 15.226 4.89117C15.2308 6.08158 16.2128 6.801 16.2147 8.36071C16.2206 9.53385 15.5668 10.3233 14.8618 10.7607C15.1446 10.7367 15.4603 10.7195 15.8032 10.7195C16.5227 10.7175 16.9575 10.7847 16.9866 10.7885L20.6822 6.29645C19.6556 4.77414 18.4567 3.59237 17.2703 2.6859V2.68494Z" fill="#CE0E2D"/>
<path d="M20.3743 14.8202C20.841 14.1008 20.8982 12.9584 20.9389 11.7939C20.9824 10.7061 21.2091 9.88882 22.6782 9.88306C23.0036 9.88306 23.3154 9.92719 23.8742 9.92527C26.0232 9.91567 27.4275 9.18282 28.302 8.70321C26.5181 7.57611 23.913 6.42503 20.6832 6.29553C20.4721 6.88354 18.8354 11.3919 18.7124 11.7555C18.7298 11.7785 19.0165 12.097 19.3758 12.7166C19.9036 13.5694 20.1883 14.2907 20.3752 14.8193L20.3743 14.8202Z" fill="#CE0E2D"/>
<path d="M12.5656 11.1367C12.3796 11.1386 12.2866 11.0158 12.2595 10.8019C12.2392 10.5899 11.3134 2.21103 11.1749 0.943885C11.1536 0.758753 11.109 0.419185 11.109 0.298321C11.108 0.102638 11.2359 0 11.3879 0C11.8257 0 14.2139 0.552518 16.7454 2.31175C16.0152 2.51607 14.6971 3.26714 14.702 4.82494C14.7058 6.20144 15.7033 6.95923 15.7082 8.3434C15.7169 10.5928 13.106 11.1357 12.5656 11.1367Z" fill="#EE7623"/>
<path d="M20.5862 15.4167C20.6269 15.5213 20.6646 15.6086 20.7014 15.67C20.7615 15.7678 20.8351 15.8119 20.93 15.8119C20.9881 15.8119 21.0607 15.7908 21.1401 15.7572C21.3348 15.6661 29.0553 12.1083 30.2193 11.575C30.3869 11.4954 30.7074 11.3544 30.813 11.292C30.9224 11.2306 30.9728 11.1414 30.9728 11.0493C30.9728 10.9966 30.9573 10.9457 30.9292 10.8987C30.783 10.6647 30.0363 9.88003 28.787 9.02344C27.7963 9.56349 26.2468 10.399 23.9428 10.4086C23.3802 10.4086 23.2514 10.3712 22.8659 10.3721C21.7425 10.3769 21.4626 10.8527 21.421 11.8302C21.4132 12.0134 21.4094 12.2608 21.3997 12.5333C21.3648 13.4062 21.2602 14.609 20.5862 15.4148V15.4167Z" fill="#EE7623"/>
</svg>
