<svg width="65" height="18" viewBox="0 0 65 18" fill="none" xmlns="http://www.w3.org/2000/svg">
<g clip-path="url(#clip0_232_79)">
<path d="M8.29095 9.36133C8.29095 9.36133 8.40734 9.76499 7.05305 9.76499H1.78214C1.78214 9.76499 0 9.76499 0 11.3114V16.2518C0 16.2518 0 18 1.31812 18H6.51982C6.51982 18 7.76716 17.5963 7.76716 16.3868V11.8827H5.95042V15.6047C5.95042 15.6047 6.11086 16.3363 5.25518 16.3363H2.31536C2.31536 16.3363 1.72708 16.4373 1.72708 15.857V12.0504C1.72708 12.0504 1.83404 11.5355 2.28862 11.528H7.89928C7.89928 11.528 8.3806 11.5458 8.3806 10.8409V9.36133H8.29095Z" fill="#EA2731"/>
<path d="M10.8768 6.67224V16.3868C10.8768 16.3868 10.8658 18 12.1855 18H14.6786C14.6786 18 15.1772 17.8649 15.1772 17.2936V16.0499L15.119 16.0529C15.119 16.0529 15.1772 16.2859 14.6613 16.2859H12.8178C12.8178 16.2859 12.497 16.3868 12.4702 15.5795L12.5237 6.67224H10.8768Z" fill="#EA2731"/>
<path d="M16.434 6.67224V16.3868C16.434 16.3868 16.423 18 17.7411 18H20.2358C20.2358 18 20.7344 17.8649 20.7344 17.2936V16.0499L20.6762 16.0529C20.6762 16.0529 20.7344 16.2859 20.2185 16.2859H18.375C18.375 16.2859 18.0541 16.3868 18.0274 15.5795L18.0809 6.67224H16.434Z" fill="#EA2731"/>
<path d="M57.5899 1.12634V15.5973C57.5899 15.5973 57.571 18 59.8078 18H64.0374C64.0374 18 64.8836 17.7996 64.8836 16.9492V15.0972C64.8836 15.0972 64.8836 15.4474 64.0075 15.4474H60.8805C60.8805 15.4474 60.3363 15.5973 60.2906 14.3967L60.3819 1.12783H57.5899V1.12634Z" fill="url(#paint0_linear_232_79)"/>
<path fill-rule="evenodd" clip-rule="evenodd" d="M24.0832 9.83187H28.7155V9.83483C30.4977 9.83483 30.3545 12.3384 30.3545 12.3384C30.3545 14.2365 28.9656 14.7411 28.9656 14.7411L24.5488 14.707C23.8001 14.707 24.014 14.9414 24.014 14.9414V15.7146C24.014 16.286 24.4765 16.3528 24.4765 16.3528H29.8197C30.0321 16.3528 30.0242 16.1509 30.0242 16.1509H30.1044V17.1586C30.1044 17.8309 29.6058 17.9986 29.6058 17.9986H23.7639C22.4804 17.9986 22.3027 16.2845 22.3027 16.2845V11.1423C22.3027 9.79773 24.0832 9.83187 24.0832 9.83187ZM28.2153 11.5281H24.5111L24.5095 11.5266C24.1524 11.7106 24.1178 12.2924 24.1178 12.2924C23.9747 12.6708 24.1178 13.0582 24.1178 13.0582H28.2153C28.6794 13.0582 28.7501 12.3354 28.7501 12.3354C28.7501 11.7478 28.2153 11.5281 28.2153 11.5281Z" fill="#EA2731"/>
<path d="M34.2727 7.54634C34.2727 7.54634 34.4142 6.67224 34.8075 6.67224H33.0442C33.0442 6.67224 32.5802 6.73902 32.5802 7.47956V18H34.2459V11.528H38.0131C38.0131 11.528 38.5212 11.5028 38.5212 12.2938V18H40.2042V11.528C40.2042 11.528 40.3788 9.94011 38.5495 9.89856C38.5747 9.89856 38.5243 9.89856 38.5495 9.89856L34.2853 9.90746L34.2727 7.54634Z" fill="#EA2731"/>
<path d="M47.1362 0H44.1429C44.1429 0 43.2353 0.504576 43.2353 1.31041C43.2353 2.11625 43.2353 1.51224 43.2353 1.51224V18H46.1216C46.1216 18 46.5495 17.9332 46.5495 17.4286V12.6559C46.5495 12.6559 46.6564 12.3532 46.9065 12.5892L51.8943 18.0015H55.9918L49.936 11.2446L52.2875 8.38783L48.0485 8.39673L46.9521 9.78283C46.9521 9.78283 46.5778 10.0856 46.5778 9.42963L46.6218 1.39649C46.6218 1.39649 47.1598 0.277517 47.3485 0.129112C47.3485 0.129112 47.3344 0.00148405 47.1377 0.00148405L47.1362 0Z" fill="url(#paint1_linear_232_79)"/>
<path d="M47.7386 8.99927C47.7386 8.99927 47.5247 8.41901 50.1971 8.41901H63.2902C63.2902 8.41901 65 8.01535 65 6.95722V4.53674C65 4.53674 64.7326 5.09178 63.7715 5.09178L51.3909 5.15856C51.3909 5.15856 51.177 5.09178 50.4283 5.7967C50.4283 5.7967 47.5781 8.43533 47.7386 8.99779V8.99927Z" fill="url(#paint2_linear_232_79)"/>
</g>
<defs>
<linearGradient id="paint0_linear_232_79" x1="61.236" y1="0.470394" x2="61.236" y2="15.5483" gradientUnits="userSpaceOnUse">
<stop offset="0.05" stop-color="#1C1C1C"/>
<stop offset="0.51" stop-color="#0F0F0F"/>
<stop offset="0.72" stop-color="#5E5E5E"/>
<stop offset="0.74" stop-color="#4E4E4E"/>
<stop offset="0.81" stop-color="#2B2B2B"/>
<stop offset="0.87" stop-color="#151515"/>
<stop offset="0.91" stop-color="#0E0E0E"/>
</linearGradient>
<linearGradient id="paint1_linear_232_79" x1="49.5538" y1="0.893396" x2="49.6014" y2="16.6243" gradientUnits="userSpaceOnUse">
<stop offset="0.05" stop-color="#1C1C1C"/>
<stop offset="0.51" stop-color="#0F0F0F"/>
<stop offset="0.72" stop-color="#5E5E5E"/>
<stop offset="0.74" stop-color="#4E4E4E"/>
<stop offset="0.81" stop-color="#2B2B2B"/>
<stop offset="0.87" stop-color="#151515"/>
<stop offset="0.91" stop-color="#0E0E0E"/>
</linearGradient>
<linearGradient id="paint2_linear_232_79" x1="52.5738" y1="3.79472" x2="63.3948" y2="13.3211" gradientUnits="userSpaceOnUse">
<stop stop-color="#8E191C"/>
<stop offset="0.05" stop-color="#ED3035"/>
<stop offset="0.31" stop-color="#EB2230"/>
<stop offset="0.7" stop-color="#E94025"/>
<stop offset="0.99" stop-color="#56100F"/>
</linearGradient>
<clipPath id="clip0_232_79">
<rect width="65" height="18" fill="white"/>
</clipPath>
</defs>
</svg>
