<?xml version="1.0" encoding="UTF-8"?>
<svg id="Layer_2" data-name="Layer 2" xmlns="http://www.w3.org/2000/svg" viewBox="0 0 107.73 31.42">
  <defs>
    <style>
      .cls-1, .cls-2 {
        stroke-width: 0px;
      }

      .cls-1, .cls-3 {
        fill: #397eaa;
      }

      .cls-2 {
        fill: #ff9300;
      }

      .cls-3 {
        font-family: Roboto-Medium, Roboto;
        font-size: 5.01px;
        font-weight: 500;
      }
    </style>
  </defs>
  <g id="Layer_1-2" data-name="Layer 1">
    <g>
      <g>
        <path class="cls-1" d="M11.13,24.88c0,.24-.08.45-.25.63-.17.18-.38.27-.62.27h-2.91c-.25,0-.45-.09-.62-.27-.17-.18-.25-.39-.25-.63V6.67L1.44,1.48C.48,2.48,0,3.97,0,5.96v18.2c0,3.97,1.91,5.96,5.73,5.96h6.14c3.82,0,5.73-1.99,5.73-5.96v-6l-6.46-6.67v13.4Z"/>
        <path class="cls-1" d="M34.22,30.12c3.82,0,5.73-2.05,5.73-6.15v-4.96l-10.76,11.11h5.03Z"/>
        <polygon class="cls-1" points="22.35 30.12 29.18 30.12 22.35 23.07 22.35 30.12"/>
        <polygon class="cls-1" points="44.74 30.12 58.37 30.12 58.37 24.72 51.21 24.72 51.21 17.51 57.9 17.51 57.9 12.39 51.21 12.39 51.21 7.39 44.74 14.06 44.74 30.12"/>
        <polygon class="cls-1" points="53.22 5.31 58.37 5.31 58.37 0 58.37 0 53.22 5.31"/>
      </g>
      <g>
        <path class="cls-2" d="M11.87,0h-6.14C3.82,0,2.39.5,1.44,1.48l5.03,5.19v-1.48c0-.24.08-.45.25-.63.17-.18.38-.27.62-.27h2.91c.25,0,.45.09.62.27.17.18.25.39.25.63v6.29l6.46,6.67V5.96c0-3.97-1.91-5.96-5.73-5.96Z"/>
        <path class="cls-2" d="M34.22,0h-11.87v23.07l6.83,7.05,10.76-11.11V6.15C39.94,2.05,38.03,0,34.22,0ZM33.48,24.72c0,.25-.08.47-.25.65-.17.19-.38.28-.62.28h-3.79V4.42h3.79c.25,0,.45.09.62.28.17.19.25.4.25.65v19.37Z"/>
        <polygon class="cls-2" points="44.74 0 44.74 14.06 51.21 7.39 51.21 5.31 53.22 5.31 58.37 0 44.74 0"/>
      </g>
      <g>
        <text class="cls-3" transform="translate(62.13 30.06) scale(1.1 1)"><tspan x="0" y="0">odecompany.co.kr</tspan></text>
        <g>
          <path class="cls-2" d="M63.97,17.66c.35,0,.67.07.94.21.28.14.49.34.65.59.16.25.24.54.24.86s-.08.61-.24.86c-.16.25-.38.45-.65.59-.28.14-.59.21-.94.21s-.66-.07-.94-.21c-.28-.14-.5-.34-.66-.59-.16-.25-.24-.54-.24-.86s.08-.61.24-.86c.16-.25.38-.45.66-.59s.59-.21.94-.21ZM63.97,18.2c-.23,0-.43.05-.62.14-.18.09-.33.23-.43.4-.11.17-.16.36-.16.58s.05.42.16.59c.11.17.25.3.43.39s.39.14.62.14.44-.05.62-.14c.18-.09.33-.23.43-.39.1-.17.16-.36.16-.59s-.05-.41-.16-.58c-.1-.17-.25-.3-.43-.4-.18-.09-.39-.14-.62-.14ZM63.22,21.62h.65v1.84h-.65v-1.84ZM63.22,23.29h4.75v.51h-4.75v-.51ZM67.1,17.19h.65v4.94h-.65v-4.94Z"/>
          <path class="cls-2" d="M69.47,17.8h3.26v.51h-2.62v3.68h-.64v-4.19ZM69.47,21.82h.53c.45,0,.84,0,1.19-.02.35,0,.68-.03.99-.06.31-.03.64-.07.96-.13l.07.51c-.34.05-.67.1-.99.13-.32.03-.66.05-1.02.06s-.76.02-1.21.02h-.53v-.52ZM69.95,19.7h2.47v.5h-2.47v-.5ZM72.84,19.73h1.56v.51h-1.56v-.51ZM74.3,17.18h.64v6.78h-.64v-6.78Z"/>
          <path class="cls-2" d="M76.69,17.79h.64v2.82h-.64v-2.82ZM76.69,20.4h.44c.39,0,.79-.01,1.18-.04.39-.03.82-.09,1.26-.18l.07.51c-.46.09-.9.16-1.3.19-.4.03-.81.04-1.22.04h-.44v-.52ZM79.6,21.42h.55v.24c0,.3-.07.57-.22.82s-.34.47-.6.67c-.25.19-.54.36-.86.49-.32.13-.66.23-1.01.28l-.24-.49c.24-.03.48-.09.72-.16.24-.07.45-.17.65-.28s.38-.24.53-.37c.15-.14.27-.29.35-.45.08-.16.12-.33.12-.5v-.24ZM78.76,18.73h1.82v.5h-1.82v-.5ZM79.69,21.42h.55v.24c0,.17.04.34.13.5.09.16.2.31.35.45.15.14.33.26.53.37s.42.21.65.28c.24.07.48.13.72.16l-.24.49c-.35-.05-.69-.15-1.02-.28-.32-.13-.61-.3-.86-.49-.25-.19-.45-.42-.6-.67s-.22-.52-.22-.82v-.24ZM80.25,17.32h.61v3.84h-.61v-3.84ZM81.66,17.19h.62v4.58h-.62v-4.58Z"/>
          <path class="cls-2" d="M86.81,23.37v-4.9h-1.73v-.58h4.18v.58h-1.73v4.9h-.72Z"/>
          <path class="cls-2" d="M91.34,23.37l-1.82-5.48h.76l.93,2.97c.1.32.19.62.27.9.08.28.18.58.28.91h.03c.11-.32.2-.63.28-.91.08-.28.17-.58.27-.9l.92-2.97h.73l-1.82,5.48h-.83Z"/>
          <path class="cls-2" d="M97.34,17.9h.63c0,.64-.11,1.26-.33,1.84-.22.59-.56,1.13-1.03,1.62s-1.08.93-1.85,1.29l-.36-.48c.65-.31,1.2-.68,1.63-1.1.43-.42.76-.89.97-1.41.22-.52.32-1.07.32-1.67v-.1ZM94.74,17.9h2.93v.52h-2.93v-.52ZM99.14,17.18h.65v6.76h-.65v-6.76ZM99.62,19.92h1.29v.52h-1.29v-.52Z"/>
          <path class="cls-2" d="M103.54,17.5c.36,0,.68.07.95.2.28.13.49.32.65.55s.24.51.24.82-.08.57-.24.81-.38.42-.65.55c-.28.13-.59.19-.95.19s-.67-.06-.95-.19c-.28-.13-.5-.31-.65-.55s-.24-.51-.24-.81.08-.58.24-.82.38-.42.65-.55c.28-.13.59-.2.95-.2ZM103.54,18.02c-.23,0-.44.04-.62.13-.18.09-.32.21-.43.37-.1.16-.16.34-.16.54s.05.38.16.53.25.28.43.37c.18.09.39.13.62.13s.44-.04.62-.13c.18-.09.32-.21.43-.37.1-.16.16-.34.16-.53s-.05-.39-.16-.54c-.1-.16-.25-.28-.43-.37-.18-.09-.39-.13-.62-.13ZM102.78,21.15h.63v.82h3.26v-.82h.64v2.71h-4.54v-2.71ZM103.41,22.46v.89h3.26v-.89h-3.26ZM106.67,17.18h.65v3.64h-.65v-3.64Z"/>
        </g>
      </g>
    </g>
  </g>
</svg>