<svg width="64" height="20" viewBox="0 0 64 20" fill="none" xmlns="http://www.w3.org/2000/svg">
<path d="M8.92162 9.46216H8.83584C8.5544 9.46216 8.28952 9.5927 8.11795 9.81627C8.11043 9.82528 8.10441 9.83428 8.09688 9.84478C8.00357 9.85829 7.8621 9.87029 7.6514 9.87029H2.60816C1.56068 9.87029 0 10.526 0 12.3341V17.3292C0 17.3907 0.00602004 17.9429 0.209195 18.5146C0.544809 19.4569 1.25818 19.9971 2.16268 19.9971H7.13971C7.23904 19.9971 7.33837 19.9806 7.43318 19.9491C8.1029 19.7195 9.23617 18.9392 9.23617 17.4658V13.1894C9.56275 12.9463 9.82462 12.5232 9.82462 11.8584V10.3625C9.82462 9.86579 9.41978 9.46216 8.92162 9.46216ZM3.45848 16.5145V13.4535H5.6919V16.5145H3.45848Z" fill="white"/>
<path d="M28.3782 9.93782C28.3782 9.93782 23.9385 9.93782 23.9354 9.93782C22.6848 9.93782 21.3393 10.6341 21.3393 12.163V16.4529C21.1738 16.3074 20.9631 16.2249 20.7418 16.2249C20.7268 16.2249 20.7117 16.2249 20.6967 16.2249L20.641 16.2279C20.4303 16.2384 20.2316 16.3224 20.0781 16.4619H19.0562L19.1059 7.64808C19.1059 7.408 19.0126 7.17843 18.8425 7.00887C18.6725 6.83932 18.4422 6.74329 18.2029 6.74329H16.6287C16.1305 6.74329 15.7257 7.14692 15.7257 7.64358V16.2789C15.6294 16.2444 15.5285 16.2249 15.4262 16.2249C15.4111 16.2249 15.3961 16.2249 15.381 16.2249L15.3254 16.2279C15.1147 16.2384 14.916 16.3224 14.7625 16.4619H13.7406L13.7903 7.64808C13.7903 7.408 13.6969 7.17843 13.5269 7.00887C13.3568 6.83932 13.1266 6.74329 12.8873 6.74329H11.313C10.8149 6.74329 10.41 7.14692 10.41 7.64358V17.4598C10.41 17.5858 10.4236 18.7052 11.1385 19.4224C11.5132 19.7975 12.0053 19.9971 12.5637 19.9971H14.9506C15.0349 19.9971 15.1177 19.9851 15.1989 19.9626C15.5782 19.8545 15.977 19.5499 16.1847 19.0848C16.2615 19.2033 16.3503 19.3174 16.4571 19.4239C16.8319 19.799 17.324 19.9986 17.8823 19.9986H20.2693C20.3536 19.9986 20.4363 19.9866 20.5176 19.9641C21.0248 19.82 21.5666 19.3249 21.6403 18.5611C21.9985 19.3609 22.6682 19.9986 23.645 19.9986H29.2345C29.3384 19.9986 29.4407 19.9806 29.5385 19.9461C29.9389 19.8035 30.6146 19.2859 30.6146 18.249V17.2302C30.6146 16.7335 30.2098 16.3299 29.7116 16.3299H29.6349C29.5852 16.3299 29.534 16.3344 29.4859 16.3419C30.1345 15.8693 30.8464 14.9299 30.8539 13.3949C30.866 13.1159 30.89 11.5508 30.0051 10.6205C29.5822 10.1764 29.0223 9.94083 28.3827 9.94083L28.3782 9.93782Z" fill="white"/>
<path d="M37.8101 10.0053L34.606 10.0113L34.5985 8.60539C34.6105 8.55137 34.6271 8.48535 34.6451 8.42983C34.922 8.27678 35.1087 7.98119 35.1087 7.64358C35.1087 7.14692 34.7038 6.74329 34.2057 6.74329H32.5186C32.4719 6.74329 32.4268 6.74629 32.3816 6.75379C31.4244 6.90084 31.1731 7.93317 31.1731 8.45984V19.0968C31.1731 19.5935 31.5779 19.9971 32.0761 19.9971H33.6699C34.168 19.9971 34.5729 19.5935 34.5729 19.0968V13.4535H36.8575V19.0968C36.8575 19.5935 37.2623 19.9971 37.7605 19.9971H39.3708C39.869 19.9971 40.2738 19.5935 40.2738 19.0968V12.5862C40.2889 12.3371 40.2919 11.4788 39.6899 10.7961C39.3829 10.4495 38.8079 10.0294 37.8101 10.0068V10.0053Z" fill="white"/>
<path d="M61.4596 10.3114C61.5333 10.3114 61.6071 10.3023 61.6793 10.2843C62.5417 10.0698 64 9.33303 64 7.93308V5.48578C64 5.06265 63.7035 4.69503 63.2881 4.6065C63.2249 4.59299 63.1602 4.58549 63.097 4.58549C62.7719 4.58549 62.4679 4.76105 62.3084 5.04914C62.2843 5.07165 62.185 5.14667 61.9171 5.14667L59.5618 5.16018L59.5813 2.04216C59.5813 1.80209 59.488 1.57251 59.3195 1.40146C59.1494 1.2319 58.9191 1.13587 58.6783 1.13587H56.007C55.5088 1.13587 55.104 1.5395 55.104 2.03616V5.18569L50.1134 5.2142C50.0953 5.2142 50.0773 5.2142 50.0577 5.2142C49.6168 5.2142 49.1562 5.48728 48.5211 6.11899C48.2457 6.38908 47.1139 7.50994 46.3795 8.46725L46.4111 2.51032C46.5872 2.13669 46.7768 1.77058 46.8581 1.65054C47.0402 1.45997 47.1305 1.19889 47.1034 0.934804C47.0552 0.469653 46.6609 0 46.0033 0H43.1392C42.9782 0 42.8202 0.0435141 42.6817 0.12454C42.5478 0.204066 41.3679 0.933303 41.3679 2.22522V19.0997C41.3679 19.5964 41.7727 20 42.2709 20H45.0325C45.0822 20 45.1319 19.9955 45.18 19.988C45.7579 19.892 46.3434 19.3578 46.3434 18.522V15.6441L49.8726 19.6909C50.0442 19.8875 50.2925 20 50.5544 20H54.4749C54.827 20 55.1461 19.7959 55.2936 19.4793C55.4411 19.1612 55.3914 18.7861 55.1642 18.519L49.8425 12.2455L51.346 10.3159H55.104V16.6644C55.104 16.8235 55.1205 18.2399 56.0702 19.1942C56.5954 19.7209 57.3073 20 58.1275 20H62.1744C62.2482 20 62.3219 19.991 62.3942 19.973C62.9104 19.844 63.8856 19.2723 63.8856 18.0374V16.1648C63.8856 15.6681 63.4808 15.2645 62.9826 15.2645C62.6922 15.2645 62.4333 15.401 62.2678 15.6141C62.2346 15.6171 62.194 15.6186 62.1428 15.6186H59.5046C59.4986 15.5691 59.494 15.5105 59.491 15.4415L59.5241 10.3144H61.4566L61.4596 10.3114Z" fill="white"/>
<path d="M8.83596 10.1462C8.83596 10.1462 8.94733 10.5544 7.65152 10.5544H2.60677C2.60677 10.5544 0.901611 10.5544 0.901611 12.1179V17.113C0.901611 17.113 0.901611 18.8806 2.1628 18.8806H7.13982C7.13982 18.8806 8.33329 18.4724 8.33329 17.2495V12.6956H6.59501V16.4588C6.59501 16.4588 6.74852 17.1985 5.92981 17.1985H3.11697C3.11697 17.1985 2.5541 17.3006 2.5541 16.7139V12.8651C2.5541 12.8651 2.65644 12.3445 3.09138 12.337H8.45971C8.45971 12.337 8.92024 12.355 8.92024 11.6422V10.1462H8.83445H8.83596Z" fill="#EA2731"/>
<path d="M11.3099 7.42737V17.2496C11.3099 17.2496 11.2994 18.8806 12.5621 18.8806H14.9475C14.9475 18.8806 15.4246 18.744 15.4246 18.1664V16.9089L15.3689 16.912C15.3689 16.912 15.4246 17.1475 14.931 17.1475H13.1671C13.1671 17.1475 12.8601 17.2496 12.8345 16.4333L12.8857 7.42737H11.3099Z" fill="#EA2731"/>
<path d="M16.6272 7.42737V17.2496C16.6272 17.2496 16.6167 18.8806 17.8779 18.8806H20.2648C20.2648 18.8806 20.7419 18.744 20.7419 18.1664V16.9089L20.6862 16.912C20.6862 16.912 20.7419 17.1475 20.2482 17.1475H18.4844C18.4844 17.1475 18.1773 17.2496 18.1518 16.4333L18.2029 7.42737H16.6272Z" fill="#EA2731"/>
<path d="M56.0056 1.82007V16.4513C56.0056 16.4513 55.9876 18.8806 58.1277 18.8806H62.1746C62.1746 18.8806 62.9843 18.678 62.9843 17.8183V15.9457C62.9843 15.9457 62.9843 16.2998 62.146 16.2998H59.1541C59.1541 16.2998 58.6333 16.4513 58.5897 15.2374L58.677 1.82157H56.0056V1.82007Z" fill="url(#paint0_linear_242_148)"/>
<path d="M24.39 15.5511L28.616 15.5856C28.616 15.5856 29.9449 15.0754 29.9449 13.1563C29.9449 13.1563 30.0819 10.625 28.3767 10.625H23.9445C23.9445 10.625 22.2408 10.5904 22.2408 11.9499V17.1491C22.2408 17.1491 22.4109 18.8821 23.639 18.8821H29.2285C29.2285 18.8821 29.7056 18.7126 29.7056 18.0329V17.014H29.6289C29.6289 17.014 29.6364 17.2181 29.4332 17.2181H24.3208C24.3208 17.2181 23.8783 17.1506 23.8783 16.5729V15.7911C23.8783 15.7911 23.6736 15.5541 24.39 15.5541V15.5511ZM23.9806 13.1113C23.9806 13.1113 24.0137 12.5231 24.3554 12.337H27.8996C27.8996 12.337 28.4113 12.5591 28.4113 13.1533C28.4113 13.1533 28.3436 13.884 27.8996 13.884H23.9791C23.9791 13.884 23.8422 13.4924 23.9791 13.1098L23.9806 13.1113Z" fill="#EA2731"/>
<path d="M33.6953 8.31262C33.6953 8.31262 33.8308 7.42883 34.207 7.42883H32.5199C32.5199 7.42883 32.0759 7.49636 32.0759 8.2451V18.8821H33.6697V12.3384H37.2742C37.2742 12.3384 37.7603 12.3129 37.7603 13.1127V18.8821H39.3706V12.3384C39.3706 12.3384 39.5377 10.7329 37.7874 10.6909C37.8115 10.6909 37.7633 10.6909 37.7874 10.6909L33.7073 10.6999L33.6953 8.31262Z" fill="#EA2731"/>
<path d="M46.0033 0.681274H43.1393C43.1393 0.681274 42.2709 1.19144 42.2709 2.00621C42.2709 2.82097 42.2709 2.21027 42.2709 2.21027V18.8807H45.0325C45.0325 18.8807 45.4419 18.8132 45.4419 18.303V13.4774C45.4419 13.4774 45.5442 13.1713 45.7835 13.4099L50.5559 18.8822H54.4764L48.6822 12.0505L50.9321 9.16203L46.8762 9.17103L45.8272 10.5725C45.8272 10.5725 45.469 10.8786 45.469 10.2154L45.5111 2.09323C45.5111 2.09323 46.0258 0.961866 46.2064 0.811817C46.2064 0.811817 46.1929 0.682775 46.0048 0.682775L46.0033 0.681274Z" fill="url(#paint1_linear_242_148)"/>
<path d="M46.5797 9.78162C46.5797 9.78162 46.3751 9.19493 48.932 9.19493H61.4596C61.4596 9.19493 63.0956 8.7868 63.0956 7.71695V5.26965C63.0956 5.26965 62.8397 5.83084 61.9202 5.83084L50.0743 5.89836C50.0743 5.89836 49.8697 5.83084 49.1533 6.54357C49.1533 6.54357 46.4262 9.21143 46.5797 9.78012V9.78162Z" fill="url(#paint2_linear_242_148)"/>
<defs>
<linearGradient id="paint0_linear_242_148" x1="59.4942" y1="1.15835" x2="59.4942" y2="16.4033" gradientUnits="userSpaceOnUse">
<stop offset="0.05" stop-color="#1C1C1C"/>
<stop offset="0.51" stop-color="#0F0F0F"/>
<stop offset="0.72" stop-color="#5E5E5E"/>
<stop offset="0.74" stop-color="#4E4E4E"/>
<stop offset="0.81" stop-color="#2B2B2B"/>
<stop offset="0.87" stop-color="#151515"/>
<stop offset="0.91" stop-color="#0E0E0E"/>
</linearGradient>
<linearGradient id="paint1_linear_242_148" x1="48.3164" y1="1.58457" x2="48.3673" y2="17.4897" gradientUnits="userSpaceOnUse">
<stop offset="0.05" stop-color="#1C1C1C"/>
<stop offset="0.51" stop-color="#0F0F0F"/>
<stop offset="0.72" stop-color="#5E5E5E"/>
<stop offset="0.74" stop-color="#4E4E4E"/>
<stop offset="0.81" stop-color="#2B2B2B"/>
<stop offset="0.87" stop-color="#151515"/>
<stop offset="0.91" stop-color="#0E0E0E"/>
</linearGradient>
<linearGradient id="paint2_linear_242_148" x1="51.2061" y1="4.51791" x2="62.0545" y2="13.5558" gradientUnits="userSpaceOnUse">
<stop stop-color="#8E191C"/>
<stop offset="0.05" stop-color="#ED3035"/>
<stop offset="0.31" stop-color="#EB2230"/>
<stop offset="0.7" stop-color="#E94025"/>
<stop offset="0.99" stop-color="#56100F"/>
</linearGradient>
</defs>
</svg>
