<svg width="1148" height="1039" viewBox="0 0 1148 1039" fill="none" xmlns="http://www.w3.org/2000/svg">
<g clip-path="url(#clip0_90_932)">
<path d="M742.668 929.61C712.57 867.311 661.489 843.153 611.721 849.274C561.954 855.394 515.931 923.11 492.418 991.994C459.748 919.311 407.098 878.074 355.678 884.869C304.257 891.665 246.619 958.48 220.054 1038.99C215.023 934.408 193.997 872.784 153.768 830.224C113.538 787.664 60.5209 789.281 18.4404 790.52C56.6633 738.35 88.3438 663.177 99.3655 576.903C110.401 490.629 95.4796 395.239 81.6459 315.409C128.545 387.022 192.203 449.462 252.582 417.328C312.961 385.193 360.779 285.441 370.133 172.111C399.383 253.981 448.133 311.54 501.758 311.596C555.369 311.638 617.543 245.99 646.836 164.176C671.083 240.278 710.465 299.989 755.937 329.633C801.423 359.277 852.646 358.616 897.891 327.804C872.287 385.503 857.577 463.166 864.614 537.326C871.651 611.472 898.668 669.959 934.56 714.334C890.346 707.44 852.137 720.637 817.503 759.496C782.869 798.356 755.951 859.544 742.668 929.61Z" fill="#231916"/>
<path d="M728.537 899.572C698.44 837.272 647.358 813.115 597.591 819.235C547.823 825.356 501.8 893.072 478.287 961.956C445.618 889.273 392.968 848.036 341.547 854.831C290.126 861.627 232.488 928.442 205.923 1008.95C200.892 904.37 179.866 842.745 139.637 800.185C99.4075 757.625 46.39 759.243 4.30957 760.481C42.5324 708.312 74.2129 633.139 85.2346 546.865C96.2705 460.591 81.3488 365.2 67.5151 285.37C114.414 356.984 178.072 419.424 238.451 387.289C298.83 355.155 346.648 255.403 356.002 142.073C385.252 223.943 434.002 281.501 487.627 281.558C541.238 281.6 603.412 215.952 632.705 134.138C656.953 210.24 696.334 269.95 741.806 299.595C787.292 329.239 838.515 328.578 883.76 297.766C858.156 355.464 843.446 433.128 850.483 507.288C857.52 581.434 884.538 639.92 920.429 684.295C876.215 677.401 838.006 690.598 803.372 729.458C768.739 768.318 741.82 829.506 728.537 899.572Z" fill="#FAED00"/>
<path d="M732.198 897.433C711.751 855.549 675.69 821.233 627.873 815.099C607.285 812.454 586.484 814.705 568.228 824.99C547.089 836.907 530.387 855.844 516.624 875.457C498.31 901.556 484.519 930.792 474.19 960.844L481.933 959.831C460.822 913.191 423.786 861.641 369.766 851.539C348.076 847.487 326.88 851.637 307.705 862.316C284.842 875.049 266.048 894.338 250.279 914.908C228.928 942.779 212.861 974.604 201.811 1007.84L210.134 1008.96C207.577 956.891 201.585 903.131 180.432 854.887C162.161 813.214 130.876 775.873 85.7155 762.775C59.2775 755.107 31.5535 755.473 4.2959 756.275L7.95569 762.62C42.872 714.77 66.1449 658.52 79.6818 601.145C95.6069 533.612 95.6634 464.742 88.1601 396.083C84.0623 358.616 78.0286 321.388 71.5992 284.259L63.8557 287.509C84.5568 319.025 108.254 350.034 138.281 373.333C161.978 391.707 191.779 405.538 222.315 398.039C248.654 391.567 270.697 371.067 287.131 350.498C307.281 325.271 322.033 296.134 333.295 265.997C348.146 226.251 356.709 184.282 360.256 142.073L351.933 143.199C362.927 173.8 377.085 203.754 396.755 229.824C412.157 250.225 431.262 269.05 455.227 279.039C476.267 287.805 498.833 287.593 519.859 278.913C544.63 268.684 565.515 250.239 582.683 230.092C606.465 202.192 624.396 169.621 636.789 135.25H628.607C643.176 180.694 663.962 225.083 694.582 262.086C722.688 296.049 761.349 323.738 806.948 325.482C835.237 326.566 862.622 317.055 885.895 301.396L880.101 295.627C857.577 346.671 846.089 402.752 844.634 458.411C843.192 513.478 852.561 568.954 875.396 619.309C886.446 643.677 900.647 666.427 917.434 687.278L921.56 680.229C902.06 677.275 882.164 677.683 863.229 683.578C843.546 689.712 826.052 701.151 811.215 715.276C781.089 743.908 760.826 781.937 746.243 820.347C736.635 845.658 729.541 871.869 724.468 898.446C723.451 903.751 731.618 906.03 732.65 900.697C740.902 857.504 754.368 814.747 775.875 776.197C794.456 742.867 820.584 709.494 857.054 694.735C876.837 686.729 898.329 685.196 919.313 688.376C923.595 689.023 926.181 684.732 923.439 681.327C893.454 644.099 872.88 600.174 862.212 553.717C849.523 498.466 850.399 440.303 861.294 384.827C867.002 355.746 875.466 327.072 887.449 299.918C888.975 296.471 885.555 291.519 881.655 294.15C861.435 307.755 838.233 316.675 813.646 317.139C789.313 317.604 765.772 309.851 745.381 296.879C711.878 275.536 687.107 242.149 668.356 207.778C655.37 183.972 645.083 158.83 636.831 133.041C635.517 128.932 630.063 129.143 628.65 133.041C618.094 162.305 603.271 190.233 584.238 214.911C568.27 235.593 548.855 254.868 525.469 267.08C506.563 276.957 485.777 280.306 465.189 273.763C442.509 266.56 423.914 249.901 409.091 231.893C387.118 205.217 371.744 173.293 360.143 140.976C358.504 136.431 352.216 137.29 351.82 142.101C346.21 208.776 327.996 278.364 289.137 333.868C274.654 354.55 256.143 374.472 232.912 385.418C205.513 398.334 176.15 389.273 152.341 373.178C118.823 350.498 93.1482 316.675 71.2177 283.288C68.4905 279.152 62.6546 281.881 63.4742 286.538C74.9481 352.819 85.3623 419.748 84.8536 487.183C84.359 552.24 71.4862 617.17 46.1362 677.19C34.0546 705.794 19.0198 733.271 0.692636 758.385C-1.21497 761.002 1.35677 764.829 4.35242 764.73C27.6394 764.041 51.209 763.506 74.1003 768.529C99.7188 774.143 122.017 786.89 139.581 806.334C166.994 836.682 182.015 875.274 190.507 914.739C197.177 945.72 200.172 977.362 201.727 1008.98C201.967 1013.76 208.537 1014.67 210.049 1010.1C219.474 981.766 232.715 954.668 249.728 930.074C264.268 909.055 281.931 889.16 303.381 874.908C320.677 863.413 339.936 856.716 360.892 858.742C383.119 860.881 403.622 872.263 420.183 886.712C444.247 907.704 461.628 935.28 474.67 964.108C476.295 967.682 481.354 966.191 482.414 963.095C491.16 937.658 502.507 913.036 516.949 890.286C529.567 870.392 544.884 850.962 564.441 837.385C572.481 831.813 581.27 827.241 590.794 824.821C600.318 822.401 610.012 822.19 619.536 822.753C639.332 823.921 658.451 830.561 674.941 841.479C697.168 856.21 713.362 878.032 724.921 901.71C727.309 906.593 734.614 902.315 732.24 897.447L732.198 897.433Z" fill="#231916"/>
<path d="M573.3 402.245C573.3 402.245 463.238 375.977 387.386 399.122V113.4C387.386 79.45 359.747 51.9302 325.65 51.9302C291.553 51.9302 263.914 79.45 263.914 113.4V657.971C263.914 808.711 367.038 890.778 367.038 890.778V1010.14H633.1V875.851C633.1 875.851 748.603 772.595 748.603 598.542C748.603 424.489 573.286 402.245 573.286 402.245H573.3Z" fill="white"/>
<path d="M633.115 1018.59H367.052C362.375 1018.59 358.574 1014.8 358.574 1010.14V894.676C350.704 887.796 329.607 867.901 308.383 835.514C284.234 798.638 255.45 737.914 255.45 657.971V113.4C255.45 74.8493 286.947 43.4885 325.664 43.4885C364.382 43.4885 395.879 74.8493 395.879 113.4V388.063C426.683 380.663 464.878 379.157 509.643 383.589C544.715 387.064 571.054 393.03 574.855 393.916C580.055 394.634 622.503 401.176 665.473 427.95C707.271 454.007 757.109 504.755 757.109 598.528C757.109 692.301 725.033 762.493 698.143 806.826C673.839 846.868 649.718 871.672 641.621 879.495V1010.14C641.621 1014.8 637.82 1018.59 633.143 1018.59H633.115ZM375.531 1001.7H624.636V875.851C624.636 873.459 625.654 871.166 627.448 869.576C627.731 869.323 656.034 843.688 683.928 797.568C709.56 755.177 740.125 686.237 740.125 598.542C740.125 529.686 712.146 477.207 656.953 442.596C615.183 416.399 572.636 410.673 572.212 410.617C571.916 410.574 571.605 410.518 571.322 410.448C570.248 410.194 462.588 385.01 389.873 407.198C387.301 407.986 384.518 407.507 382.342 405.917C380.18 404.327 378.908 401.809 378.908 399.136V113.4C378.908 84.1633 355.013 60.3719 325.65 60.3719C296.287 60.3719 272.393 84.1633 272.393 113.4V657.971C272.393 733.468 299.481 790.871 322.217 825.735C346.973 863.695 372.097 883.997 372.337 884.194C374.344 885.798 375.517 888.218 375.517 890.778V1001.7H375.531Z" fill="black"/>
<path d="M528.032 390.61C538.086 358.171 519.826 323.759 487.246 313.748C454.666 303.738 420.105 321.92 410.051 354.359L361.108 512.27C351.054 544.709 369.315 579.122 401.895 589.132C434.475 599.143 469.036 580.961 479.09 548.522L528.032 390.61Z" fill="white"/>
<path d="M420.225 600.301C413.273 600.301 406.279 599.26 399.439 597.163C381.522 591.662 366.826 579.534 358.065 563.031C349.305 546.527 347.524 527.604 353.049 509.764L401.983 351.848C407.508 334.008 419.688 319.376 436.263 310.653C452.852 301.93 471.844 300.157 489.761 305.658C526.755 317.027 547.569 356.238 536.151 393.072L487.218 550.987C481.693 568.827 469.512 583.46 452.937 592.183C442.679 597.571 431.501 600.315 420.225 600.315V600.301ZM469.103 319.418C446.352 319.418 425.227 334.065 418.176 356.815L369.243 514.73C365.046 528.265 366.402 542.616 373.044 555.138C379.685 567.66 390.834 576.861 404.427 581.026C418.021 585.204 432.434 583.853 445.01 577.241C457.586 570.628 466.827 559.527 471.01 545.993L519.944 388.077C528.606 360.135 512.822 330.393 484.759 321.782C479.545 320.178 474.274 319.418 469.088 319.418H469.103Z" fill="black"/>
<path d="M645.919 427.898C655.973 395.459 637.712 361.047 605.133 351.037C572.553 341.026 537.991 359.208 527.937 391.647L486.962 523.854C476.908 556.293 495.169 590.705 527.748 600.716C560.328 610.726 594.89 592.544 604.944 560.105L645.919 427.898Z" fill="white"/>
<path d="M546.071 611.908C539.119 611.908 532.124 610.867 525.285 608.771C488.291 597.402 467.477 558.191 478.895 521.357L519.873 389.132C525.398 371.292 537.578 356.66 554.153 347.937C570.728 339.214 589.734 337.441 607.651 342.942C625.569 348.444 640.264 360.572 649.025 377.075C657.786 393.578 659.566 412.502 654.041 430.342L613.063 562.566C607.538 580.407 595.358 595.039 578.783 603.762C568.524 609.164 557.347 611.894 546.071 611.894V611.908ZM530.287 592.633C543.881 596.811 558.294 595.461 570.87 588.848C583.446 582.236 592.687 571.135 596.87 557.6L637.848 425.375C642.045 411.841 640.688 397.49 634.047 384.968C627.406 372.446 616.257 363.245 602.663 359.08C589.07 354.902 574.657 356.252 562.081 362.865C549.504 369.477 540.263 380.578 536.081 394.113L495.102 526.338C486.44 554.28 502.224 584.022 530.287 592.633Z" fill="black"/>
<path d="M754.337 488.823C764.391 456.384 746.13 421.972 713.55 411.961C680.971 401.951 646.409 420.133 636.355 452.572L609.805 538.236C599.751 570.675 618.012 605.088 650.592 615.098C683.171 625.109 717.733 606.927 727.787 574.488L754.337 488.823Z" fill="white"/>
<path d="M668.794 626.245C661.955 626.245 655.003 625.246 648.135 623.135C611.142 611.767 590.328 572.556 601.745 535.722L628.296 450.053C633.821 432.213 646.002 417.581 662.577 408.858C679.152 400.135 698.157 398.362 716.075 403.863C753.068 415.231 773.882 454.443 762.465 491.277L735.914 576.945C726.616 606.941 698.779 626.245 668.78 626.245H668.794ZM653.138 606.998C681.201 615.622 711.072 599.907 719.72 571.965L746.271 486.296C754.933 458.354 739.15 428.611 711.087 420.001C697.493 415.822 683.08 417.173 670.504 423.785C657.928 430.398 648.686 441.499 644.504 455.034L617.953 540.703C613.756 554.237 615.113 568.588 621.754 581.11C628.395 593.632 639.544 602.833 653.138 606.998Z" fill="black"/>
<path d="M319.15 599.048L362.941 527.308L498.254 431.622C526.048 411.967 564.582 418.467 584.337 446.142C604.077 473.816 597.548 512.184 569.754 531.853L434.441 627.539L397.334 692.624" fill="white"/>
<path d="M397.306 701.08C395.893 701.08 394.452 700.728 393.123 699.983C389.054 697.675 387.627 692.526 389.93 688.474L427.036 623.389C427.644 622.319 428.492 621.391 429.495 620.673L564.808 524.987C576.409 516.784 584.096 504.572 586.484 490.615C588.858 476.658 585.637 462.603 577.399 451.052C569.16 439.501 556.895 431.847 542.878 429.47C528.86 427.106 514.744 430.314 503.143 438.516L369.257 533.204L326.385 603.452C323.955 607.434 318.741 608.7 314.742 606.28C310.743 603.86 309.471 598.669 311.902 594.687L355.692 522.947C356.285 521.962 357.091 521.118 358.023 520.443L493.337 424.756C508.626 413.937 527.235 409.702 545.718 412.825C564.215 415.949 580.366 426.051 591.232 441.274C602.099 456.497 606.352 475.026 603.215 493.429C600.078 511.846 589.932 527.927 574.643 538.747L440.856 633.35L404.682 696.803C403.128 699.547 400.259 701.08 397.306 701.08Z" fill="black"/>
<path d="M1092.66 8.44165H528.874C502.996 8.44165 482.018 29.3295 482.018 55.0959V213.321C482.018 239.087 502.996 259.975 528.874 259.975H1092.66C1118.54 259.975 1139.52 239.087 1139.52 213.321V55.0959C1139.52 29.3295 1118.54 8.44165 1092.66 8.44165Z" fill="white"/>
<path d="M1092.67 268.417H528.86C498.353 268.417 473.525 243.697 473.525 213.321V55.0959C473.525 24.72 498.353 0 528.86 0H1092.67C1123.17 0 1148 24.72 1148 55.0959V213.335C1148 243.711 1123.17 268.431 1092.67 268.431V268.417ZM528.86 16.8833C507.707 16.8833 490.482 34.0199 490.482 55.0959V213.335C490.482 234.397 507.693 251.548 528.86 251.548H1092.67C1113.82 251.548 1131.04 234.411 1131.04 213.335V55.0959C1131.04 34.034 1113.83 16.8833 1092.67 16.8833H528.86Z" fill="black"/>
<path d="M606.168 235.551V322.429L706.183 222.846" fill="white"/>
<path d="M606.168 330.871C605.08 330.871 603.978 330.66 602.932 330.224C599.767 328.915 597.704 325.834 597.704 322.429V235.551C597.704 230.894 601.505 227.109 606.182 227.109C610.86 227.109 614.661 230.894 614.661 235.551V302.043L700.206 216.866C703.513 213.574 708.882 213.574 712.189 216.866C715.496 220.159 715.496 225.505 712.189 228.797L612.174 328.381C610.549 329.999 608.387 330.857 606.182 330.857L606.168 330.871Z" fill="black"/>
<path d="M640.985 145.703V169.255C640.985 172.196 640.815 174.714 640.505 176.825C640.18 178.935 639.473 180.638 638.357 181.918C637.255 183.198 635.615 184.141 633.453 184.746C631.291 185.337 628.409 185.646 624.806 185.646H563.395C559.806 185.646 556.923 185.351 554.747 184.746C552.585 184.141 550.946 183.212 549.829 181.918C548.727 180.638 548.007 178.935 547.682 176.825C547.357 174.714 547.201 172.196 547.201 169.255V99.0208C547.201 96.0803 547.357 93.5759 547.682 91.5218C548.007 89.4536 548.713 87.7371 549.829 86.3583C550.932 85.078 552.571 84.1353 554.747 83.5303C556.909 82.9394 559.791 82.6299 563.395 82.6299H624.806C628.395 82.6299 631.277 82.9253 633.453 83.5303C635.615 84.1353 637.255 85.0639 638.357 86.3583C639.459 87.7371 640.18 89.4536 640.505 91.5218C640.83 93.59 640.985 96.0943 640.985 99.0208V119.956H609.728V103.425C609.728 102.144 609.516 101.244 609.107 100.737C608.697 100.231 607.835 99.9775 606.549 99.9775H583.036C581.75 99.9775 580.888 100.231 580.478 100.737C580.069 101.244 579.857 102.144 579.857 103.425V164.852C579.857 166.132 580.069 167.032 580.478 167.539C580.888 168.045 581.75 168.299 583.036 168.299H606.549C607.835 168.299 608.697 168.045 609.107 167.539C609.516 167.032 609.728 166.146 609.728 164.852V145.703H640.985Z" fill="black"/>
<path d="M688.435 141.44V185.646H655.794V82.6299H688.435V124.078H719.692V82.6299H750.948V185.646H719.692V141.44H688.435Z" fill="black"/>
<path d="M853.72 185.646H765.616V82.6299H853.72V99.9775H799.642V124.078H853.861V141.426H799.642V168.285H853.72V185.632V185.646Z" fill="black"/>
<path d="M960.489 145.703V169.255C960.489 172.196 960.319 174.714 960.008 176.825C959.683 178.935 958.977 180.638 957.861 181.918C956.758 183.198 955.119 184.141 952.957 184.746C950.795 185.337 947.913 185.646 944.31 185.646H882.899C879.309 185.646 876.427 185.351 874.251 184.746C872.089 184.141 870.45 183.212 869.333 181.918C868.231 180.638 867.511 178.935 867.186 176.825C866.861 174.714 866.705 172.196 866.705 169.255V99.0208C866.705 96.0803 866.861 93.5759 867.186 91.5218C867.511 89.4536 868.217 87.7371 869.333 86.3583C870.435 85.078 872.075 84.1353 874.251 83.5303C876.413 82.9394 879.295 82.6299 882.899 82.6299H944.31C947.899 82.6299 950.781 82.9253 952.957 83.5303C955.119 84.1353 956.758 85.0639 957.861 86.3583C958.963 87.7371 959.683 89.4536 960.008 91.5218C960.333 93.59 960.489 96.0943 960.489 99.0208V119.956H929.232V103.425C929.232 102.144 929.02 101.244 928.611 100.737C928.201 100.231 927.339 99.9775 926.053 99.9775H902.54C901.254 99.9775 900.392 100.231 899.982 100.737C899.572 101.244 899.361 102.144 899.361 103.425V164.852C899.361 166.132 899.572 167.032 899.982 167.539C900.392 168.045 901.254 168.299 902.54 168.299H926.053C927.339 168.299 928.201 168.045 928.611 167.539C929.02 167.032 929.232 166.146 929.232 164.852V145.703H960.489Z" fill="black"/>
<path d="M975.976 82.6299H1008.62V110.867L1036.55 82.6299H1072.8L1021.62 133.308L1074.31 185.773H1038.35L1008.62 156.03V185.632H975.976V82.6299Z" fill="black"/>
</g>
<defs>
<clipPath id="clip0_90_932">
<rect width="1148" height="1039" fill="white"/>
</clipPath>
</defs>
</svg>
