<svg width="1024" height="637" viewBox="0 0 1024 637" fill="none" xmlns="http://www.w3.org/2000/svg">
<rect width="1024" height="636" transform="translate(0 0.733276)" fill="white"/>
<path d="M324.612 76.7013V108.429H318.228V76.7013H324.612ZM294.708 90.7173C294.708 94.2693 297.3 96.4293 300.564 96.4293C303.876 96.4293 306.372 94.2693 306.372 90.7173C306.372 87.0693 303.876 84.9573 300.564 84.9573C297.3 84.9573 294.708 87.0693 294.708 90.7173ZM312.564 90.7173C312.564 97.1493 307.332 101.901 300.564 101.901C293.796 101.901 288.516 97.1493 288.516 90.7173C288.516 84.1893 293.796 79.4853 300.564 79.4853C307.332 79.4853 312.564 84.1893 312.564 90.7173ZM301.524 115.053H325.716V120.093H295.188V105.309H301.524V115.053ZM340.352 97.5813V105.837C346.304 105.789 351.152 105.549 356.576 104.685L357.152 109.773C350.768 110.781 345.104 110.925 337.664 110.925H334.064V80.3493H354.512V85.4373H340.352V92.6373H353.024V97.5813H340.352ZM362.816 76.6053H369.152V120.957H362.816V97.2933H355.232V92.2053H362.816V76.6053ZM414.173 76.6533V106.413H408.173V76.6533H414.173ZM399.149 102.525V91.0533H391.421V85.9653H399.149V77.4213H405.053V102.525H399.149ZM395.885 95.1813L396.461 100.269C391.277 101.469 386.573 101.757 381.245 101.757H378.269V80.4933H384.461V96.6213C388.349 96.4773 391.997 96.0933 395.885 95.1813ZM401.933 104.301V105.501C401.933 109.917 406.397 114.669 415.997 115.821L413.645 120.717C406.541 119.709 401.453 116.781 398.765 112.845C396.077 116.781 390.941 119.709 383.789 120.717L381.533 115.821C391.133 114.669 395.597 109.917 395.597 105.501V104.301H401.933ZM426.889 89.9013C426.889 93.3093 429.337 95.3733 432.697 95.3733C436.009 95.3733 438.505 93.3093 438.505 89.9013C438.505 86.4453 436.009 84.4293 432.697 84.4293C429.337 84.4293 426.889 86.4453 426.889 89.9013ZM444.649 89.9013C444.649 96.1893 439.465 100.701 432.697 100.701C425.881 100.701 420.697 96.1893 420.697 89.9013C420.697 83.6133 425.881 79.0533 432.697 79.0533C439.465 79.0533 444.649 83.6133 444.649 89.9013ZM425.689 109.581V104.493H455.161V120.909H448.825V109.581H425.689ZM460.825 87.5493H455.161V91.9653H460.825V97.1493H455.161V102.717H448.825V76.6533H455.161V82.4133H460.825V87.5493ZM488.517 87.3093H495.141V76.6533H501.477V102.957H495.141V92.4453H488.517V87.3093ZM491.157 96.8133L488.085 101.757C483.285 100.173 479.973 97.0533 478.053 93.1653C476.133 97.6293 472.629 101.229 467.493 102.957L464.277 97.9653C471.285 95.5173 474.501 89.9013 474.693 84.3813H466.005V79.2933H489.765V84.3813H481.173C481.365 89.4213 484.437 94.6053 491.157 96.8133ZM486.549 116.109C492.309 116.109 495.333 114.909 495.333 112.413C495.333 109.917 492.309 108.717 486.549 108.717C480.741 108.717 477.717 109.917 477.717 112.413C477.717 114.909 480.741 116.109 486.549 116.109ZM486.549 103.917C495.909 103.917 501.669 107.037 501.669 112.413C501.669 117.789 495.909 120.909 486.549 120.909C477.141 120.909 471.381 117.789 471.381 112.413C471.381 107.037 477.141 103.917 486.549 103.917Z" fill="#FF0000"/>
<path d="M539.729 77.0373H544.721V120.525H539.729V77.0373ZM521.633 80.2533C528.113 80.2533 532.817 86.2053 532.817 95.5173C532.817 104.925 528.113 110.829 521.633 110.829C515.201 110.829 510.497 104.925 510.497 95.5173C510.497 86.2053 515.201 80.2533 521.633 80.2533ZM521.633 84.7173C517.889 84.7173 515.249 88.7973 515.249 95.5173C515.249 102.333 517.889 106.413 521.633 106.413C525.425 106.413 528.065 102.333 528.065 95.5173C528.065 88.7973 525.425 84.7173 521.633 84.7173ZM573.787 112.317V116.157H598.843V119.901H568.843V101.277H598.507V104.973H573.787V108.717H597.451V112.317H573.787ZM597.211 93.4533H603.259V97.4373H563.947V93.4533H575.227C576.523 88.7493 576.859 85.2453 576.955 82.6533H567.643V78.6693H581.803V80.3493C581.803 82.8933 581.803 87.4053 580.123 93.4533H592.219C593.419 88.7973 593.659 85.3413 593.707 82.6533H584.491V78.6693H598.555V81.0213C598.555 83.8533 598.555 87.9813 597.211 93.4533ZM633.063 92.8293L633.687 96.8613C626.439 98.3013 619.863 98.7333 613.575 98.7333H610.071V79.7253H615.015V94.6533C620.679 94.5573 626.679 94.1253 633.063 92.8293ZM638.775 102.957V105.549C638.775 110.109 641.607 114.525 647.175 116.445L644.679 120.045C640.503 118.509 637.767 115.677 636.279 112.125C634.887 115.629 632.343 118.797 628.359 120.429C624.279 118.893 621.687 115.821 620.343 112.221C618.855 115.677 616.119 118.557 612.087 120.045L609.639 116.445C615.159 114.429 617.991 109.821 617.991 105.549V102.957H622.791V105.549C622.791 109.293 624.519 113.229 628.311 115.629C632.151 113.037 633.927 108.909 633.927 105.549V102.957H638.775ZM641.991 86.9253H648.135V91.0053H641.991V101.181H637.047V77.0853H641.991V86.9253ZM687.107 89.5173V93.5493H657.347V78.6213H662.291V89.5173H687.107ZM662.003 106.701V115.485H687.347V119.469H657.059V106.701H662.003ZM652.259 98.7333H691.619V102.717H652.259V98.7333ZM702.8 86.2053V106.269C708.176 106.221 711.872 105.981 716.144 105.069L716.576 109.149C711.68 110.109 707.456 110.349 700.832 110.349H697.904V82.1733H714.32V86.2053H702.8ZM719.888 93.3093V77.9973H724.544V118.365H719.888V97.3413H711.344V93.3093H719.888ZM728.72 77.0373H733.472V120.381H728.72V77.0373ZM172.499 176.221V165.613H161.747V176.221H172.499ZM172.499 161.677V150.637H177.395V180.205H156.803V150.637H161.747V161.677H172.499ZM195.635 163.741V167.869H188.867V190.477H183.923V147.085H188.867V163.741H195.635ZM238.639 167.725V171.805H221.407V190.429H216.463V171.805H199.423V167.725H209.839C211.423 161.677 211.759 157.069 211.807 153.901H202.543V149.917H216.655V151.933C216.655 155.053 216.655 160.285 214.879 167.725H227.839C229.183 161.677 229.375 157.165 229.423 153.901H219.727V149.917H234.271V152.317C234.271 155.629 234.271 160.669 232.831 167.725H238.639ZM259.612 155.485V159.613C259.612 166.813 264.076 174.301 270.844 177.181L268.108 181.069C263.068 178.861 259.18 174.157 257.164 168.541C255.244 174.589 251.356 179.725 246.268 182.173L243.436 178.237C250.156 175.117 254.62 167.053 254.62 159.613V155.485H244.972V151.405H269.26V155.485H259.612ZM274.3 147.085H279.292V190.429H274.3V147.085ZM303.893 159.469C303.893 163.021 306.725 165.469 310.469 165.469C314.213 165.469 317.045 163.021 317.045 159.469C317.045 155.869 314.213 153.421 310.469 153.421C306.725 153.421 303.893 155.869 303.893 159.469ZM321.845 159.469C321.845 165.325 316.997 169.549 310.469 169.549C303.941 169.549 299.093 165.325 299.093 159.469C299.093 153.565 303.941 149.389 310.469 149.389C316.997 149.389 321.845 153.565 321.845 159.469ZM307.541 173.005V185.245C310.037 185.101 312.773 184.717 315.365 183.853L316.181 187.789C312.245 189.133 308.501 189.325 304.997 189.325H302.741V173.005H307.541ZM325.493 187.021C327.653 187.021 329.285 186.013 329.285 184.333C329.285 182.605 327.653 181.645 325.493 181.645C323.285 181.645 321.653 182.605 321.653 184.333C321.653 186.013 323.285 187.021 325.493 187.021ZM325.493 178.189C330.245 178.189 333.653 180.589 333.653 184.333C333.653 188.077 330.245 190.477 325.493 190.477C320.693 190.477 317.285 188.077 317.285 184.333C317.285 180.589 320.693 178.189 325.493 178.189ZM327.893 169.693V173.245H336.341V176.845H314.597V173.245H323.093V169.693H327.893ZM332.405 156.493H338.549V160.573H332.405V168.541H327.461V147.085H332.405V156.493ZM372.673 155.389V155.149H346.801V151.117H377.665V155.389C377.665 160.765 377.665 166.765 375.985 175.741L370.993 175.213C372.673 166.717 372.673 160.573 372.673 155.389ZM362.305 180.685H381.889V184.765H342.721V180.685H357.313V165.421H362.305V180.685ZM426.891 156.061V155.389H401.835V151.405H431.835V156.061C431.835 161.869 431.835 167.965 430.203 177.133L425.211 176.605C426.891 168.061 426.891 161.677 426.891 156.061ZM397.659 180.301H436.875V184.381H397.659V180.301ZM448.103 156.253V176.029C453.095 175.981 457.031 175.741 461.495 174.829L461.927 178.909C456.695 179.917 452.231 180.109 446.135 180.109H443.255V152.221H459.287V156.253H448.103ZM474.071 147.037H478.775V190.381H474.071V168.205H468.935V188.269H464.279V147.949H468.935V164.173H474.071V147.037ZM508.003 181.261H525.235V185.341H485.971V181.261H503.059V173.869H490.723V159.901H515.683V154.093H490.627V150.109H520.579V163.837H495.571V169.885H521.539V173.869H508.003V181.261ZM560.445 152.653C554.205 152.653 550.125 154.765 550.125 158.221C550.125 161.725 554.205 163.837 560.445 163.837C566.637 163.837 570.717 161.725 570.717 158.221C570.717 154.765 566.637 152.653 560.445 152.653ZM560.445 167.821C551.277 167.821 545.037 164.077 545.037 158.221C545.037 152.413 551.277 148.669 560.445 148.669C569.565 148.669 575.805 152.413 575.805 158.221C575.805 164.077 569.565 167.821 560.445 167.821ZM580.173 171.517L580.221 175.597H570.429V190.429H565.389V175.597H555.501V190.429H550.461V175.597H540.861V171.517H580.173ZM601.049 155.485V159.613C601.049 166.813 605.513 174.301 612.281 177.181L609.545 181.069C604.505 178.861 600.617 174.157 598.601 168.541C596.681 174.589 592.793 179.725 587.705 182.173L584.873 178.237C591.593 175.117 596.057 167.053 596.057 159.613V155.485H586.409V151.405H610.697V155.485H601.049ZM615.737 147.085H620.729V190.429H615.737V147.085ZM632.917 164.893L631.141 161.005C639.157 160.189 644.725 156.829 645.397 152.941H632.821V148.957H664.837V152.941H652.165C652.837 156.829 658.405 160.189 666.421 161.005L664.693 164.893C657.061 164.077 651.109 160.957 648.805 156.493C646.453 160.957 640.501 164.077 632.917 164.893ZM658.645 182.749C658.645 180.157 655.045 178.813 648.709 178.813C642.373 178.813 638.821 180.157 638.821 182.749C638.821 185.245 642.373 186.637 648.709 186.637C655.045 186.637 658.645 185.245 658.645 182.749ZM668.389 171.037H651.253V175.069C659.077 175.549 663.637 178.237 663.637 182.749C663.637 187.645 658.069 190.429 648.709 190.429C639.397 190.429 633.781 187.645 633.781 182.749C633.781 178.237 638.437 175.501 646.309 175.021V171.037H629.173V167.101H668.389V171.037ZM704.05 147.037H709.042V190.525H704.05V147.037ZM685.954 150.253C692.434 150.253 697.138 156.205 697.138 165.517C697.138 174.925 692.434 180.829 685.954 180.829C679.522 180.829 674.818 174.925 674.818 165.517C674.818 156.205 679.522 150.253 685.954 150.253ZM685.954 154.717C682.21 154.717 679.57 158.797 679.57 165.517C679.57 172.333 682.21 176.413 685.954 176.413C689.746 176.413 692.386 172.333 692.386 165.517C692.386 158.797 689.746 154.717 685.954 154.717ZM753.246 147.133V178.813H748.302V147.133H753.246ZM743.79 168.061L741.246 171.997C736.302 170.173 732.75 166.621 730.878 162.109C728.91 166.957 725.31 170.893 720.222 172.813L717.678 168.829C724.494 166.333 728.286 160.141 728.286 153.805V149.485H733.326V153.805C733.326 159.949 737.118 165.757 743.79 168.061ZM729.918 185.581H754.494V189.613H724.926V175.837H729.918V185.581ZM763.802 151.645H783.914C783.914 164.221 778.538 175.357 764.378 182.509L761.642 178.717C772.25 173.293 777.962 165.661 778.97 155.677H763.802V151.645ZM801.818 164.173V168.301H795.242V190.381H790.298V147.037H795.242V164.173H801.818ZM819.958 171.661V181.069H830.902V171.613C829.222 172.045 827.35 172.237 825.43 172.237C823.51 172.237 821.638 172.045 819.958 171.661ZM825.43 153.469C818.854 153.469 814.294 156.349 814.294 160.909C814.294 165.517 818.854 168.397 825.43 168.397C831.958 168.397 836.518 165.517 836.518 160.909C836.518 156.349 831.958 153.469 825.43 153.469ZM835.846 181.069H845.11V185.101H805.846V181.069H815.014V169.789C811.558 167.869 809.494 164.749 809.494 160.909C809.494 153.997 816.166 149.581 825.43 149.581C834.646 149.581 841.366 153.997 841.366 160.909C841.366 164.749 839.302 167.821 835.846 169.789V181.069ZM856.099 175.453C854.947 167.389 863.299 164.317 863.299 159.085C863.299 156.397 861.619 154.429 858.595 154.429C856.339 154.429 854.371 155.581 852.787 157.357L849.667 154.525C852.019 151.837 855.235 149.917 859.219 149.917C864.835 149.917 868.675 153.085 868.675 158.701C868.675 165.709 860.131 168.301 860.947 175.453H856.099ZM858.595 187.357C856.483 187.357 854.899 185.773 854.899 183.517C854.899 181.213 856.483 179.581 858.595 179.581C860.659 179.581 862.291 181.213 862.291 183.517C862.291 185.773 860.659 187.357 858.595 187.357Z" fill="black"/>
<path d="M285.828 123.933H506.613V126.333H285.828V123.933Z" fill="#FF0000"/>
<path d="M512 236.733V296.733" stroke="#D5D5D5" stroke-width="4"/>
<path d="M226.429 352.685V359.789C226.429 367.517 230.461 375.341 236.989 378.557L233.965 382.493C229.309 380.093 225.853 375.389 223.981 369.725C222.109 375.725 218.461 380.765 213.517 383.309L210.493 379.325C217.261 376.013 221.484 367.805 221.484 359.789V352.685H226.429ZM251.581 366.269V370.349H244.813V392.429H239.869V349.085H244.813V366.269H251.581ZM274.905 388.637C281.241 388.637 284.841 387.293 284.841 384.653C284.841 382.061 281.241 380.669 274.905 380.669C268.569 380.669 265.017 382.061 265.017 384.653C265.017 387.293 268.569 388.637 274.905 388.637ZM274.905 376.877C284.265 376.877 289.833 379.709 289.833 384.653C289.833 389.645 284.265 392.429 274.905 392.429C265.593 392.429 259.977 389.645 259.977 384.653C259.977 379.709 265.593 376.877 274.905 376.877ZM269.625 365.741V370.157H280.281V365.741C278.697 365.981 276.921 366.125 275.001 366.125C273.081 366.125 271.209 365.981 269.625 365.741ZM275.001 353.645C268.521 353.645 264.633 355.181 264.633 357.965C264.633 360.749 268.521 362.333 275.001 362.333C281.433 362.333 285.321 360.749 285.321 357.965C285.321 355.181 281.433 353.645 275.001 353.645ZM285.225 370.157H294.585V374.093H255.369V370.157H264.681V364.397C261.417 363.005 259.545 360.797 259.545 357.965C259.545 352.877 265.497 349.805 275.001 349.805C284.457 349.805 290.457 352.877 290.457 357.965C290.457 360.797 288.537 363.005 285.225 364.445V370.157ZM314.741 357.485V361.661C314.741 368.381 319.013 376.061 325.589 379.181L322.853 383.069C318.005 380.765 314.309 375.965 312.341 370.493C310.421 376.541 306.581 381.725 301.589 384.173L298.757 380.237C305.381 377.069 309.797 368.861 309.797 361.661V357.485H300.341V353.405H323.909V357.485H314.741ZM339.893 366.173V370.253H333.125V392.429H328.181V349.085H333.125V366.173H339.893ZM385.279 349.085H390.223V372.365H385.279V349.085ZM361.903 374.381H366.799V379.181H385.327V374.381H390.223V391.901H361.903V374.381ZM366.799 383.021V387.917H385.327V383.021H366.799ZM366.847 351.053C373.471 351.053 378.319 355.181 378.319 361.133C378.319 367.085 373.471 371.213 366.847 371.213C360.223 371.213 355.327 367.085 355.327 361.133C355.327 355.181 360.223 351.053 366.847 351.053ZM366.847 355.133C362.911 355.133 360.175 357.533 360.175 361.133C360.175 364.781 362.911 367.133 366.847 367.133C370.735 367.133 373.519 364.781 373.519 361.133C373.519 357.533 370.735 355.133 366.847 355.133ZM424.107 369.485L421.707 373.325C416.859 371.789 413.403 368.669 411.531 364.637C409.611 369.245 405.963 372.941 400.779 374.717L398.283 370.829C405.099 368.477 408.891 362.909 408.891 357.005V356.141H399.675V352.157H422.955V356.141H413.883V356.957C413.883 362.333 417.483 367.373 424.107 369.485ZM418.539 388.541C424.587 388.541 428.091 387.005 428.091 384.221C428.091 381.389 424.587 379.901 418.539 379.901C412.491 379.901 408.987 381.389 408.987 384.221C408.987 387.005 412.491 388.541 418.539 388.541ZM418.539 376.013C427.467 376.013 432.987 379.037 432.987 384.221C432.987 389.357 427.467 392.429 418.539 392.429C409.611 392.429 404.091 389.357 404.091 384.221C404.091 379.037 409.611 376.013 418.539 376.013ZM432.507 359.645H438.651V363.725H432.507V375.005H427.563V349.085H432.507V359.645ZM452.567 378.557C455.543 378.557 457.367 374.669 457.367 367.805C457.367 360.941 455.543 357.101 452.567 357.101C449.591 357.101 447.767 360.941 447.767 367.805C447.767 374.669 449.591 378.557 452.567 378.557ZM466.439 365.501V349.901H471.047V390.365H466.439V369.581H461.831C461.399 378.029 457.847 383.213 452.567 383.213C446.951 383.213 443.255 377.309 443.255 367.805C443.255 358.301 446.951 352.445 452.567 352.445C457.751 352.445 461.255 357.389 461.783 365.501H466.439ZM475.127 349.085H479.831V392.381H475.127V349.085ZM502.675 352.589V359.741C502.675 367.805 506.803 375.677 513.427 378.749L510.499 382.733C505.603 380.285 502.099 375.533 500.227 369.725C498.307 375.869 494.755 380.909 489.811 383.453L486.691 379.517C493.459 376.205 497.683 367.853 497.683 359.741V352.589H502.675ZM517.987 348.989H522.979V392.477H517.987V367.277H508.723V363.245H517.987V348.989ZM565.936 361.517V365.549H536.176V350.621H541.12V361.517H565.936ZM540.832 378.701V387.485H566.176V391.469H535.888V378.701H540.832ZM531.088 370.733H570.448V374.717H531.088V370.733ZM590.009 370.301L588.233 366.413C596.489 365.309 602.585 360.557 602.873 355.517H589.673V351.533H621.593V355.517H608.489C608.777 360.557 614.873 365.309 623.129 366.413L621.353 370.301C614.201 369.245 608.297 365.693 605.657 360.893C603.017 365.693 597.161 369.245 590.009 370.301ZM625.289 373.469L625.241 377.453H608.009V392.477H603.065V377.453H586.073V373.469H625.289ZM632.677 353.645H653.221C653.221 366.557 648.037 377.501 633.157 384.701L630.517 380.765C641.893 375.293 647.269 367.661 648.133 357.677H632.677V353.645ZM661.045 349.085H665.989V392.429H661.045V349.085ZM700.161 369.629L697.714 373.469C692.914 371.789 689.458 368.381 687.586 364.205C685.666 368.861 682.018 372.605 676.882 374.381L674.338 370.493C681.058 368.189 684.994 362.477 684.994 356.621V355.757H675.826V351.773H699.01V355.757H689.986V356.573C689.986 361.949 693.682 367.373 700.161 369.629ZM681.058 381.101V377.117H710.29V392.429H705.346V381.101H681.058ZM705.346 349.037H710.29V374.957H705.346V364.013H697.762V359.933H705.346V349.037ZM738.126 351.533C747.15 351.533 754.062 356.429 754.062 363.773C754.062 371.165 747.15 376.013 738.126 376.013C729.054 376.013 722.19 371.165 722.19 363.773C722.19 356.429 729.054 351.533 738.126 351.533ZM738.126 355.613C731.694 355.613 726.99 358.781 726.99 363.773C726.99 368.765 731.694 371.933 738.126 371.933C744.51 371.933 749.262 368.765 749.262 363.773C749.262 358.781 744.51 355.613 738.126 355.613ZM718.542 382.877H757.806V386.957H718.542V382.877ZM784.73 383.261H801.962V387.341H762.698V383.261H779.786V375.869H767.45V361.901H792.41V356.093H767.354V352.109H797.306V365.837H772.298V371.885H798.266V375.869H784.73V383.261ZM248.765 448.221V437.613H238.013V448.221H248.765ZM248.765 433.677V422.637H253.661V452.205H233.069V422.637H238.013V433.677H248.765ZM271.901 435.741V439.869H265.133V462.477H260.189V419.085H265.133V435.741H271.901ZM304.201 438.189L304.489 441.789C300.505 442.413 296.377 442.749 292.345 443.037V461.133H287.353V443.277C283.273 443.421 279.337 443.517 275.785 443.517L275.113 439.437C277.417 439.437 279.865 439.389 282.361 439.389C283.801 433.869 283.945 429.885 283.993 426.717H277.705V422.637H288.697V425.373C288.697 428.589 288.697 433.197 287.305 439.245C289.993 439.197 292.729 439.101 295.417 438.909C296.713 433.677 296.857 429.837 296.857 426.717H290.809V422.637H301.561V425.613C301.561 428.829 301.561 433.053 300.361 438.573C301.657 438.477 302.953 438.333 304.201 438.189ZM306.889 419.085H311.833V462.477H306.889V450.525H297.433V446.637H306.889V419.085ZM323.829 440.301L322.053 436.413C330.309 435.309 336.405 430.557 336.693 425.517H323.493V421.533H355.413V425.517H342.309C342.597 430.557 348.693 435.309 356.949 436.413L355.173 440.301C348.021 439.245 342.117 435.693 339.477 430.893C336.837 435.693 330.981 439.245 323.829 440.301ZM359.109 443.469L359.061 447.453H341.829V462.477H336.885V447.453H319.893V443.469H359.109ZM380.034 422.685V429.789C380.034 437.757 384.45 445.725 391.266 448.797L388.386 452.733C383.394 450.381 379.602 445.581 377.634 439.725C375.666 446.013 371.826 451.149 366.594 453.693L363.666 449.565C370.578 446.445 375.09 438.141 375.09 429.789V422.685H380.034ZM394.722 419.037H399.714V462.525H394.722V419.037ZM443.006 431.517V435.549H413.246V420.621H418.19V431.517H443.006ZM417.902 448.701V457.485H443.246V461.469H412.958V448.701H417.902ZM408.158 440.733H447.518V444.717H408.158V440.733ZM494.103 448.173V435.021H485.559V430.941H494.103V419.085H499.047V448.173H494.103ZM465.879 422.445H485.367C485.367 433.917 478.503 441.789 465.831 445.821L463.767 441.981C473.751 438.861 479.271 433.389 480.087 426.429H465.879V422.445ZM487.239 444.717V446.397C487.239 452.061 492.903 456.957 501.255 458.349L499.287 462.237C492.663 461.037 487.383 457.773 484.791 453.165C482.151 457.821 476.823 461.133 470.151 462.333L468.231 458.445C476.583 457.005 482.295 452.109 482.295 446.397V444.717H487.239ZM537.972 419.037H542.964V462.525H537.972V419.037ZM519.876 422.253C526.356 422.253 531.06 428.205 531.06 437.517C531.06 446.925 526.356 452.829 519.876 452.829C513.444 452.829 508.74 446.925 508.74 437.517C508.74 428.205 513.444 422.253 519.876 422.253ZM519.876 426.717C516.132 426.717 513.492 430.797 513.492 437.517C513.492 444.333 516.132 448.413 519.876 448.413C523.668 448.413 526.308 444.333 526.308 437.517C526.308 430.797 523.668 426.717 519.876 426.717ZM592.141 418.605H598.477V462.957H592.141V418.605ZM574.717 421.725C581.389 421.725 586.333 427.773 586.333 437.469C586.333 447.213 581.389 453.309 574.717 453.309C568.045 453.309 563.101 447.213 563.101 437.469C563.101 427.773 568.045 421.725 574.717 421.725ZM574.717 427.437C571.453 427.437 569.197 430.941 569.197 437.469C569.197 444.045 571.453 447.549 574.717 447.549C577.981 447.549 580.237 444.045 580.237 437.469C580.237 430.941 577.981 427.437 574.717 427.437ZM641.625 430.989V436.029H610.905V420.093H641.241V425.181H617.193V430.989H641.625ZM610.425 453.357V448.317H641.289V462.909H634.953V453.357H610.425ZM606.057 439.533H646.041V444.621H606.057V439.533ZM681.318 419.085H686.262V442.365H681.318V419.085ZM657.942 444.381H662.838V449.181H681.366V444.381H686.262V461.901H657.942V444.381ZM662.838 453.021V457.917H681.366V453.021H662.838ZM662.886 421.053C669.51 421.053 674.358 425.181 674.358 431.133C674.358 437.085 669.51 441.213 662.886 441.213C656.262 441.213 651.366 437.085 651.366 431.133C651.366 425.181 656.262 421.053 662.886 421.053ZM662.886 425.133C658.95 425.133 656.214 427.533 656.214 431.133C656.214 434.781 658.95 437.133 662.886 437.133C666.774 437.133 669.558 434.781 669.558 431.133C669.558 427.533 666.774 425.133 662.886 425.133ZM702.146 423.309V447.261C708.29 447.213 714.77 446.685 721.586 445.293L722.114 449.421C714.674 450.957 707.666 451.485 700.946 451.485H697.25V423.309H702.146ZM725.57 419.085H730.514V462.429H725.57V419.085ZM745.534 427.197V447.693C752.542 447.645 757.822 447.357 763.87 446.301L764.398 450.381C757.822 451.581 751.966 451.821 744.142 451.821H740.59V423.165H760.75V427.197H745.534ZM779.182 435.741V439.821H772.414V462.477H767.47V419.037H772.414V435.741H779.182ZM787.722 459.357C785.658 459.357 784.026 457.773 784.026 455.517C784.026 453.213 785.658 451.581 787.722 451.581C789.786 451.581 791.418 453.213 791.418 455.517C791.418 457.773 789.786 459.357 787.722 459.357Z" fill="#FF0000"/>
<path d="M208.812 395.933H815.206V398.333H208.812V395.933ZM229.133 465.933H559.808V468.333H229.133V465.933ZM648.102 465.933H794.874V468.333H648.102V465.933Z" fill="#FF0000"/>
<path d="M559.789 465.933H648.105V468.333H559.789V465.933Z" fill="#FF0000"/>
<path d="M262.75 537.825C259.438 532.425 257.458 526.629 257.458 519.537C257.458 512.481 259.438 506.649 262.75 501.285L264.802 502.221C261.67 507.369 260.194 513.417 260.194 519.537C260.194 525.657 261.67 531.741 264.802 536.853L262.75 537.825ZM282.799 531.129C288.019 531.129 290.899 530.121 290.899 528.177C290.899 526.269 288.019 525.225 282.799 525.225C277.615 525.225 274.699 526.269 274.699 528.177C274.699 530.121 277.615 531.129 282.799 531.129ZM282.799 523.029C289.819 523.029 293.851 524.829 293.851 528.177C293.851 531.561 289.819 533.361 282.799 533.361C275.779 533.361 271.747 531.561 271.747 528.177C271.747 524.829 275.779 523.029 282.799 523.029ZM284.275 518.205H297.415V520.581H268.183V518.205H281.323V515.037H272.035V502.041H293.815V504.345H274.987V507.333H292.951V509.565H274.987V512.733H293.995V515.037H284.275V518.205ZM327.832 501.105V524.793H324.88V501.105H327.832ZM320.776 517.197L319.228 519.537C315.556 518.133 312.712 515.217 311.272 511.545C309.904 515.469 306.988 518.601 303.208 520.185L301.66 517.773C306.52 515.901 309.76 511.221 309.76 506.181V502.905H312.712V506.181C312.712 511.041 315.988 515.433 320.776 517.197ZM310.012 530.265H328.804V532.677H307.06V522.597H310.012V530.265ZM345.289 503.913V509.709C345.289 515.397 348.961 521.265 353.497 523.533L351.661 525.873C348.241 524.037 345.325 520.257 343.849 515.829C342.445 520.545 339.457 524.577 335.821 526.521L334.057 524.145C338.701 521.769 342.373 515.577 342.373 509.709V503.913H345.289ZM364.621 514.209V516.657H359.293V533.397H356.341V501.141H359.293V514.209H364.621ZM374.878 523.569C377.398 523.569 379.054 520.293 379.054 515.001C379.054 509.817 377.398 506.541 374.878 506.541C372.286 506.541 370.666 509.817 370.666 515.001C370.666 520.293 372.286 523.569 374.878 523.569ZM385.786 513.669V501.825H388.594V531.813H385.786V516.081H381.718C381.466 522.417 378.838 526.305 374.878 526.305C370.666 526.305 367.966 521.985 367.966 515.001C367.966 508.125 370.666 503.805 374.878 503.805C378.766 503.805 381.358 507.585 381.718 513.669H385.786ZM392.194 501.105H395.002V533.397H392.194V501.105ZM411.991 503.877V509.673C411.991 515.541 415.663 521.409 420.343 523.641L418.615 525.981C414.943 524.145 411.991 520.293 410.515 515.757C409.111 520.545 406.123 524.613 402.487 526.557L400.687 524.217C405.367 521.877 409.039 515.649 409.039 509.673V503.877H411.991ZM424.339 501.105H427.291V533.433H424.339V514.461H416.851V512.049H424.339V501.105ZM459.688 510.825V513.237H437.728V502.293H440.68V510.825H459.688ZM440.464 523.173V530.193H459.868V532.605H437.512V523.173H440.464ZM433.768 517.557H463.036V519.933H433.768V517.557ZM478.464 509.421C478.464 512.265 480.768 514.245 483.9 514.245C487.068 514.245 489.372 512.265 489.372 509.421C489.372 506.649 487.068 504.633 483.9 504.633C480.768 504.633 478.464 506.649 478.464 509.421ZM492.252 509.421C492.252 513.705 488.76 516.657 483.9 516.657C479.076 516.657 475.584 513.705 475.584 509.421C475.584 505.209 479.076 502.257 483.9 502.257C488.76 502.257 492.252 505.209 492.252 509.421ZM482.496 526.989V530.589H501.216V532.965H479.616V524.793H497.112V521.409H479.508V519.069H500.028V526.989H482.496ZM500.028 508.053H504.816V510.501H500.028V517.557H497.076V501.105H500.028V508.053ZM512.194 515.577V523.461C516.946 523.461 520.906 523.245 525.73 522.489L525.982 524.937C520.906 525.729 516.766 525.909 511.726 525.909H509.278V513.165H520.402V506.397H509.206V504.021H523.318V515.577H512.194ZM531.706 501.069H534.658V533.433H531.706V519.717H525.118V517.305H531.706V510.861H525.334V508.449H531.706V501.069ZM544.087 516.801L542.971 514.461C548.587 513.633 554.167 509.925 554.167 505.677V505.497H543.979V503.121H567.559V505.497H557.443V505.677C557.443 509.925 563.023 513.633 568.711 514.461L567.559 516.801C562.555 515.937 557.767 513.237 555.823 509.421C553.843 513.237 549.091 515.937 544.087 516.801ZM570.403 519.501L570.439 521.913H557.227V533.397H554.275V521.913H541.243V519.501H570.403ZM585.844 506.865V510.969C585.844 516.441 589.732 522.021 594.484 524.037L592.828 526.413C589.084 524.685 585.916 520.977 584.368 516.549C582.892 521.265 579.724 525.333 576.052 527.205L574.324 524.829C578.968 522.633 582.892 516.549 582.892 510.969V506.865H575.404V504.417H593.44V506.865H585.844ZM597.796 501.141H600.748V533.397H597.796V501.141ZM618.984 510.393C618.984 513.345 621.324 515.433 624.456 515.433C627.552 515.433 629.892 513.345 629.892 510.393C629.892 507.441 627.552 505.353 624.456 505.353C621.324 505.353 618.984 507.441 618.984 510.393ZM632.772 510.393C632.772 514.785 629.244 517.845 624.456 517.845C619.632 517.845 616.104 514.785 616.104 510.393C616.104 506.001 619.632 502.941 624.456 502.941C629.244 502.941 632.772 506.001 632.772 510.393ZM621.756 520.689V530.121C623.628 530.049 626.004 529.761 628.236 529.041L628.704 531.381C625.644 532.389 622.62 532.569 620.424 532.569H618.876V520.689H621.756ZM635.652 531.273C637.596 531.273 639 530.265 639 528.789C639 527.313 637.596 526.341 635.652 526.341C633.672 526.341 632.304 527.313 632.304 528.789C632.304 530.265 633.672 531.273 635.652 531.273ZM635.652 524.253C639.144 524.253 641.628 526.017 641.628 528.789C641.628 531.597 639.144 533.361 635.652 533.361C632.16 533.361 629.676 531.597 629.676 528.789C629.676 526.017 632.16 524.253 635.652 524.253ZM637.092 517.989V520.905H643.752V523.101H627.516V520.905H634.212V517.989H637.092ZM640.548 508.341H645.336V510.789H640.548V517.197H637.596V501.105H640.548V508.341ZM676.149 511.185L675.069 513.561C670.065 512.769 665.277 510.249 663.225 506.649C661.209 510.249 656.385 512.769 651.345 513.561L650.265 511.185C656.061 510.465 661.713 507.009 661.713 502.905V501.465H664.737V502.905C664.737 506.901 670.425 510.465 676.149 511.185ZM671.073 530.589V526.485H655.197V530.589H671.073ZM671.073 524.217V520.437H673.989V532.965H652.281V520.437H655.197V524.217H671.073ZM648.573 515.829H677.805V518.205H648.573V515.829ZM686.694 504.237V522.525C691.554 522.525 696.558 522.093 701.922 521.013L702.246 523.533C696.63 524.685 691.554 525.045 686.406 525.045H683.742V504.237H686.694ZM705.234 501.105H708.186V533.361H705.234V501.105ZM719.164 506.649V522.885C724.888 522.885 729.028 522.633 733.708 521.805L734.032 524.253C729.1 525.189 724.852 525.405 718.768 525.405H716.212V504.201H731.224V506.649H719.164ZM745.012 513.849V516.297H739.684V533.469H736.732V501.105H739.684V513.849H745.012ZM750.733 522.777L750.301 507.513L750.193 503.769H753.541L753.433 507.513L753.001 522.777H750.733ZM751.849 531.201C750.553 531.201 749.473 530.193 749.473 528.717C749.473 527.205 750.553 526.161 751.849 526.161C753.181 526.161 754.225 527.205 754.225 528.717C754.225 530.193 753.181 531.201 751.849 531.201ZM761.253 537.825L759.237 536.853C762.333 531.741 763.845 525.657 763.845 519.537C763.845 513.417 762.333 507.369 759.237 502.221L761.253 501.285C764.601 506.649 766.581 512.481 766.581 519.537C766.581 526.629 764.601 532.425 761.253 537.825Z" fill="#666666"/>
<path d="M512 576.733V636.733" stroke="#D5D5D5" stroke-width="4"/>
</svg>
