<svg width="1024" height="969" viewBox="0 0 1024 969" fill="none" xmlns="http://www.w3.org/2000/svg">
<g clip-path="url(#clip0_55_9090)">
<path d="M1024 0.733398H0V968.256H1024V0.733398Z" fill="#DADCF2"/>
<path d="M1024 0.733398H0V968.063H1024V0.733398Z" fill="white"/>
<path d="M363.451 107.326H385.672C385.672 121.481 380.296 133.635 364.629 141.584L360.84 136.404C371.797 130.763 377.633 123.275 378.862 112.813H363.451V107.326ZM404.821 120.506V126.096H398.216V149.636H391.457V102.454H398.216V120.506H404.821ZM440.759 102.505H447.569V127.891H440.759V102.505ZM416.235 129.942H422.942V134.353H440.862V129.942H447.569V149.174H416.235V129.942ZM422.942 139.533V143.789H440.862V139.533H422.942ZM421.918 104.454C429.239 104.454 434.718 109.121 434.718 115.583C434.718 122.096 429.239 126.763 421.918 126.763C414.596 126.763 409.067 122.096 409.067 115.583C409.067 109.121 414.596 104.454 421.918 104.454ZM421.918 110.044C418.334 110.044 415.671 112.147 415.671 115.583C415.671 119.121 418.334 121.173 421.918 121.173C425.502 121.173 428.113 119.121 428.113 115.583C428.113 112.147 425.502 110.044 421.918 110.044ZM492.599 112.147H499.767V102.505H506.525V126.506H499.767V117.532H492.599V112.147ZM495.21 121.275L492.087 126.558C486.864 125.07 483.332 121.993 481.232 118.096C479.133 122.352 475.344 125.942 469.866 127.532L466.692 122.25C474.013 119.993 477.495 114.506 477.751 109.634H468.484V104.249H493.828V109.634H484.612C484.816 114.403 488.093 119.224 495.21 121.275ZM482.154 143.995H507.856V149.226H475.498V136.251H499.818V133.635H475.396V128.404H506.525V141.123H482.154V143.995ZM531.251 115.583V117.224C531.251 123.891 534.579 131.532 541.951 135.071L538.367 140.199C533.35 137.892 529.919 133.481 527.974 128.25C525.926 133.891 522.291 138.661 517.017 141.02L513.382 135.84C521.01 132.302 524.543 124.301 524.543 117.224V115.583H514.969V110.198H524.543V103.633H531.302V110.198H540.62V115.583H531.251ZM557.977 120.865V126.455H551.116V149.738H544.358V102.556H551.116V120.865H557.977ZM579.864 117.532C579.864 121.378 582.527 123.686 586.059 123.686C589.541 123.686 592.255 121.378 592.255 117.532C592.255 113.685 589.541 111.377 586.059 111.377C582.527 111.377 579.864 113.685 579.864 117.532ZM598.808 117.532C598.808 124.455 593.227 129.532 586.059 129.532C578.84 129.532 573.259 124.455 573.259 117.532C573.259 110.557 578.84 105.531 586.059 105.531C593.227 105.531 598.808 110.557 598.808 117.532ZM586.367 133.327V143.533H611.711V148.918H579.608V133.327H586.367ZM610.021 116.044H616.267V121.583H610.021V136.866H603.263V102.505H610.021V116.044ZM628.602 107.736V132.404C632.289 132.302 636.334 131.994 640.839 131.173L641.402 136.866C635.258 137.994 629.831 138.251 625.121 138.251H621.844V107.736H628.602ZM653.946 102.454H660.398V149.687H653.946V126.147H649.697V147.482H643.399V103.326H649.697V120.66H653.946V102.454Z" fill="black"/>
<path d="M218.377 180.418V197.24H215.74V180.418H218.377ZM202.351 187.752C202.351 189.855 203.862 191.265 205.91 191.265C207.932 191.265 209.468 189.855 209.468 187.752C209.468 185.624 207.932 184.239 205.91 184.239C203.862 184.239 202.351 185.624 202.351 187.752ZM212.028 187.752C212.028 191.111 209.391 193.547 205.91 193.547C202.428 193.547 199.766 191.111 199.766 187.752C199.766 184.367 202.428 181.957 205.91 181.957C209.391 181.957 212.028 184.367 212.028 187.752ZM205.935 200.983H219.042V203.137H203.273V195.547H205.935V200.983ZM226.541 191.034V196.034C230.228 196.009 232.864 195.88 235.885 195.368L236.115 197.496C232.813 198.086 229.92 198.188 225.722 198.188H223.904V182.418H234.631V184.598H226.541V188.931H233.684V191.034H226.541ZM239.418 180.367H242.08V203.599H239.418V191.06H234.989V188.88H239.418V180.367ZM266.117 180.392V196.086H263.608V180.392H266.117ZM258.949 194.009V187.649H254.417V185.521H258.949V180.854H261.432V194.009H258.949ZM256.952 190.444L257.233 192.598C254.315 193.239 251.806 193.368 249.093 193.368H247.582V182.469H250.193V191.214C252.421 191.162 254.571 190.957 256.952 190.444ZM259.563 194.932V195.65C259.563 198.368 262.712 200.829 267.166 201.445L266.219 203.496C262.609 202.958 259.691 201.265 258.257 198.932C256.824 201.265 253.905 202.958 250.296 203.496L249.297 201.445C253.803 200.829 256.926 198.368 256.926 195.65V194.932H259.563ZM271.106 182.854H281.833C281.833 189.572 278.966 195.521 271.414 199.342L269.954 197.316C275.612 194.419 278.658 190.342 279.196 185.008H271.106V182.854ZM291.382 189.547V191.752H287.874V203.548H285.238V180.392H287.874V189.547H291.382ZM309.939 180.418H312.576V192.855H309.939V180.418ZM297.472 193.932H300.084V196.496H309.965V193.932H312.576V203.291H297.472V193.932ZM300.084 198.547V201.163H309.965V198.547H300.084ZM300.109 181.469C303.642 181.469 306.227 183.675 306.227 186.854C306.227 190.034 303.642 192.239 300.109 192.239C296.576 192.239 293.965 190.034 293.965 186.854C293.965 183.675 296.576 181.469 300.109 181.469ZM300.109 183.649C298.01 183.649 296.551 184.931 296.551 186.854C296.551 188.803 298.01 190.06 300.109 190.06C302.183 190.06 303.667 188.803 303.667 186.854C303.667 184.931 302.183 183.649 300.109 183.649ZM345.092 198.086V193.444H341.559V191.316H345.092V188.547H341.559V186.393H345.092V180.418H347.729V198.086H345.092ZM341.457 183.059V185.162H328.631V183.059H333.828V180.392H336.465V183.059H341.457ZM332.317 190.726C332.317 192.239 333.469 193.137 335.133 193.137C336.823 193.137 337.975 192.239 337.975 190.726C337.975 189.239 336.823 188.29 335.133 188.29C333.469 188.29 332.317 189.239 332.317 190.726ZM340.458 190.726C340.458 193.393 338.282 195.214 335.133 195.214C332.01 195.214 329.834 193.393 329.834 190.726C329.834 188.034 332.01 186.239 335.133 186.239C338.282 186.239 340.458 188.034 340.458 190.726ZM335.338 200.983H348.266V203.137H332.676V196.598H335.338V200.983ZM357.25 197.034V201.188H367.874V197.034H357.25ZM354.665 203.291V194.932H370.46V203.291H354.665ZM369.871 189.983H373.071V192.137H352.13V189.983H367.234C367.823 187.393 367.874 185.444 367.874 183.7H354.767V181.546H370.46V183.341C370.46 185.162 370.46 187.213 369.871 189.983ZM376.576 201.599V199.163H380.698V186.034H377.319V184.162C379.085 183.829 380.339 183.393 381.415 182.7H383.642V199.163H387.328V201.599H376.576ZM397.807 183.598C395.81 183.598 394.376 184.649 394.376 186.265C394.376 187.906 395.81 188.957 397.807 188.957C399.829 188.957 401.237 187.906 401.237 186.265C401.237 184.649 399.829 183.598 397.807 183.598ZM397.807 191.137C394.351 191.137 391.842 189.137 391.842 186.265C391.842 183.418 394.351 181.418 397.807 181.418C401.263 181.418 403.771 183.418 403.771 186.265C403.771 189.137 401.263 191.137 397.807 191.137ZM405.256 192.008L405.435 193.957C403.413 194.368 401.288 194.598 399.24 194.752V202.881H396.603V194.906C394.427 194.983 392.379 195.009 390.587 195.009L390.28 192.829C394.453 192.829 400.264 192.752 405.256 192.008ZM406.767 180.418H409.403V203.599H406.767V180.418ZM518.532 206.214L525.649 181.11H527.697L520.58 206.214H518.532ZM537.38 192.829L536.458 190.752C540.938 190.213 544.113 187.777 544.343 185.29H537.226V183.162H544.369V180.444H547.005V183.162H554.173V185.29H547.031C547.261 187.752 550.436 190.213 554.916 190.752L553.969 192.829C550.205 192.342 547.185 190.624 545.674 188.316C544.189 190.624 541.169 192.316 537.38 192.829ZM556.145 194.342V196.522H547.005V203.624H544.369V196.522H535.255V194.342H556.145ZM559.931 182.854H570.658C570.658 189.572 567.791 195.521 560.239 199.342L558.779 197.316C564.437 194.419 567.483 190.342 568.021 185.008H559.931V182.854ZM580.207 189.547V191.752H576.699V203.548H574.063V180.392H576.699V189.547H580.207ZM663.507 206.214L670.624 181.11H672.672L665.555 206.214H663.507ZM682.355 192.829L681.433 190.752C685.913 190.213 689.088 187.777 689.318 185.29H682.201V183.162H689.344V180.444H691.98V183.162H699.148V185.29H692.006C692.236 187.752 695.411 190.213 699.891 190.752L698.944 192.829C695.18 192.342 692.16 190.624 690.649 188.316C689.164 190.624 686.144 192.316 682.355 192.829ZM701.12 194.342V196.522H691.98V203.624H689.344V196.522H680.23V194.342H701.12ZM704.906 182.854H715.633C715.633 189.572 712.768 195.521 705.213 199.342L703.754 197.316C709.412 194.419 712.462 190.342 712.995 185.008H704.906V182.854ZM725.184 189.547V191.752H721.678V203.548H719.04V180.392H721.678V189.547H725.184Z" fill="#444444"/>
<path d="M421.705 192.829L420.783 190.752C425.263 190.213 428.438 187.777 428.668 185.29H421.551V183.162H428.694V180.444H431.331V183.162H438.498V185.29H431.356C431.586 187.752 434.761 190.213 439.241 190.752L438.294 192.829C434.531 192.342 431.51 190.624 429.999 188.316C428.515 190.624 425.494 192.316 421.705 192.829ZM440.47 194.342V196.522H431.331V203.624H428.694V196.522H419.58V194.342H440.47ZM455.392 187.367H459.642V180.444H462.279V197.65H459.642V189.547H455.392V187.367ZM456.877 192.547L455.597 194.624C452.986 193.803 451.04 192.111 450.016 189.931C448.992 192.291 447.072 194.137 444.384 195.034L443.079 192.983C446.637 191.778 448.634 188.957 448.634 185.906V185.47H443.77V183.341H448.634V180.572H451.296V183.341H456.135V185.47H451.271V185.906C451.271 188.752 453.319 191.444 456.877 192.547ZM449.94 200.983H462.868V203.137H447.303V196.163H449.94V200.983ZM483.218 201.163V198.599H473.413V201.163H483.218ZM483.218 196.547V193.932H485.829V203.291H470.802V193.932H473.413V196.547H483.218ZM473.029 190.111C475.026 190.111 476.511 188.803 476.511 186.854C476.511 184.88 475.026 183.623 473.029 183.623C470.981 183.623 469.522 184.88 469.522 186.854C469.522 188.803 470.981 190.111 473.029 190.111ZM483.193 180.418H485.829V192.829H483.193V187.906H478.917C478.457 190.521 476.101 192.291 473.029 192.291C469.548 192.291 466.988 190.06 466.988 186.854C466.988 183.675 469.548 181.444 473.029 181.444C476.076 181.444 478.405 183.162 478.917 185.752H483.193V180.418ZM497.168 186.675V187.495C497.168 191.111 498.73 194.803 501.904 196.522L500.445 198.496C498.269 197.316 496.784 195.188 495.939 192.675C495.12 195.393 493.661 197.727 491.459 199.009L489.949 197.009C493.123 195.137 494.659 191.188 494.659 187.495V186.675H490.666V184.495H494.659V181.213H497.168V184.495H501.136V186.675H497.168ZM502.774 189.393V180.88H505.258V202.445H502.774V191.547H499.651V189.393H502.774ZM507.434 180.418H509.942V203.573H507.434V180.418Z" fill="#E50083"/>
<path d="M596.631 184.906V187.111C596.631 190.957 599.012 194.957 602.621 196.496L601.162 198.573C598.474 197.393 596.401 194.88 595.326 191.88C594.302 195.111 592.228 197.855 589.514 199.163L588.004 197.06C591.588 195.393 593.969 191.085 593.969 187.111V184.906H588.823V182.726H601.777V184.906H596.631ZM604.465 180.418H607.127V203.573H604.465V180.418ZM623.637 194.009H628.168V180.392H630.805V198.009H628.168V195.855H623.637V194.009ZM619.029 183.239C617.109 183.239 615.803 184.059 615.803 185.367C615.803 186.675 617.109 187.495 619.029 187.495C620.923 187.495 622.229 186.675 622.229 185.367C622.229 184.059 620.923 183.239 619.029 183.239ZM619.029 189.444C615.624 189.444 613.295 187.829 613.295 185.367C613.295 182.905 615.624 181.29 619.029 181.29C622.408 181.29 624.738 182.905 624.738 185.367C624.738 187.829 622.408 189.444 619.029 189.444ZM617.979 197.265V192.957C615.778 193.06 613.704 193.085 611.861 193.085L611.528 190.931C615.778 190.906 621.461 190.855 626.351 190.239L626.555 192.137C624.61 192.47 622.587 192.675 620.616 192.803V197.265H617.979ZM617.288 200.983H631.343V203.137H614.651V196.291H617.288V200.983ZM640.326 197.034V201.188H650.95V197.034H640.326ZM637.74 203.291V194.932H653.536V203.291H637.74ZM652.947 189.983H656.147V192.137H635.206V189.983H650.31C650.899 187.393 650.95 185.444 650.95 183.7H637.843V181.546H653.536V183.341C653.536 185.162 653.536 187.213 652.947 189.983Z" fill="#5AA000"/>
<path d="M749.59 185.624H744.242C742.806 189.162 739.407 191.521 734.308 192.675L733.391 190.521C738.866 189.342 741.711 186.803 742.066 183.572H734.642V181.444H744.982C744.982 182.187 744.932 182.905 744.804 183.572H749.59V180.418H752.228V192.162H749.59V190.06H743.936V188.008H749.59V185.624ZM739.862 201.24H752.868V203.368H737.231V197.137H749.59V195.214H737.174V193.111H752.228V199.111H739.862V201.24ZM770.304 182.623V184.752H756.658V182.623H762.162V180.213H764.8V182.623H770.304ZM760.392 189.675C760.392 191.008 761.622 191.803 763.464 191.803C765.312 191.803 766.564 191.008 766.564 189.675C766.564 188.367 765.312 187.572 763.464 187.572C761.622 187.572 760.392 188.367 760.392 189.675ZM769.074 189.675C769.074 192.137 766.82 193.778 763.464 193.778C760.136 193.778 757.86 192.137 757.86 189.675C757.86 187.239 760.136 185.598 763.464 185.598C766.82 185.598 769.074 187.239 769.074 189.675ZM772.068 201.188V199.06H762.518V201.188H772.068ZM772.068 197.009V194.88H774.678V203.291H759.908V194.88H762.518V197.009H772.068ZM777.956 186.188V188.367H774.678V193.932H772.04V180.418H774.678V186.188H777.956ZM793.849 182.367V184.367H780.203V182.367H785.707V180.187H788.345V182.367H793.849ZM783.944 188.983C783.944 190.162 785.145 190.855 787.016 190.855C788.907 190.855 790.116 190.162 790.116 188.983C790.116 187.778 788.907 187.085 787.016 187.085C785.145 187.085 783.944 187.778 783.944 188.983ZM792.619 188.983C792.619 191.316 790.422 192.752 787.016 192.752C783.638 192.752 781.412 191.316 781.412 188.983C781.412 186.624 783.638 185.162 787.016 185.162C790.422 185.162 792.619 186.624 792.619 188.983ZM785.942 199.573V201.394H798.998V203.368H783.353V197.727H795.62V196.06H783.304V194.111H798.23V199.573H785.942ZM798.23 185.649H801.508V187.829H798.23V193.06H795.592V180.367H798.23V185.649ZM822.777 180.418V197.24H820.139V180.418H822.777ZM806.749 187.752C806.749 189.855 808.264 191.265 810.312 191.265C812.331 191.265 813.867 189.855 813.867 187.752C813.867 185.624 812.331 184.239 810.312 184.239C808.264 184.239 806.749 185.624 806.749 187.752ZM816.427 187.752C816.427 191.111 813.789 193.547 810.312 193.547C806.827 193.547 804.168 191.111 804.168 187.752C804.168 184.367 806.827 181.957 810.312 181.957C813.789 181.957 816.427 184.367 816.427 187.752ZM810.333 200.983H823.446V203.137H807.673V195.547H810.333V200.983Z" fill="#EE7623"/>
<path d="M203.377 258.582H41.2439C37.3166 258.582 34.1328 261.771 34.1328 265.705V484.614C34.1328 488.548 37.3166 491.737 41.2439 491.737H203.377C207.305 491.737 210.488 488.548 210.488 484.614V265.705C210.488 261.771 207.305 258.582 203.377 258.582Z" fill="white"/>
<path d="M147.2 300.607C147.2 286.838 136.057 275.677 122.311 275.677C108.565 275.677 97.4219 286.838 97.4219 300.607C97.4219 314.375 108.565 325.537 122.311 325.537C136.057 325.537 147.2 314.375 147.2 300.607Z" fill="#F4F5FD"/>
<path d="M116.588 312.003V308.952H120.658V296.951H117.228V294.618C119.122 294.259 120.428 293.772 121.631 293.002H124.421V308.952H127.98V312.003H116.588Z" fill="#0F1CA9" fill-opacity="0.8"/>
<path fill-rule="evenodd" clip-rule="evenodd" d="M93.867 359.727C89.9395 359.727 86.7559 362.916 86.7559 366.85V401.277C86.7559 405.211 89.9395 408.4 93.867 408.4H96.2371V377.097C96.2371 373.163 99.4207 369.974 103.348 369.974H128.237V366.85C128.237 362.916 125.053 359.727 121.126 359.727H93.867Z" fill="#0F1CA9"/>
<path fill-rule="evenodd" clip-rule="evenodd" d="M104.888 372.785C101.746 372.785 99.1992 375.337 99.1992 378.483V413.386C99.1992 416.533 101.746 419.084 104.888 419.084H134.992C138.134 419.084 140.68 416.533 140.68 413.386V378.483C140.68 375.337 138.134 372.785 134.992 372.785H104.888ZM102.162 381.943C102.162 378.402 105.027 375.532 108.562 375.532H131.318C134.852 375.532 137.718 378.402 137.718 381.943V409.485C137.718 413.025 134.852 415.896 131.318 415.896H108.562C105.027 415.896 102.162 413.025 102.162 409.485V381.943Z" fill="#0F1CA9"/>
<path d="M130.015 384.063H107.497C106.515 384.063 105.719 384.861 105.719 385.844C105.719 386.828 106.515 387.625 107.497 387.625H130.015C130.997 387.625 131.793 386.828 131.793 385.844C131.793 384.861 130.997 384.063 130.015 384.063Z" fill="#0F1CA9"/>
<path d="M125.274 393.561H107.497C106.515 393.561 105.719 394.358 105.719 395.341C105.719 396.325 106.515 397.122 107.497 397.122H125.274C126.256 397.122 127.052 396.325 127.052 395.341C127.052 394.358 126.256 393.561 125.274 393.561Z" fill="#0F1CA9"/>
<path d="M118.163 403.057H107.497C106.515 403.057 105.719 403.855 105.719 404.838C105.719 405.822 106.515 406.619 107.497 406.619H118.163C119.145 406.619 119.941 405.822 119.941 404.838C119.941 403.855 119.145 403.057 118.163 403.057Z" fill="#0F1CA9"/>
<path d="M135.015 389.999H130.212C129.77 389.999 129.422 390.347 129.422 390.79V395.602C129.422 395.807 129.501 396.013 129.659 396.155L146.897 413.438L152.822 407.503L135.584 390.236C135.426 390.078 135.237 389.999 135.015 389.999Z" fill="#0F1CA9"/>
<path d="M153.707 418.028L157.404 414.325C158.021 413.707 158.021 412.71 157.404 412.093L154.513 409.197L148.588 415.132L151.479 418.028C152.095 418.645 153.091 418.645 153.707 418.028Z" fill="#0F1CA9"/>
<path d="M65.6006 459.924L64.0305 462.249C61.8232 461.519 60.2986 460.106 59.4111 458.328C58.5009 460.38 56.8852 461.998 54.4959 462.841L52.9258 460.471C56.4301 459.308 57.841 456.505 57.841 453.656V451.764H60.8902V453.906C60.8902 456.436 62.3011 458.898 65.6006 459.924ZM62.8927 469.292C65.5551 469.292 66.9887 468.745 66.9887 467.559C66.9887 466.397 65.5551 465.85 62.8927 465.85C60.2076 465.85 58.774 466.397 58.774 467.559C58.774 468.745 60.2076 469.292 62.8927 469.292ZM62.8927 463.525C67.239 463.525 69.9697 465.029 69.9697 467.559C69.9697 470.112 67.239 471.617 62.8927 471.617C58.5236 471.617 55.793 470.112 55.793 467.559C55.793 465.029 58.5236 463.525 62.8927 463.525ZM69.7421 455.502H72.5183V457.986H69.7421V463.046H66.7384V450.647H69.7421V455.502ZM86.0337 458.624L86.3295 460.995C83.7581 461.565 81.3688 461.679 76.7267 461.679H74.9745V451.9H84.3043V454.317H77.9555V459.263C81.6874 459.24 83.7581 459.103 86.0337 458.624ZM80.0035 465.668V469.018H87.7404V465.668H80.0035ZM77.0452 471.366V463.297H90.6758V471.366H77.0452ZM93.452 455.342V457.781H90.6758V462.385H87.6721V450.601H90.6758V455.342H93.452ZM94.4511 473.805L100.117 451.285H102.325L96.6812 473.805H94.4511ZM121.341 450.647V465.941H118.315V450.647H121.341ZM116.767 460.38L115.243 462.773C112.922 461.975 111.329 460.425 110.418 458.465C109.463 460.585 107.824 462.294 105.389 463.138L103.865 460.744C107.346 459.559 108.848 456.619 108.848 453.815V451.786H111.898V453.815C111.898 456.596 113.354 459.285 116.767 460.38ZM110.396 468.859H121.864V471.252H107.392V464.482H110.396V468.859ZM136.131 456.231H139.385V450.624H142.389V463.297H139.385V458.647H136.131V456.231ZM137.451 460.334L136.085 462.636C133.741 462.021 132.103 460.721 131.147 459.058C130.214 460.972 128.576 462.454 126.141 463.16L124.73 460.835C128.053 459.878 129.509 457.508 129.554 455.16H125.458V452.789H129.554V450.556H132.558V452.789H136.7V455.16H132.558C132.604 457.325 134.106 459.445 137.451 460.334ZM135.312 469.314C138.042 469.314 139.476 468.79 139.476 467.651C139.476 466.511 138.042 465.964 135.312 465.964C132.535 465.964 131.125 466.511 131.125 467.651C131.125 468.79 132.535 469.314 135.312 469.314ZM135.312 463.662C139.749 463.662 142.48 465.121 142.48 467.651C142.48 470.158 139.749 471.617 135.312 471.617C130.851 471.617 128.121 470.158 128.121 467.651C128.121 465.121 130.851 463.662 135.312 463.662ZM163.585 459.741L162.128 462.089C159.83 461.337 158.26 459.832 157.372 457.963C156.439 460.015 154.801 461.679 152.366 462.499L150.842 460.129C154.096 459.035 155.62 456.505 155.757 453.975H151.661V451.581H162.925V453.975H158.874C159.011 456.3 160.467 458.693 163.585 459.741ZM165.496 468.973V467.172H157.554V468.973H165.496ZM165.496 464.87V462.955H168.477V471.366H154.596V462.955H157.554V464.87H165.496ZM165.473 450.624H168.477V462.112H165.473V457.758H162.31V455.319H165.473V450.624ZM190.162 458.077L189.024 460.493C185.36 459.946 182.743 458.237 181.401 455.98C180.058 458.237 177.419 459.946 173.755 460.493L172.617 458.077C177.396 457.416 179.785 454.704 179.785 452.242V451.239H182.994V452.242C182.994 454.681 185.406 457.416 190.162 458.077ZM190.844 462.043V464.482H182.812V471.639H179.808V464.482H171.912V462.043H190.844Z" fill="#0F1CA9"/>
<path d="M398.223 258.582H236.09C232.162 258.582 228.979 261.771 228.979 265.705V485.325C228.979 489.259 232.162 492.448 236.09 492.448H398.223C402.15 492.448 405.334 489.259 405.334 485.325V265.705C405.334 261.771 402.15 258.582 398.223 258.582Z" fill="white"/>
<path d="M342.045 300.607C342.045 286.838 330.902 275.677 317.156 275.677C303.411 275.677 292.268 286.838 292.268 300.607C292.268 314.375 303.411 325.537 317.156 325.537C330.902 325.537 342.045 314.375 342.045 300.607Z" fill="#F4F5FD"/>
<path d="M310.435 312.003V309.824C315.581 305.208 318.627 301.644 318.627 298.721C318.627 296.797 317.603 295.643 315.785 295.643C314.403 295.643 313.277 296.541 312.304 297.592L310.256 295.541C311.997 293.669 313.686 292.669 316.272 292.669C319.856 292.669 322.237 294.977 322.237 298.515C322.237 301.951 319.395 305.644 315.939 309.029C316.886 308.926 318.141 308.824 319.037 308.824H323.133V312.003H310.435Z" fill="#0F1CA9" fill-opacity="0.8"/>
<path fill-rule="evenodd" clip-rule="evenodd" d="M306.815 364.001V367.387H328.209V364.001C328.209 361.64 330.119 359.727 332.475 359.727C334.832 359.727 336.742 361.64 336.742 364.001V367.387H347.022C350.164 367.387 352.711 369.938 352.711 373.085V414.096C352.711 417.243 350.164 419.795 347.022 419.795H287.288C284.147 419.795 281.6 417.243 281.6 414.096V373.085C281.6 369.938 284.147 367.387 287.288 367.387H298.282V364.001C298.282 361.64 300.192 359.727 302.548 359.727C304.905 359.727 306.815 361.64 306.815 364.001ZM290.45 398.473C289.273 398.473 288.317 399.43 288.317 400.61C288.317 401.79 289.273 402.747 290.45 402.747H297.932C299.11 402.747 300.066 401.79 300.066 400.61C300.066 399.43 299.11 398.473 297.932 398.473H290.45ZM304.095 400.61C304.095 399.43 305.05 398.473 306.228 398.473H313.71C314.888 398.473 315.843 399.43 315.843 400.61C315.843 401.79 314.888 402.747 313.71 402.747H306.228C305.05 402.747 304.095 401.79 304.095 400.61ZM322.006 398.473C320.828 398.473 319.873 399.43 319.873 400.61C319.873 401.79 320.828 402.747 322.006 402.747H329.488C330.666 402.747 331.621 401.79 331.621 400.61C331.621 399.43 330.666 398.473 329.488 398.473H322.006ZM335.651 400.61C335.651 399.43 336.606 398.473 337.785 398.473H345.266C346.444 398.473 347.399 399.43 347.399 400.61C347.399 401.79 346.444 402.747 345.266 402.747H337.785C336.606 402.747 335.651 401.79 335.651 400.61ZM290.45 407.971C289.273 407.971 288.317 408.927 288.317 410.108C288.317 411.287 289.273 412.245 290.45 412.245H297.932C299.11 412.245 300.066 411.287 300.066 410.108C300.066 408.927 299.11 407.971 297.932 407.971H290.45ZM304.095 410.108C304.095 408.927 305.05 407.971 306.228 407.971H313.71C314.888 407.971 315.843 408.927 315.843 410.108C315.843 411.287 314.888 412.245 313.71 412.245H306.228C305.05 412.245 304.095 411.287 304.095 410.108ZM322.006 407.971C320.828 407.971 319.873 408.927 319.873 410.108C319.873 411.287 320.828 412.245 322.006 412.245H329.488C330.666 412.245 331.621 411.287 331.621 410.108C331.621 408.927 330.666 407.971 329.488 407.971H322.006ZM335.651 410.108C335.651 408.927 336.606 407.971 337.785 407.971H345.266C346.444 407.971 347.399 408.927 347.399 410.108C347.399 411.287 346.444 412.245 345.266 412.245H337.785C336.606 412.245 335.651 411.287 335.651 410.108ZM300.415 370.773C300.415 371.953 301.37 372.91 302.548 372.91C303.727 372.91 304.682 371.953 304.682 370.773V364.001C304.682 362.82 303.727 361.864 302.548 361.864C301.37 361.864 300.415 362.82 300.415 364.001V370.773ZM332.475 372.91C331.297 372.91 330.342 371.953 330.342 370.773V364.001C330.342 362.82 331.297 361.864 332.475 361.864C333.654 361.864 334.609 362.82 334.609 364.001V370.773C334.609 371.953 333.654 372.91 332.475 372.91ZM294.636 377.059H287.525V391.305H294.636H339.674H346.785V377.059H339.674H294.636Z" fill="#0F1CA9"/>
<path d="M264.386 462.002V456.805H260.563V454.412H264.386V451.335H267.39V462.002H264.386ZM262.384 459.449L260.859 461.751C258.652 461.045 257.105 459.654 256.217 457.899C255.284 459.86 253.646 461.41 251.256 462.162L249.709 459.814C253.191 458.766 254.647 456.19 254.647 453.523V452.019H257.673V453.523C257.673 456.008 259.107 458.446 262.384 459.449ZM256.558 469.752H267.982V472.077H253.6V466.356H264.432V465.193H253.577V462.891H267.39V468.521H256.558V469.752ZM278.971 457.147V457.877C278.971 460.908 280.632 464.327 284.068 465.809L282.476 468.111C280.109 467.131 278.448 465.125 277.515 462.732C276.582 465.262 274.898 467.404 272.509 468.475L270.893 466.173C274.329 464.623 275.967 461.068 275.967 457.877V457.147H271.598V454.754H275.967V451.836H278.971V454.754H283.249V457.147H278.971ZM285.183 451.335H288.187V472.328H285.183V451.335ZM314.298 451.335V461.843H311.272V451.335H314.298ZM300.099 456.737C300.099 458.241 301.26 459.107 302.807 459.107C304.354 459.107 305.469 458.241 305.469 456.737C305.469 455.255 304.354 454.366 302.807 454.366C301.26 454.366 300.099 455.255 300.099 456.737ZM308.382 456.737C308.382 459.541 305.993 461.546 302.807 461.546C299.598 461.546 297.186 459.541 297.186 456.737C297.186 453.956 299.598 451.95 302.807 451.95C305.993 451.95 308.382 453.956 308.382 456.737ZM303.33 469.752H314.822V472.077H300.349V466.287H311.318V465.011H300.327V462.709H314.298V468.43H303.33V469.752ZM329.202 456.395H332.342V451.335H335.346V463.826H332.342V458.834H329.202V456.395ZM330.454 460.908L328.997 463.256C326.722 462.504 325.151 461.022 324.241 459.176C323.331 461.296 321.67 463.005 319.235 463.826L317.71 461.455C321.033 460.293 322.557 457.626 322.648 455.005H318.53V452.589H329.794V455.005H325.72C325.811 457.398 327.268 459.86 330.454 460.908ZM328.269 470.071C331 470.071 332.433 469.501 332.433 468.316C332.433 467.131 331 466.561 328.269 466.561C325.516 466.561 324.082 467.131 324.082 468.316C324.082 469.501 325.516 470.071 328.269 470.071ZM328.269 464.281C332.706 464.281 335.437 465.763 335.437 468.316C335.437 470.869 332.706 472.35 328.269 472.35C323.809 472.35 321.078 470.869 321.078 468.316C321.078 465.763 323.809 464.281 328.269 464.281ZM345.824 463.734L344.664 461.364C349.055 460.68 351.49 458.059 351.763 455.324H345.483V452.93H361.275V455.324H354.995C355.268 458.059 357.703 460.589 362.208 461.25L361.07 463.621C357.384 462.959 354.722 461.204 353.402 458.743C352.105 461.25 349.465 463.073 345.824 463.734ZM354.904 467.45H362.891V469.889H343.913V467.45H351.9V462.823H354.904V467.45ZM374.313 453.728C371.286 453.728 369.853 454.161 369.853 455.096C369.853 456.076 371.286 456.486 374.313 456.486C377.362 456.486 378.796 456.076 378.796 455.096C378.796 454.161 377.362 453.728 374.313 453.728ZM374.313 458.674C369.534 458.674 366.735 457.421 366.735 455.096C366.735 452.794 369.534 451.517 374.313 451.517C379.114 451.517 381.913 452.794 381.913 455.096C381.913 457.421 379.114 458.674 374.313 458.674ZM376.11 463.324V461.865H372.561V463.324H376.11ZM383.802 461.865H379.114V463.324H381.481V468.726H370.012V469.911H382.027V472.168H367.031V466.652H378.523V465.535H366.985V463.324H369.557V461.865H364.824V459.495H383.802V461.865Z" fill="#0F1CA9"/>
<path d="M593.067 258.582H430.933C427.006 258.582 423.822 261.771 423.822 265.705V484.614C423.822 488.548 427.006 491.737 430.933 491.737H593.067C596.994 491.737 600.178 488.548 600.178 484.614V265.705C600.178 261.771 596.994 258.582 593.067 258.582Z" fill="white"/>
<path d="M536.889 300.607C536.889 286.838 525.746 275.677 512 275.677C498.254 275.677 487.111 286.838 487.111 300.607C487.111 314.375 498.254 325.537 512 325.537C525.746 325.537 536.889 314.375 536.889 300.607Z" fill="#F4F5FD"/>
<path d="M511.193 312.362C508.197 312.362 506.175 311.234 504.844 309.721L506.61 307.336C507.737 308.439 509.119 309.285 510.834 309.285C512.754 309.285 514.06 308.336 514.06 306.618C514.06 304.772 512.959 303.593 508.837 303.593V300.9C512.319 300.9 513.445 299.695 513.445 298.003C513.445 296.515 512.524 295.643 510.911 295.643C509.554 295.643 508.453 296.259 507.327 297.31L505.407 295.002C507.045 293.566 508.863 292.669 511.09 292.669C514.751 292.669 517.234 294.49 517.234 297.721C517.234 299.772 516.082 301.259 514.085 302.054V302.182C516.21 302.772 517.849 304.362 517.849 306.849C517.849 310.337 514.802 312.362 511.193 312.362Z" fill="#0F1CA9" fill-opacity="0.8"/>
<path d="M483.845 411.646H537.41V397.204H544.81V412.833C544.81 416.271 542.013 419.084 538.595 419.084H482.66C479.242 419.084 476.445 416.271 476.445 412.833V375.324C476.445 371.886 479.242 369.073 482.66 369.073H510.628V376.511H483.845V411.646Z" fill="#0F1CA9"/>
<path d="M519.95 394.078L501.305 406.581V381.575L519.95 394.078Z" fill="#0F1CA9"/>
<path d="M543.908 373.98C544.001 374.886 544.033 375.793 543.939 376.668L547.264 379.325C547.575 379.575 547.637 379.981 547.451 380.325L544.249 385.92C544.063 386.264 543.659 386.389 543.287 386.264L539.309 384.701C538.594 385.232 537.817 385.671 536.978 386.014L536.357 390.265C536.295 390.671 535.984 390.953 535.58 390.953H529.148C528.774 390.953 528.433 390.671 528.37 390.296L527.749 386.045C526.941 385.701 526.165 385.232 525.45 384.732L521.472 386.295C521.099 386.452 520.695 386.295 520.508 385.952L517.308 380.357C517.121 380.013 517.184 379.606 517.495 379.356L520.819 376.668C520.726 375.762 520.695 374.855 520.789 373.98L517.463 371.323C517.153 371.073 517.09 370.667 517.277 370.323L520.478 364.728C520.664 364.384 521.068 364.259 521.441 364.384L525.387 365.947C526.102 365.416 526.879 364.978 527.718 364.634L528.34 360.383C528.402 360.008 528.712 359.727 529.116 359.727H535.549C535.922 359.727 536.264 360.008 536.326 360.383L536.947 364.634C537.755 364.978 538.532 365.446 539.247 365.947L543.224 364.384C543.597 364.228 544.001 364.384 544.188 364.728L547.388 370.323C547.575 370.667 547.513 371.073 547.202 371.323L543.908 373.98ZM532.379 370.636C529.8 370.636 527.718 372.73 527.718 375.324C527.718 377.919 529.8 380.013 532.379 380.013C534.958 380.013 537.04 377.919 537.04 375.324C537.04 372.73 534.958 370.636 532.379 370.636Z" fill="#0F1CA9"/>
<path d="M446.584 452.789H456.642C456.642 459.217 454.48 464.46 447.039 468.061L445.469 465.69C450.816 463.115 453.137 459.833 453.57 455.183H446.584V452.789ZM459.85 450.601H462.877V471.594H459.85V450.601ZM474.071 452.242V455.297C474.071 459.08 475.55 462.887 478.918 464.551L477.098 466.921C474.913 465.804 473.434 463.776 472.569 461.269C471.659 463.935 470.089 466.146 467.722 467.309L465.925 464.87C469.452 463.206 471.045 459.194 471.045 455.297V452.242H474.071ZM485.813 458.693V461.2H482.764V471.617H479.76V450.624H482.764V458.693H485.813ZM494.981 459.468V456.869H490.863V459.468H494.981ZM497.939 451.969V461.816H487.904V451.969H490.863V454.567H494.981V451.969H497.939ZM496.915 469.315C499.601 469.315 501.034 468.745 501.034 467.559C501.034 466.374 499.601 465.804 496.915 465.804C494.253 465.804 492.819 466.374 492.819 467.559C492.819 468.745 494.253 469.315 496.915 469.315ZM496.915 463.457C501.285 463.457 504.015 464.984 504.015 467.559C504.015 470.112 501.285 471.639 496.915 471.639C492.569 471.639 489.839 470.112 489.839 467.559C489.839 464.984 492.569 463.457 496.915 463.457ZM503.788 455.525H506.564V457.986H503.788V463.001H500.784V450.647H503.788V455.525ZM521.809 456.961V453.861H513.503V456.961H521.809ZM524.767 451.513V459.331H510.545V451.513H524.767ZM513.412 465.166V468.859H525.085V471.252H510.408V465.166H513.412ZM508.201 460.995H527.179V463.366H519.465V466.944H516.461V463.366H508.201V460.995ZM528.497 473.805L534.163 451.285H536.37L530.727 473.805H528.497ZM552.497 461.291V456.095H548.674V453.701H552.497V450.624H555.5V461.291H552.497ZM550.494 458.739L548.97 461.041C546.762 460.334 545.215 458.944 544.327 457.189C543.394 459.149 541.756 460.699 539.367 461.451L537.819 459.103C541.301 458.055 542.757 455.479 542.757 452.812V451.308H545.784V452.812C545.784 455.297 547.217 457.736 550.494 458.739ZM544.669 469.041H556.092V471.366H541.711V465.645H552.542V464.482H541.688V462.18H555.5V467.81H544.669V469.041ZM567.082 456.436V457.166C567.082 460.197 568.743 463.616 572.179 465.098L570.586 467.4C568.219 466.42 566.558 464.414 565.625 462.021C564.692 464.551 563.008 466.693 560.619 467.765L559.003 465.463C562.439 463.913 564.078 460.357 564.078 457.166V456.436H559.709V454.043H564.078V451.126H567.082V454.043H571.36V456.436H567.082ZM573.294 450.624H576.298V471.617H573.294V450.624Z" fill="#0F1CA9"/>
<path d="M787.91 258.582H625.777C621.85 258.582 618.666 261.771 618.666 265.705V484.614C618.666 488.548 621.85 491.737 625.777 491.737H787.91C791.838 491.737 795.022 488.548 795.022 484.614V265.705C795.022 261.771 791.838 258.582 787.91 258.582Z" fill="white"/>
<path d="M731.733 300.607C731.733 286.838 720.59 275.677 706.844 275.677C693.098 275.677 681.955 286.838 681.955 300.607C681.955 314.375 693.098 325.537 706.844 325.537C720.59 325.537 731.733 314.375 731.733 300.607Z" fill="#F4F5FD"/>
<path d="M703.221 304.208H707.65V300.336C707.65 299.234 707.727 297.515 707.778 296.387H707.676C707.215 297.413 706.703 298.464 706.165 299.49L703.221 304.208ZM707.65 312.003V307.08H699.561V304.516L706.626 293.002H711.155V304.208H713.387V307.08H711.155V312.003H707.65Z" fill="#0F1CA9" fill-opacity="0.8"/>
<path d="M735.495 374.353L684.652 413.742C682.108 415.71 683.925 419.084 687.519 419.084H738.361C740.579 419.084 742.4 417.678 742.4 415.96V376.572C742.4 373.791 738.041 372.385 735.495 374.353ZM734.322 412.837H726.243V390.284L734.322 384.037V412.837Z" fill="#0F1CA9"/>
<path d="M692.365 383.724C691.234 384.256 691.073 385.474 692.002 386.192L695.312 388.753C696.888 389.972 699.432 389.972 701.007 388.753L704.318 386.192C705.247 385.474 705.045 384.256 703.955 383.724C700.442 382.038 695.918 382.038 692.365 383.724Z" fill="#0F1CA9"/>
<path d="M687.56 379.414C693.901 375.916 702.502 375.916 708.843 379.414C710.296 380.226 712.278 380.101 713.529 379.102C715.101 377.883 714.937 375.79 713.124 374.791C704.239 369.887 692.164 369.887 683.24 374.791C681.422 375.79 681.22 377.883 682.836 379.102C684.128 380.101 686.107 380.226 687.56 379.414Z" fill="#0F1CA9"/>
<path d="M719.218 371.261C720.59 372.136 722.574 372.136 723.826 371.168L724.309 370.793C725.725 369.7 725.561 367.919 723.982 366.919C709.165 357.392 687.56 357.33 672.699 366.732C670.963 367.825 670.801 369.824 672.376 371.012C673.668 372.042 675.768 372.167 677.181 371.261C689.337 363.515 707.065 363.515 719.218 371.261Z" fill="#0F1CA9"/>
<path d="M666.663 453.222H674.924C674.924 459.103 673.194 463.912 667.346 467.331L665.594 465.235C669.804 462.773 671.578 459.741 671.965 455.616H666.663V453.222ZM680.954 450.624H683.821V471.617H680.954V460.949H679.088V470.728H676.289V451.171H679.088V458.533H680.954V450.624ZM696.221 469.428C699.134 469.428 700.477 469.041 700.477 468.175C700.477 467.309 699.134 466.944 696.221 466.944C693.331 466.944 691.989 467.309 691.989 468.175C691.989 469.041 693.331 469.428 696.221 469.428ZM696.221 464.733C700.841 464.733 703.503 465.918 703.503 468.175C703.503 470.409 700.841 471.617 696.221 471.617C691.625 471.617 688.962 470.409 688.962 468.175C688.962 465.918 691.625 464.733 696.221 464.733ZM697.746 461.451H705.733V463.799H686.778V461.451H694.742V460.152H689.144V451.171H703.571V453.45H692.125V454.544H703.093V456.733H692.125V457.872H703.731V460.152H697.746V461.451ZM711.559 455.73C711.559 457.006 712.533 457.736 713.969 457.736C715.406 457.736 716.43 457.006 716.43 455.73C716.43 454.453 715.406 453.724 713.969 453.724C712.533 453.724 711.559 454.453 711.559 455.73ZM720.248 460.927L720.433 463.046C716.202 463.844 711.487 463.912 708.029 463.912L707.665 461.519C709.099 461.519 710.76 461.519 712.49 461.474V459.855C710.259 459.377 708.757 457.804 708.757 455.73C708.757 453.222 710.942 451.467 713.969 451.467C717.02 451.467 719.203 453.222 719.203 455.73C719.203 457.781 717.724 459.354 715.491 459.855V461.36C717.112 461.268 718.748 461.155 720.248 460.927ZM713.4 465.28V468.859H725.048V471.252H710.396V465.28H713.4ZM724.344 457.211H726.983V459.696H724.344V466.648H721.343V450.624H724.344V457.211ZM736.426 463.639V466.853H740.088V463.639H736.426ZM743.047 466.853H747.647V469.315H728.647V466.853H733.468V463.639H730.851V456.596H742.549V454.362H730.83V451.969H745.507V458.944H733.831V461.246H745.983V463.639H743.047V466.853Z" fill="#0F1CA9"/>
<path d="M982.756 258.582H820.623C816.695 258.582 813.512 261.771 813.512 265.705V484.614C813.512 488.548 816.695 491.737 820.623 491.737H982.756C986.684 491.737 989.867 488.548 989.867 484.614V265.705C989.867 261.771 986.684 258.582 982.756 258.582Z" fill="white"/>
<path d="M926.578 300.607C926.578 286.838 915.434 275.677 901.689 275.677C887.943 275.677 876.8 286.838 876.8 300.607C876.8 314.375 887.943 325.537 901.689 325.537C915.434 325.537 926.578 314.375 926.578 300.607Z" fill="#F4F5FD"/>
<path d="M900.935 312.362C897.934 312.362 895.943 311.183 894.535 309.773L896.27 307.362C897.351 308.414 898.681 309.285 900.445 309.285C902.414 309.285 903.801 308.029 903.801 305.798C903.801 303.593 902.521 302.362 900.601 302.362C899.47 302.362 898.859 302.644 897.757 303.362L896.043 302.234L896.555 293.002H906.695V296.182H899.805L899.449 300.208C900.217 299.849 900.857 299.669 901.725 299.669C904.903 299.669 907.563 301.567 907.563 305.695C907.563 309.926 904.441 312.362 900.935 312.362Z" fill="#0F1CA9" fill-opacity="0.8"/>
<path d="M879.673 382.959H866.134V419.084H879.673V382.959Z" fill="#0F1CA9"/>
<path d="M930.439 402.664H906.752L899.676 400.267L900.793 397.18L906.752 399.38H916.295C918.492 399.38 920.284 397.639 920.284 395.504C920.284 393.895 919.239 392.45 917.681 391.86L893.105 382.959H886.442V412.581L910.137 419.084L937.244 409.232C937.209 405.62 934.201 402.664 930.439 402.664Z" fill="#0F1CA9"/>
<path fill-rule="evenodd" clip-rule="evenodd" d="M906.127 369.501C904.093 370.289 902.877 371.289 902.877 372.376C902.877 374.917 909.504 376.976 917.689 376.976C925.874 376.976 932.502 374.917 932.502 372.376C932.502 371.289 931.286 370.289 929.252 369.501C926.543 370.553 922.368 371.227 917.689 371.227C913.01 371.227 908.836 370.553 906.127 369.501Z" fill="#0F1CA9"/>
<path fill-rule="evenodd" clip-rule="evenodd" d="M906.127 377.551C904.093 378.339 902.877 379.338 902.877 380.426C902.877 382.967 909.504 385.026 917.689 385.026C925.874 385.026 932.502 382.967 932.502 380.426C932.502 379.338 931.286 378.339 929.252 377.551C926.543 378.603 922.368 379.276 917.689 379.276C913.01 379.276 908.836 378.603 906.127 377.551Z" fill="#0F1CA9"/>
<path d="M917.689 359.727C909.507 359.727 902.874 361.786 902.874 364.327C902.874 366.867 909.507 368.927 917.689 368.927C925.871 368.927 932.504 366.867 932.504 364.327C932.504 361.786 925.871 359.727 917.689 359.727Z" fill="#0F1CA9"/>
<path d="M875.228 466.625V462.727H872.497V460.334H875.228V458.237H872.497V455.844H875.228V450.624H878.236V466.625H875.228ZM872.27 452.835V455.183H860.778V452.835H865.173V450.556H868.174V452.835H872.27ZM864.583 460.038C864.583 461.223 865.443 461.861 866.673 461.861C867.882 461.861 868.743 461.223 868.743 460.038C868.743 458.898 867.882 458.237 866.673 458.237C865.443 458.237 864.583 458.898 864.583 460.038ZM871.566 460.038C871.566 462.476 869.518 464.186 866.673 464.186C863.808 464.186 861.76 462.476 861.76 460.038C861.76 457.622 863.808 455.935 866.673 455.935C869.518 455.935 871.566 457.622 871.566 460.038ZM867.399 468.859H878.691V471.252H864.398V465.326H867.399V468.859ZM886.833 466.055V469.018H895.367V466.055H886.833ZM883.875 471.366V463.707H898.304V471.366H883.875ZM897.913 459.126H900.622V461.519H881.642V459.126H894.933C895.367 457.029 895.438 455.411 895.438 453.952H883.989V451.559H898.396V453.245C898.396 454.932 898.396 456.71 897.913 459.126ZM910.677 455.114V456.277C910.677 459.696 912.362 463.32 915.868 464.779L914.233 467.149C911.793 466.101 910.137 464.049 909.198 461.519C908.266 464.254 906.581 466.556 904.128 467.673L902.421 465.28C905.927 463.707 907.633 459.855 907.633 456.277V455.114H903.26V452.63H915.001V455.114H910.677ZM916.935 450.624H919.943V471.617H916.935V450.624ZM937.209 468.973V467.081H928.746V468.973H937.209ZM937.209 464.756V462.568H940.217V471.389H925.767V462.568H928.746V464.756H937.209ZM939.804 458.807H942.492V461.223H923.513V458.807H936.825C937.23 456.824 937.301 455.251 937.301 453.861H925.852V451.467H940.259V453.154C940.259 454.795 940.259 456.459 939.804 458.807Z" fill="#0F1CA9"/>
<path d="M408.465 617.811V613.742H413.892V597.742H409.318V594.63C411.844 594.152 413.585 593.502 415.189 592.476H418.91V613.742H423.654V617.811H408.465ZM432.558 596.545V609.947C435.493 609.879 438.156 609.708 441.16 609.161L441.501 612.819C437.678 613.537 434.333 613.674 430.305 613.674H428.121V592.887H439.76V596.545H432.558ZM449.932 589.228H454.199V620.751H449.932V604.99H447.099V619.281H442.9V589.844H447.099V601.366H449.932V589.228ZM459.965 617.811V613.742H465.392V597.742H460.818V594.63C463.344 594.152 465.085 593.502 466.689 592.476H470.41V613.742H475.154V617.811H459.965ZM497.935 601.571V594.835H491.791V601.571H497.935ZM502.373 591.28V605.161H487.388V591.28H502.373ZM511.623 611.896H503.67C504.387 614.221 507.39 616.58 512.988 617.264L511.35 620.683C506.366 620.067 502.919 618.016 501.11 615.383C499.335 618.016 495.853 619.999 490.836 620.649L489.197 617.23C494.863 616.58 497.867 614.289 498.516 611.896H490.563V608.375H511.623V611.896ZM511.213 596.1H515.378V599.793H511.213V606.87H506.708V589.262H511.213V596.1ZM520.359 603.246L519.062 599.861C525.854 599.485 528.892 597.571 529.438 595.485H520.598V591.998H529.78V589.262H534.285V591.998H543.535V595.485H534.661C535.206 597.571 538.245 599.485 545.037 599.861L543.706 603.246C537.938 602.87 534.012 601.297 532.032 598.87C530.087 601.297 526.127 602.87 520.359 603.246ZM538.45 616.854V613.879H525.581V616.854H538.45ZM546.266 607.93H534.285V610.323H542.887V620.375H521.178V610.323H529.78V607.93H517.867V604.374H546.266V607.93ZM578.777 605.263V597.468H573.043V593.878H578.777V589.262H583.283V605.263H578.777ZM575.774 601.434L573.487 604.887C570.176 603.827 567.855 601.742 566.523 599.109C565.124 602.049 562.666 604.374 559.082 605.503L556.761 601.981C561.984 600.408 564.168 596.545 564.168 592.545V590.288H568.708V592.545C568.708 596.271 570.858 599.93 575.774 601.434ZM567.036 616.888H584.17V620.375H562.598V611.794H578.846V610.05H562.564V606.597H583.283V615.042H567.036V616.888ZM604.716 597.571V589.946H608.914V619.384H604.716V609.058H600.347V605.434H604.716V601.161H600.927C599.528 606.357 596.387 610.734 590.516 614.221L587.956 611.076C594.169 607.281 596.899 602.733 597.48 596.579H589.731V592.989H601.951C601.951 594.596 601.849 596.1 601.678 597.571H604.716ZM611.167 589.228H615.434V620.751H611.167V589.228Z" fill="black"/>
<path d="M319.517 652.816H323.482V646.979H325.973V662.963H323.482V654.874H319.517V652.816ZM320.871 657.926L319.638 659.863C317.22 659.04 315.455 657.32 314.536 655.165C313.569 657.538 311.732 659.451 309.145 660.347L307.863 658.386C311.248 657.199 313.231 654.317 313.231 651.363V650.612H308.613V648.602H320.291V650.612H315.745V651.363C315.745 654.051 317.607 656.787 320.871 657.926ZM314.319 666.378H326.529V668.412H311.829V661.582H314.319V666.378ZM344.902 653.833V649.909H335.062V653.833H344.902ZM347.344 647.924V655.819H332.62V647.924H347.344ZM335.014 662.091V666.378H347.707V668.412H332.523V662.091H335.014ZM330.106 657.974H349.907V659.984H341.445V664.077H338.955V659.984H330.106V657.974ZM370.495 656.957L369.19 658.918C366.844 658.071 365.104 656.4 364.185 654.341C363.218 656.715 361.429 658.604 358.914 659.524L357.584 657.538C361.018 656.351 362.879 653.373 362.879 650.224V648.069H365.394V650.418C365.394 653.227 367.255 655.891 370.495 656.957ZM367.812 666.862C370.858 666.862 372.623 666.111 372.623 664.707C372.623 663.35 370.858 662.575 367.812 662.575C364.765 662.575 363 663.35 363 664.707C363 666.111 364.765 666.862 367.812 666.862ZM367.812 660.614C372.333 660.614 375.089 662.139 375.089 664.707C375.089 667.298 372.333 668.824 367.812 668.824C363.314 668.824 360.534 667.298 360.534 664.707C360.534 662.139 363.314 660.614 367.812 660.614ZM374.847 652.355H377.942V654.414H374.847V660.081H372.357V646.931H374.847V652.355ZM392.543 655.528L392.785 657.538C389.956 658.143 387.393 658.265 382.703 658.265H380.938V648.36H390.609V650.37H383.428V656.23C387.563 656.206 389.908 656.085 392.543 655.528ZM385.604 662.333V666.547H394.647V662.333H385.604ZM383.138 668.557V660.372H397.089V668.557H383.138ZM400.183 652.113V654.172H397.089V659.282H394.598V646.931H397.089V652.113H400.183ZM409.926 648.771V652.355C409.926 656.254 411.957 660.202 415.245 661.825L413.722 663.81C411.376 662.6 409.636 660.226 408.693 657.369C407.75 660.396 405.912 662.939 403.422 664.222L401.899 662.212C405.308 660.541 407.435 656.4 407.435 652.355V648.771H409.926ZM422.595 655.625V657.683H419.186V668.824H416.695V646.955H419.186V655.625H422.595ZM439.348 650.684V649.207H426.993V647.488H441.814V652.307H429.483V653.857H442.201V655.601H427.041V650.684H439.348ZM429.314 665.191V666.862H442.539V668.581H426.848V663.568H439.42V662.018H426.8V660.299H441.887V665.191H429.314ZM424.503 656.981H444.304V658.822H424.503V656.981ZM462.015 666.959C465.328 666.959 467.044 666.426 467.044 665.264C467.044 664.15 465.328 663.592 462.015 663.592C458.727 663.592 457.01 664.15 457.01 665.264C457.01 666.426 458.727 666.959 462.015 666.959ZM462.015 661.752C466.778 661.752 469.535 662.963 469.535 665.264C469.535 667.588 466.778 668.824 462.015 668.824C457.276 668.824 454.496 667.588 454.496 665.264C454.496 662.963 457.276 661.752 462.015 661.752ZM463.297 658.386H471.904V660.396H452.151V658.386H460.782V656.594H454.689V647.56H469.559V649.474H457.18V651.12H469.027V652.985H457.18V654.68H469.704V656.594H463.297V658.386ZM479.76 661.849C481.234 661.849 482.274 660.662 482.274 658.846C482.274 657.029 481.234 655.819 479.76 655.819C478.285 655.819 477.245 657.029 477.245 658.846C477.245 660.662 478.285 661.849 479.76 661.849ZM479.76 653.76C482.516 653.76 484.498 655.819 484.498 658.846C484.498 661.849 482.516 663.932 479.76 663.932C477.003 663.932 475.021 661.849 475.021 658.846C475.021 655.819 477.003 653.76 479.76 653.76ZM480.993 647.585V650.515H485.079V652.525H474.392V650.515H478.527V647.585H480.993ZM490.664 646.955H493.033V668.824H490.664V658.071H488.343V667.806H486.022V647.415H488.343V656.012H490.664V646.955ZM503.926 659.354L502.79 657.417C506.029 656.521 507.939 654.244 508.06 651.677H503.346V649.667H508.085V647.149H510.575V649.667H515.338V651.677H510.575C510.72 654.148 512.654 656.327 515.87 657.199L514.758 659.136C512.195 658.41 510.309 656.86 509.342 654.85C508.399 656.957 506.513 658.579 503.926 659.354ZM510.575 658.652V662.285C512.485 662.188 514.419 662.018 516.232 661.728L516.426 663.544C511.615 664.513 506.392 664.537 502.524 664.537L502.209 662.478C503.926 662.478 505.981 662.479 508.085 662.406V658.652H510.575ZM517.562 646.931H520.077V668.872H517.562V646.931ZM532.188 651.169V652.937C532.188 656.642 534.364 660.662 537.749 662.236L536.299 664.198C533.808 662.987 531.947 660.517 530.98 657.586C530.012 660.686 528.127 663.35 525.588 664.658L524.113 662.672C527.474 661.05 529.674 656.884 529.674 652.937V651.169H524.959V649.134H536.927V651.169H532.188ZM539.974 646.931H542.464V668.848H539.974V656.812H535.67V654.753H539.974V646.931ZM559.135 659.354V664.101H564.648V659.33C563.802 659.548 562.859 659.645 561.892 659.645C560.924 659.645 559.981 659.548 559.135 659.354ZM561.892 650.176C558.579 650.176 556.282 651.629 556.282 653.93C556.282 656.255 558.579 657.708 561.892 657.708C565.18 657.708 567.477 656.255 567.477 653.93C567.477 651.629 565.18 650.176 561.892 650.176ZM567.138 664.101H571.804V666.135H552.027V664.101H556.645V658.41C554.904 657.441 553.864 655.867 553.864 653.93C553.864 650.442 557.225 648.214 561.892 648.214C566.534 648.214 569.919 650.442 569.919 653.93C569.919 655.867 568.879 657.417 567.138 658.41V664.101ZM579.104 662.648V666.571H589.138V662.648H579.104ZM576.662 668.557V660.662H591.58V668.557H576.662ZM591.024 655.988H594.046V658.022H574.268V655.988H588.533C589.089 653.542 589.138 651.702 589.138 650.055H576.759V648.02H591.58V649.716C591.58 651.435 591.58 653.373 591.024 655.988ZM612.104 658.168V652.598H607.68V650.588H612.104V646.931H614.595V658.168H612.104ZM609.397 655.867L608.091 657.804C605.722 657.005 603.981 655.383 603.062 653.348C602.095 655.625 600.282 657.393 597.719 658.289L596.437 656.327C599.846 655.213 601.756 652.477 601.756 649.474V647.633H604.247V649.474C604.247 652.234 606.133 654.801 609.397 655.867ZM602.893 666.596H615.344V668.557H600.427V662.89H612.129V661.147H600.378V659.209H614.595V664.731H602.893V666.596ZM630.623 652.864V647.488H632.944V667.758H630.623V660.396H627.045V658.361H630.623V654.898H627.432C626.416 658.579 624.119 661.752 620.033 664.198L618.607 662.43C623.104 659.693 625.28 656.133 625.643 651.653H619.671V649.643H628.109C628.109 650.757 628.036 651.847 627.867 652.864H630.623ZM635.024 646.955H637.417V668.824H635.024V646.955ZM656.24 666.91C659.432 666.91 661.245 666.208 661.245 664.852C661.245 663.52 659.432 662.793 656.24 662.793C653.049 662.793 651.26 663.52 651.26 664.852C651.26 666.208 653.049 666.91 656.24 666.91ZM656.24 660.88C660.931 660.88 663.76 662.333 663.76 664.852C663.76 667.395 660.931 668.848 656.24 668.848C651.574 668.848 648.721 667.395 648.721 664.852C648.721 662.333 651.574 660.88 656.24 660.88ZM657.546 657.514H666.177V659.548H646.448V657.514H655.056V655.334H648.89V647.924H663.76V649.909H651.356V653.324H663.905V655.334H657.546V657.514ZM676.717 648.771V652.355C676.717 656.376 678.941 660.396 682.374 661.946L680.924 663.932C678.409 662.745 676.499 660.323 675.508 657.369C674.517 660.541 672.582 663.132 669.947 664.416L668.472 662.333C671.954 660.759 674.226 656.569 674.226 652.355V648.771H676.717ZM684.115 646.931H686.63V668.872H684.115V646.931ZM695.816 661.825C697.315 661.825 698.234 659.863 698.234 656.4C698.234 652.937 697.315 650.999 695.816 650.999C694.317 650.999 693.398 652.937 693.398 656.4C693.398 659.863 694.317 661.825 695.816 661.825ZM702.803 655.237V647.367H705.124V667.782H702.803V657.296H700.482C700.264 661.558 698.475 664.174 695.816 664.174C692.987 664.174 691.125 661.195 691.125 656.4C691.125 651.605 692.987 648.65 695.816 648.65C698.427 648.65 700.192 651.145 700.458 655.237H702.803ZM707.179 646.955H709.549V668.799H707.179V646.955ZM261.617 694.257L260.481 692.319C263.72 691.423 265.631 689.147 265.751 686.579H261.037V684.569H265.776V682.051H268.266V684.569H273.029V686.579H268.266C268.411 689.05 270.345 691.229 273.561 692.101L272.449 694.039C269.886 693.312 268 691.762 267.033 689.752C266.09 691.859 264.204 693.482 261.617 694.257ZM268.266 693.554V697.187C270.176 697.09 272.11 696.92 273.924 696.63L274.117 698.446C269.306 699.415 264.083 699.439 260.215 699.439L259.9 697.381C261.617 697.381 263.672 697.381 265.776 697.308V693.554H268.266ZM275.253 681.833H277.768V703.774H275.253V681.833ZM285.213 686.483V696.46C287.728 696.436 289.71 696.315 291.959 695.855L292.176 697.913C289.541 698.422 287.292 698.519 284.222 698.519H282.771V684.448H290.847V686.483H285.213ZM298.293 681.833H300.663V703.701H298.293V692.513H295.706V702.636H293.361V682.293H295.706V690.479H298.293V681.833ZM320.235 685.417V687.427H309.67V685.417H313.707V682.438H316.173V685.417H320.235ZM314.916 696.872C316.343 696.872 317.334 695.685 317.334 693.845C317.334 691.98 316.343 690.769 314.916 690.769C313.49 690.769 312.498 691.98 312.498 693.845C312.498 695.685 313.49 696.872 314.916 696.872ZM321.879 689.098V682.293H324.225V702.709H321.879V696.194H319.099C318.349 697.913 316.826 698.979 314.916 698.955C312.232 698.955 310.322 696.848 310.322 693.845C310.322 690.769 312.232 688.662 314.916 688.662C317.6 688.662 319.534 690.769 319.534 693.845C319.534 693.942 319.534 694.063 319.534 694.184H321.879V691.108H319.172V689.098H321.879ZM325.99 681.857H328.359V703.75H325.99V681.857ZM341.969 691.568L342.235 693.603C339.72 694.063 337.641 694.135 334.256 694.135H332.781V683.407H341.292V685.417H335.199V687.718H341.05V689.655H335.199V692.101C337.955 692.077 339.817 691.98 341.969 691.568ZM335.61 698.228V696.218H350.431V703.75H347.941V698.228H335.61ZM348.062 681.857H350.431V695.153H348.062V689.437H345.644V695.007H343.323V682.269H345.644V687.403H348.062V681.857ZM364.065 684.061C360.68 684.061 358.867 684.715 358.867 685.974C358.867 687.209 360.68 687.863 364.065 687.863C367.45 687.863 369.264 687.209 369.264 685.974C369.264 684.715 367.45 684.061 364.065 684.061ZM364.065 689.728C359.157 689.728 356.28 688.396 356.28 685.974C356.28 683.528 359.157 682.196 364.065 682.196C368.949 682.196 371.851 683.528 371.851 685.974C371.851 688.396 368.949 689.728 364.065 689.728ZM359.036 699.802V701.619H372.092V703.532H356.57V698.034H369.022V696.46H356.522V694.571H371.464V699.802H359.036ZM354.177 691.011H373.954V692.997H354.177V691.011ZM390.456 691.399V688.129H385.113V691.399H390.456ZM392.922 683.068V693.385H382.623V683.068H385.113V686.168H390.456V683.068H392.922ZM387.506 697.72V701.449H399.474V703.435H385.016V695.734H399.063V697.72H387.506ZM398.918 686.991H402.013V689.05H398.918V694.644H396.428V681.857H398.918V686.991ZM413.98 683.092C418.525 683.092 422.007 685.562 422.007 689.268C422.007 692.997 418.525 695.443 413.98 695.443C409.41 695.443 405.953 692.997 405.953 689.268C405.953 685.562 409.41 683.092 413.98 683.092ZM413.98 685.151C410.74 685.151 408.37 686.749 408.37 689.268C408.37 691.786 410.74 693.385 413.98 693.385C417.195 693.385 419.589 691.786 419.589 689.268C419.589 686.749 417.195 685.151 413.98 685.151ZM404.115 698.906H423.893V700.965H404.115V698.906ZM444.345 681.857V693.07H441.83V681.857H444.345ZM439.63 690.624L438.421 692.586C435.907 691.762 434.069 690.091 433.078 687.936C432.087 690.285 430.225 692.101 427.59 692.997L426.357 691.011C429.814 689.873 431.772 687.04 431.772 684.085V682.438H434.311V684.085C434.311 686.919 436.269 689.582 439.63 690.624ZM432.522 701.57H444.998V703.532H430.08V697.841H441.879V696.049H430.032V694.111H444.345V699.657H432.522V701.57ZM472.912 689.922L471.944 691.932C468.318 691.35 465.344 689.51 463.917 686.991C462.515 689.534 459.493 691.35 455.866 691.932L454.899 689.922C459.348 689.292 462.588 686.604 462.588 683.722V682.559H465.223V683.722C465.223 686.555 468.511 689.292 472.912 689.922ZM473.758 693.99V696.024H465.078V703.75H462.588V696.024H454.029V693.99H473.758ZM499.689 681.881V694.305H497.199V681.881H499.689ZM487.915 685.126C485.98 685.126 484.554 686.362 484.554 688.226C484.554 690.115 485.98 691.326 487.915 691.326C489.849 691.326 491.275 690.115 491.275 688.226C491.275 686.362 489.849 685.126 487.915 685.126ZM487.915 693.385C484.578 693.385 482.112 691.278 482.112 688.226C482.112 685.175 484.578 683.068 487.915 683.068C491.251 683.068 493.693 685.175 493.693 688.226C493.693 691.278 491.251 693.385 487.915 693.385ZM497.368 695.249V696.218C497.368 698.47 498.795 700.674 501.623 701.594L500.39 703.435C498.287 702.684 496.86 701.28 496.111 699.512C495.41 701.231 494.104 702.805 492.122 703.629C490.066 702.83 488.785 701.328 488.108 699.56C487.31 701.28 485.908 702.684 483.877 703.435L482.668 701.594C485.448 700.602 486.899 698.349 486.899 696.218V695.249H489.317V696.218C489.317 698.059 490.163 700.02 492.073 701.231C494.007 699.924 494.926 697.865 494.926 696.218V695.249H497.368ZM515.041 699.052H523.72V701.11H503.943V699.052H512.55V693.893H506.361V683.504H521.303V685.514H508.851V691.883H521.496V693.893H515.041V699.052ZM528.385 699.245V697.235H543.592V703.605H541.102V699.245H528.385ZM537.306 693.748H545.962V695.758H526.16V693.748H534.816V691.762H528.699V686.119H541.005V684.279H528.651V682.366H543.472V687.911H531.141V689.849H543.907V691.762H537.306V693.748ZM566.55 691.859L565.244 693.821C562.899 692.973 561.158 691.302 560.24 689.243C559.272 691.617 557.483 693.506 554.969 694.426L553.639 692.44C557.072 691.253 558.934 688.275 558.934 685.126V682.971H561.448V685.32C561.448 688.129 563.31 690.793 566.55 691.859ZM563.866 701.764C566.913 701.764 568.678 701.013 568.678 699.609C568.678 698.252 566.913 697.477 563.866 697.477C560.82 697.477 559.055 698.252 559.055 699.609C559.055 701.013 560.82 701.764 563.866 701.764ZM563.866 695.516C568.387 695.516 571.144 697.042 571.144 699.609C571.144 702.2 568.387 703.726 563.866 703.726C559.369 703.726 556.589 702.2 556.589 699.609C556.589 697.042 559.369 695.516 563.866 695.516ZM570.902 687.258H573.997V689.316H570.902V694.983H568.412V681.833H570.902V687.258ZM588.598 690.43L588.84 692.44C586.011 693.046 583.448 693.167 578.758 693.167H576.993V683.262H586.664V685.272H579.483V691.132C583.617 691.108 585.963 690.987 588.598 690.43ZM581.659 697.235V701.449H590.701V697.235H581.659ZM579.193 703.459V695.274H593.143V703.459H579.193ZM596.238 687.015V689.074H593.143V694.184H590.653V681.833H593.143V687.015H596.238ZM603.659 696.751C605.134 696.751 606.174 695.564 606.174 693.748C606.174 691.932 605.134 690.721 603.659 690.721C602.184 690.721 601.145 691.932 601.145 693.748C601.145 695.564 602.184 696.751 603.659 696.751ZM603.659 688.662C606.416 688.662 608.398 690.721 608.398 693.748C608.398 696.751 606.416 698.834 603.659 698.834C600.903 698.834 598.92 696.751 598.92 693.748C598.92 690.721 600.903 688.662 603.659 688.662ZM604.892 682.487V685.417H608.978V687.427H598.292V685.417H602.426V682.487H604.892ZM614.564 681.857H616.933V703.726H614.564V692.973H612.242V702.709H609.921V682.317H612.242V690.914H614.564V681.857ZM643.565 692.174V694.184H628.43V683.77H643.396V685.805H630.92V692.174H643.565ZM626.012 698.858H645.814V700.916H626.012V698.858ZM652.001 691.907V696.509C655.459 696.485 658.481 696.315 661.938 695.758L662.204 697.792C658.457 698.446 655.193 698.567 651.349 698.567H649.487V689.897H657.103V685.829H649.439V683.794H659.617V691.907H652.001ZM663.752 681.809H666.266V703.774H663.752V681.809ZM688.967 681.857V694.378H686.598V681.857H688.967ZM671.849 694.91L670.616 693.07C674.847 691.375 677.072 688.808 677.483 685.441H671.632V683.431H680.07C680.07 685.054 679.828 686.507 679.344 687.815H682.221V682.317H684.567V694.087H682.221V689.849H678.353C676.975 691.98 674.847 693.675 671.849 694.91ZM686.308 695.104V696.339C686.308 698.616 687.734 700.844 690.539 701.788L689.33 703.605C687.226 702.854 685.8 701.401 685.05 699.633C684.373 701.377 683.068 702.975 681.085 703.798C679.054 703.023 677.749 701.498 677.072 699.73C676.274 701.425 674.896 702.854 672.865 703.605L671.632 701.788C674.412 700.771 675.887 698.47 675.887 696.339V695.104H678.305V696.339C678.305 698.204 679.151 700.166 681.037 701.401C682.995 700.069 683.866 698.01 683.866 696.339V695.104H686.308ZM711.425 688.396L710.532 690.333C706.978 689.849 704.028 688.202 702.602 685.926C701.2 688.202 698.25 689.849 694.696 690.333L693.777 688.396C698.153 687.839 701.32 685.465 701.32 682.923V682.075H703.883V682.923C703.883 685.441 707.099 687.839 711.425 688.396ZM707.462 701.473V699.124H697.621V701.473H707.462ZM707.462 697.211V694.983H709.952V703.459H695.155V694.983H697.621V697.211H707.462ZM692.713 691.641H712.491V693.627H692.713V691.641ZM718.728 683.988V696.073C721.821 696.049 725.085 695.782 728.52 695.08L728.783 697.163C725.035 697.938 721.508 698.204 718.123 698.204H716.26V683.988H718.728ZM730.525 681.857H733.014V703.726H730.525V681.857ZM740.58 685.95V696.291C744.114 696.267 746.774 696.121 749.818 695.589L750.081 697.647C746.774 698.252 743.823 698.374 739.883 698.374H738.091V683.916H748.246V685.95H740.58ZM757.533 690.261V692.319H754.12V703.75H751.631V681.833H754.12V690.261H757.533ZM761.828 702.176C760.79 702.176 759.972 701.377 759.972 700.238C759.972 699.076 760.79 698.252 761.828 698.252C762.874 698.252 763.691 699.076 763.691 700.238C763.691 701.377 762.874 702.176 761.828 702.176Z" fill="#666666"/>
<path d="M432.097 763.096V786.038H427.558V763.096H432.097ZM425.236 777.698L422.949 781.287C419.468 780.091 417.079 777.762 415.713 774.82C414.28 778.004 411.822 780.568 408.17 781.829L405.883 778.239C411.105 776.465 413.358 772.056 413.358 767.847V764.805H417.932V767.847C417.932 772.021 420.116 776.052 425.236 777.698ZM415.679 790.412H432.882V794.002H411.173V783.852H415.679V790.412ZM464.248 772.534L462.61 776.052C457.319 775.304 453.496 773.11 451.516 769.969C449.537 773.082 445.714 775.304 440.457 776.052L438.785 772.534C445.85 771.679 449.229 768.089 449.229 764.534V763.609H453.837V764.534C453.837 768.188 457.148 771.679 464.248 772.534ZM440.525 787.677V784.122H462.371V794.586H457.865V787.677H440.525ZM453.803 778.31H465.818V781.9H437.385V778.31H449.298V774.243H453.803V778.31ZM498.295 779.065V771.266H492.561V767.676H498.295V763.06H502.801V779.065H498.295ZM495.292 775.233L493.005 778.688C489.694 777.626 487.373 775.539 486.041 772.911C484.642 775.846 482.184 778.175 478.6 779.3L476.279 775.782C481.502 774.207 483.686 770.347 483.686 766.344V764.086H488.226V766.344C488.226 770.069 490.376 773.73 495.292 775.233ZM486.553 790.69H503.688V794.173H482.116V785.59H498.364V783.852H482.082V780.397H502.801V788.838H486.553V790.69ZM520.172 771.778V772.875C520.172 777.42 522.664 782.548 527.818 784.771L525.428 788.225C521.879 786.758 519.387 783.745 517.987 780.155C516.588 783.951 514.062 787.164 510.478 788.774L508.055 785.319C513.209 782.997 515.666 777.662 515.666 772.875V771.778H509.113V768.189H515.666V763.815H520.172V768.189H526.589V771.778H520.172ZM529.49 763.06H533.996V794.55H529.49V763.06ZM540.718 798.895L539.66 796.16C542.322 795.163 543.79 793.389 543.756 791.473C543.654 791.473 543.551 791.473 543.449 791.473C541.81 791.473 540.308 790.412 540.308 788.496C540.308 786.687 541.776 785.526 543.551 785.526C545.872 785.526 547.169 787.37 547.169 790.483C547.169 794.479 544.848 797.528 540.718 798.895ZM570.303 769.798V771.543C570.303 776.672 572.829 782.107 578.086 784.293L575.628 787.848C571.976 786.274 569.484 783.196 568.084 779.407C566.685 783.51 564.159 786.957 560.473 788.638L557.913 785.048C563.169 782.684 565.729 776.907 565.729 771.543V769.798H559.176V766.073H576.788V769.798H570.303ZM579.69 763.06H584.195V794.55H579.69V763.06ZM610.1 790.583V787.748H597.402V790.583H610.1ZM610.1 784.258V780.974H614.605V794.208H592.931V780.974H597.402V784.258H610.1ZM613.991 775.333H618.019V778.958H589.551V775.333H609.519C610.134 772.363 610.236 770.005 610.236 767.918H593.067V764.328H614.674V766.857C614.674 769.321 614.674 771.814 613.991 775.333Z" fill="black"/>
<path d="M304.48 833.591H308.759V820.727H311.25V837.366H308.759V835.336H304.48V833.591ZM300.128 823.42C298.315 823.42 297.081 824.196 297.081 825.428C297.081 826.66 298.315 827.437 300.128 827.437C301.917 827.437 303.15 826.66 303.15 825.428C303.15 824.196 301.917 823.42 300.128 823.42ZM300.128 829.282C296.912 829.282 294.712 827.75 294.712 825.428C294.712 823.106 296.912 821.575 300.128 821.575C303.319 821.575 305.52 823.106 305.52 825.428C305.52 827.75 303.319 829.282 300.128 829.282ZM299.137 836.668V832.594C297.057 832.694 295.099 832.715 293.358 832.715L293.044 830.685C297.057 830.656 302.425 830.614 307.043 830.03L307.236 831.825C305.399 832.138 303.489 832.33 301.627 832.451V836.668H299.137ZM298.484 840.18H311.757V842.21H295.993V835.742H298.484V840.18ZM321.766 835.863C323.531 835.863 324.812 834.652 324.812 832.815C324.812 830.977 323.531 829.766 321.766 829.766C320.001 829.766 318.719 830.977 318.719 832.815C318.719 834.652 320.001 835.863 321.766 835.863ZM321.766 827.708C324.885 827.708 327.181 829.837 327.181 832.815C327.181 835.821 324.885 837.922 321.766 837.922C318.622 837.922 316.35 835.821 316.35 832.815C316.35 829.837 318.622 827.708 321.766 827.708ZM322.974 821.09V824.118H328.076V826.155H315.286V824.118H320.484V821.09H322.974ZM335.716 829.545V831.625H332.355V842.644H329.841V820.756H332.355V829.545H335.716ZM345.699 822.572V826.155C345.699 830.172 347.924 834.196 351.357 835.742L349.906 837.729C347.392 836.547 345.482 834.125 344.491 831.169C343.499 834.339 341.565 836.932 338.93 838.214L337.455 836.134C340.936 834.56 343.209 830.371 343.209 826.155V822.572H345.699ZM353.098 820.727H355.612V842.673H353.098V820.727ZM377.419 827.024V829.061H362.428V821.532H364.919V827.024H377.419ZM364.774 835.699V840.13H377.539V842.138H362.283V835.699H364.774ZM359.865 831.675H379.691V833.684H359.865V831.675ZM400.062 827.85L400.352 829.887C396.725 830.585 393.461 830.806 390.294 830.806H388.529V821.696H391.019V828.747C393.848 828.698 396.846 828.477 400.062 827.85ZM393.05 838.335V840.372H405.333V842.359H390.56V836.469H402.117V834.631H390.512V832.644H404.607V838.335H393.05ZM404.607 825.065H407.702V827.123H404.607V831.675H402.117V820.727H404.607V825.065ZM410.481 845.6L409.852 844.026C411.521 843.349 412.488 842.117 412.488 840.707C412.391 840.735 412.318 840.735 412.222 840.735C411.23 840.735 410.36 840.101 410.36 838.94C410.36 837.851 411.23 837.152 412.294 837.152C413.648 837.152 414.446 838.285 414.446 840.151C414.446 842.694 412.971 844.66 410.481 845.6ZM433.751 833.591H438.03V820.727H440.52V837.366H438.03V835.336H433.751V833.591ZM429.399 823.42C427.585 823.42 426.352 824.196 426.352 825.428C426.352 826.66 427.585 827.437 429.399 827.437C431.188 827.437 432.421 826.66 432.421 825.428C432.421 824.196 431.188 823.42 429.399 823.42ZM429.399 829.282C426.183 829.282 423.983 827.75 423.983 825.428C423.983 823.106 426.183 821.575 429.399 821.575C432.59 821.575 434.79 823.106 434.79 825.428C434.79 827.75 432.59 829.282 429.399 829.282ZM428.407 836.668V832.594C426.328 832.694 424.37 832.715 422.629 832.715L422.315 830.685C426.328 830.656 431.696 830.614 436.314 830.03L436.507 831.825C434.669 832.138 432.759 832.33 430.898 832.451V836.668H428.407ZM427.755 840.18H441.028V842.21H425.264V835.742H427.755V840.18ZM451.036 835.863C452.801 835.863 454.083 834.652 454.083 832.815C454.083 830.977 452.801 829.766 451.036 829.766C449.271 829.766 447.99 830.977 447.99 832.815C447.99 834.652 449.271 835.863 451.036 835.863ZM451.036 827.708C454.155 827.708 456.452 829.837 456.452 832.815C456.452 835.821 454.155 837.922 451.036 837.922C447.893 837.922 445.621 835.821 445.621 832.815C445.621 829.837 447.893 827.708 451.036 827.708ZM452.245 821.09V824.118H457.347V826.155H444.557V824.118H449.755V821.09H452.245ZM464.987 829.545V831.625H461.626V842.644H459.112V820.756H461.626V829.545H464.987ZM474.97 822.572V826.155C474.97 830.172 477.195 834.196 480.628 835.742L479.177 837.729C476.663 836.547 474.753 834.125 473.761 831.169C472.77 834.339 470.836 836.932 468.2 838.214L466.726 836.134C470.207 834.56 472.48 830.371 472.48 826.155V822.572H474.97ZM482.369 820.727H484.883V842.673H482.369V820.727ZM506.689 827.024V829.061H491.699V821.532H494.189V827.024H506.689ZM494.044 835.699V840.13H506.81V842.138H491.554V835.699H494.044ZM489.136 831.675H508.962V833.684H489.136V831.675ZM524.884 822.572V826.155C524.884 830.172 527.108 834.196 530.541 835.742L529.091 837.729C526.576 836.547 524.666 834.125 523.675 831.169C522.684 834.339 520.749 836.932 518.114 838.214L516.639 836.134C520.121 834.56 522.393 830.371 522.393 826.155V822.572H524.884ZM532.282 820.727H534.797V842.673H532.282V820.727ZM539.921 822.422H550.245C550.245 828.213 546.401 832.33 540.042 834.268L539.002 832.28C544.007 830.756 547.102 827.921 547.537 824.459H539.921V822.422ZM544.781 834.994V840.18H556.966V842.21H542.266V834.994H544.781ZM556.096 827.145H559.215V829.203H556.096V836.59H553.606V820.756H556.096V827.145ZM566.224 835.621C567.723 835.621 568.642 833.662 568.642 830.201C568.642 826.739 567.723 824.801 566.224 824.801C564.725 824.801 563.806 826.739 563.806 830.201C563.806 833.662 564.725 835.621 566.224 835.621ZM573.212 829.039V821.169H575.533V841.583H573.212V831.098H570.891C570.673 835.357 568.884 837.972 566.224 837.972C563.395 837.972 561.534 834.994 561.534 830.201C561.534 825.407 563.395 822.451 566.224 822.451C568.835 822.451 570.6 824.944 570.866 829.039H573.212ZM577.588 820.756H579.957V842.601H577.588V820.756ZM604.583 831.967V826.397H600.158V824.388H604.583V820.727H607.073V831.967H604.583ZM601.875 829.666L600.569 831.604C598.2 830.806 596.459 829.182 595.541 827.145C594.573 829.424 592.76 831.191 590.197 832.088L588.916 830.129C592.325 829.011 594.235 826.276 594.235 823.27V821.432H596.725V823.27C596.725 826.034 598.611 828.598 601.875 829.666ZM595.371 840.393H607.823V842.359H592.905V836.689H604.607V834.944H592.857V833.007H607.073V838.527H595.371V840.393ZM619.475 826.447V827.708C619.475 831.141 621.603 834.702 624.988 836.184L623.658 838.121C621.168 837.031 619.257 834.773 618.266 832.038C617.299 834.944 615.389 837.316 612.85 838.484L611.472 836.568C614.905 835.016 616.985 831.312 616.985 827.708V826.447H612.149V824.438H616.985V821.19H619.475V824.438H624.214V826.447H619.475ZM626.704 820.727H629.219V842.601H626.704V820.727ZM639.966 823.056H650.097C650.097 829.403 647.389 835.016 640.257 838.627L638.878 836.711C644.222 833.976 647.099 830.129 647.607 825.086H639.966V823.056ZM659.115 829.374V831.461H655.803V842.601H653.313V820.727H655.803V829.374H659.115ZM678.649 826.568V828.576H663.731V821.169H666.221V826.568H678.649ZM670.96 840.636C674.152 840.636 675.965 839.888 675.965 838.556C675.965 837.174 674.152 836.469 670.96 836.469C667.769 836.469 665.98 837.174 665.98 838.556C665.98 839.888 667.769 840.636 670.96 840.636ZM670.96 834.51C675.651 834.51 678.48 835.984 678.48 838.556C678.48 841.099 675.651 842.573 670.96 842.573C666.294 842.573 663.441 841.099 663.441 838.556C663.441 835.984 666.294 834.51 670.96 834.51ZM661.144 830.777H680.897V832.815H661.144V830.777ZM689.744 835.863C691.509 835.863 692.791 834.652 692.791 832.815C692.791 830.977 691.509 829.766 689.744 829.766C687.979 829.766 686.698 830.977 686.698 832.815C686.698 834.652 687.979 835.863 689.744 835.863ZM689.744 827.708C692.863 827.708 695.16 829.837 695.16 832.815C695.16 835.821 692.863 837.922 689.744 837.922C686.601 837.922 684.328 835.821 684.328 832.815C684.328 829.837 686.601 827.708 689.744 827.708ZM690.953 821.09V824.118H696.055V826.155H683.265V824.118H688.463V821.09H690.953ZM703.695 829.545V831.625H700.334V842.644H697.82V820.756H700.334V829.545H703.695ZM716.579 831.846H721.244V827.871H716.579V831.846ZM714.14 835.215V824.773H708.892V835.215H714.14ZM721.244 820.727H723.761V842.673H721.244V833.855H716.579V837.174H706.45V822.786H716.579V825.863H721.244V820.727ZM303.329 866.869V861.299H298.905V859.29H303.329V855.629H305.82V866.869H303.329ZM300.621 864.568L299.316 866.506C296.946 865.708 295.206 864.084 294.287 862.047C293.32 864.326 291.506 866.093 288.944 866.99L287.662 865.031C291.071 863.913 292.981 861.178 292.981 858.172V856.334H295.472V858.172C295.472 860.936 297.357 863.5 300.621 864.568ZM294.118 875.295H306.569V877.261H291.651V871.592H303.353V869.847H291.603V867.909H305.82V873.429H294.118V875.295ZM318.221 861.349V862.61C318.221 866.043 320.348 869.604 323.733 871.086L322.403 873.023C319.913 871.933 318.003 869.676 317.012 866.94C316.045 869.846 314.135 872.218 311.596 873.387L310.218 871.47C313.651 869.918 315.73 866.214 315.73 862.61V861.349H310.895V859.34H315.73V856.092H318.221V859.34H322.96V861.349H318.221ZM325.45 855.629H327.964V877.504H325.45V855.629ZM341.106 860.957C341.106 862.489 342.387 863.457 344.2 863.457C346.038 863.457 347.271 862.489 347.271 860.957C347.271 859.461 346.038 858.493 344.2 858.493C342.387 858.493 341.106 859.461 341.106 860.957ZM350.97 866.606L351.139 868.422C346.642 869.27 341.565 869.341 337.914 869.341L337.6 867.304C339.171 867.304 341.033 867.304 342.992 867.232V865.245C340.477 864.86 338.785 863.215 338.785 860.957C338.785 858.371 341.033 856.598 344.2 856.598C347.368 856.598 349.592 858.371 349.592 860.957C349.592 863.187 347.948 864.832 345.482 865.245V867.133C347.344 867.012 349.229 866.869 350.97 866.606ZM343.112 870.965V875.082H355.491V877.09H340.622V870.965H343.112ZM354.742 862.823H357.74V864.882H354.742V872.389H352.252V855.679H354.742V862.823ZM367.651 869.12V872.902H372.124V869.12H367.651ZM374.59 872.902H379.667V874.961H359.89V872.902H365.185V869.12H362.283V862.097H374.856V859.191H362.235V857.182H377.322V864.084H364.725V867.111H377.805V869.12H374.59V872.902ZM406.203 858.051V860.038H388.529V858.051H396.169V855.608H398.659V858.051H406.203ZM402.093 864.811C402.093 863.621 400.473 862.994 397.426 862.994C394.38 862.994 392.736 863.621 392.736 864.811C392.736 866 394.38 866.648 397.426 866.648C400.473 866.648 402.093 866 402.093 864.811ZM390.149 864.811C390.149 862.439 392.881 861.107 397.426 861.107C401.972 861.107 404.704 862.439 404.704 864.811C404.704 867.183 401.972 868.515 397.426 868.515C392.881 868.515 390.149 867.183 390.149 864.811ZM407.339 869.825V871.834H398.659V877.546H396.169V871.834H387.538V869.825H407.339ZM430.829 866.869V861.299H426.404V859.29H430.829V855.629H433.319V866.869H430.829ZM428.121 864.568L426.815 866.506C424.446 865.708 422.705 864.084 421.786 862.047C420.819 864.326 419.006 866.093 416.443 866.99L415.162 865.031C418.571 863.913 420.481 861.178 420.481 858.172V856.334H422.971V858.172C422.971 860.936 424.857 863.5 428.121 864.568ZM421.617 875.295H434.068V877.261H419.151V871.592H430.853V869.847H419.102V867.909H433.319V873.429H421.617V875.295ZM445.721 861.349V862.61C445.721 866.043 447.848 869.604 451.233 871.086L449.904 873.023C447.413 871.933 445.503 869.676 444.512 866.94C443.545 869.846 441.635 872.218 439.096 873.387L437.718 871.47C441.151 869.918 443.23 866.214 443.23 862.61V861.349H438.395V859.34H443.23V856.092H445.721V859.34H450.46V861.349H445.721ZM452.95 855.629H455.464V877.504H452.95V855.629ZM477.987 857.495V859.312H465.511V857.495H470.516V855.465H473.03V857.495H477.987ZM468.896 863.258C468.896 864.227 470.008 864.811 471.749 864.811C473.49 864.811 474.602 864.227 474.602 863.258C474.602 862.268 473.49 861.662 471.749 861.662C470.008 861.662 468.896 862.268 468.896 863.258ZM478.591 867.282L478.785 869.027C474.167 869.847 469.065 869.875 465.245 869.896L464.955 867.909C466.599 867.909 468.509 867.909 470.516 867.859V866.406C468.05 866.143 466.551 864.982 466.551 863.258C466.551 861.228 468.606 859.988 471.749 859.988C474.892 859.988 476.947 861.228 476.947 863.258C476.947 864.982 475.448 866.121 473.03 866.406V867.767C474.916 867.667 476.826 867.546 478.591 867.282ZM467.663 873.408V871.421H482.242V877.546H479.752V873.408H467.663ZM485.24 862.125V864.184H482.242V870.452H479.752V855.679H482.242V862.125H485.24ZM505.378 855.658V871.542H502.888V855.658H505.378ZM490.243 862.581C490.243 864.568 491.669 865.9 493.603 865.9C495.513 865.9 496.964 864.568 496.964 862.581C496.964 860.572 495.513 859.262 493.603 859.262C491.669 859.262 490.243 860.572 490.243 862.581ZM499.382 862.581C499.382 865.758 496.892 868.059 493.603 868.059C490.315 868.059 487.801 865.758 487.801 862.581C487.801 859.383 490.315 857.111 493.603 857.111C496.892 857.111 499.382 859.383 499.382 862.581ZM493.628 875.082H506.007V877.112H491.113V869.946H493.628V875.082ZM516.899 864.861L516.029 862.923C520.115 862.489 522.968 860.644 523.21 858.614H516.851V856.598H533.002V858.614H526.595C526.837 860.672 529.714 862.489 533.8 862.923L532.905 864.861C529.061 864.447 526.063 862.823 524.902 860.551C523.718 862.823 520.744 864.447 516.899 864.861ZM517.238 872.005V870.017H532.373V877.546H529.883V872.005H517.238ZM515.014 866.071H534.839V868.08H515.014V866.071ZM545.355 857.474V861.057C545.355 865.074 547.58 869.099 551.013 870.644L549.562 872.632C547.048 871.449 545.138 869.027 544.146 866.071C543.155 869.241 541.221 871.834 538.586 873.116L537.111 871.036C540.592 869.462 542.865 865.274 542.865 861.057V857.474H545.355ZM552.754 855.629H555.268V877.575H552.754V855.629ZM580.571 872.34V867.959H577.234V865.95H580.571V863.336H577.234V861.299H580.571V855.658H583.061V872.34H580.571ZM577.138 858.151V860.138H565.025V858.151H569.933V855.629H572.423V858.151H577.138ZM568.506 865.395C568.506 866.819 569.594 867.667 571.166 867.667C572.761 867.667 573.849 866.819 573.849 865.395C573.849 863.984 572.761 863.094 571.166 863.094C569.594 863.094 568.506 863.984 568.506 865.395ZM576.195 865.395C576.195 867.909 574.14 869.633 571.166 869.633C568.216 869.633 566.161 867.909 566.161 865.395C566.161 862.852 568.216 861.157 571.166 861.157C574.14 861.157 576.195 862.852 576.195 865.395ZM571.359 875.082H583.569V877.112H568.845V870.936H571.359V875.082ZM592.053 871.349V875.274H602.087V871.349H592.053ZM589.611 877.261V869.362H604.529V877.261H589.611ZM603.973 864.69H606.995V866.727H587.218V864.69H601.483C602.039 862.246 602.087 860.402 602.087 858.756H589.708V856.719H604.529V858.414C604.529 860.138 604.529 862.075 603.973 864.69ZM630.388 855.658H632.878V867.403H630.388V855.658ZM618.613 868.422H621.079V870.844H630.412V868.422H632.878V877.261H618.613V868.422ZM621.079 872.781V875.246H630.412V872.781H621.079ZM621.104 856.648C624.44 856.648 626.882 858.735 626.882 861.734C626.882 864.739 624.44 866.819 621.104 866.819C617.767 866.819 615.301 864.739 615.301 861.734C615.301 858.735 617.767 856.648 621.104 856.648ZM621.104 858.706C619.121 858.706 617.743 859.917 617.743 861.734C617.743 863.578 619.121 864.761 621.104 864.761C623.062 864.761 624.464 863.578 624.464 861.734C624.464 859.917 623.062 858.706 621.104 858.706ZM641.967 871.349V875.274H652.001V871.349H641.967ZM639.525 877.261V869.362H654.443V877.261H639.525ZM653.886 864.69H656.909V866.727H637.131V864.69H651.396C651.952 862.246 652.001 860.402 652.001 858.756H639.622V856.719H654.443V858.414C654.443 860.138 654.443 862.075 653.886 864.69ZM678.754 865.224L678.923 866.969C674.233 867.816 669.035 867.888 665.19 867.888L664.852 865.922C666.617 865.922 668.648 865.922 670.775 865.851V863.771H666.762V856.698H677.134V858.735H669.252V861.762H677.303V863.771H673.266V865.729C675.127 865.658 676.989 865.487 678.754 865.224ZM680.374 875.274V873.144H670.8V875.274H680.374ZM680.374 871.228V869.241H682.84V877.261H668.333V869.241H670.8V871.228H680.374ZM680.326 855.658H682.84V868.301H680.326V855.658ZM690.793 857.787V869.875C693.888 869.846 697.152 869.583 700.585 868.878L700.851 870.965C697.104 871.734 693.574 872.005 690.189 872.005H688.327V857.787H690.793ZM702.592 855.658H705.082V877.525H702.592V855.658ZM712.646 859.746V870.089C716.18 870.067 718.84 869.918 721.884 869.391L722.147 871.449C718.84 872.055 715.889 872.176 711.949 872.176H710.157V857.716H720.312V859.746H712.646ZM729.599 864.063V866.121H726.186V877.546H723.697V855.629H726.186V864.063H729.599ZM733.901 875.972C732.856 875.972 732.038 875.174 732.038 874.035C732.038 872.874 732.856 872.055 733.901 872.055C734.94 872.055 735.757 872.874 735.757 874.035C735.757 875.174 734.94 875.972 733.901 875.972Z" fill="#666666"/>
</g>
<defs>
<clipPath id="clip0_55_9090">
<rect width="1024" height="968" fill="white" transform="translate(0 0.733398)"/>
</clipPath>
</defs>
</svg>
